
<svg xmlns="http://www.w3.org/2000/svg" version="1.1" xmlns:xlink="http://www.w3.org/1999/xlink" preserveAspectRatio="none" x="0px" y="0px" width="200px" height="200px" viewBox="0 0 200 200">
<defs>
<linearGradient id="Gradient_1" gradientUnits="userSpaceOnUse" x1="888.0875000000001" y1="79.2" x2="917.8125" y2="79.2" spreadMethod="pad">
<stop  offset="45.88235294117647%" stop-color="#21273F"/>

<stop  offset="48.23529411764706%" stop-color="#2F3859"/>
</linearGradient>

<g id="Layer0_0_FILL">
<path fill="#FFFFFF" stroke="none" d="
M 890.45 53.5
L 878.1 53.5 878.1 120.55 890.45 120.55 890.45 53.5
M 847.7 53.65
L 835.35 53.65 835.35 120.7 847.7 120.7 847.7 53.65 Z"/>

<path fill="#535B8D" stroke="none" d="
M 822.8 60.15
Q 822.8 54.7 818.45 54.7
L 806.6 54.7
Q 802.25 54.7 802.25 60.15
L 802.25 110.25
Q 801.65 117.4 805.5 119
L 813.85 122.75
Q 818 124.7 820.3 125.8 822.65 126.85 822.8 126.7
L 822.8 60.15
M 907.15 54.1
Q 902.8 54.1 902.8 59.55
L 902.8 126.1
Q 902.95 126.25 905.3 125.2 907.6 124.1 911.75 122.15
L 920.1 118.4
Q 923.95 116.8 923.35 109.65
L 923.35 59.55
Q 923.35 54.1 919 54.1
L 907.15 54.1 Z"/>
</g>

<g id="Layer0_0_MEMBER_0_FILL">
<path fill="#404770" stroke="none" d="
M 142.5 265
Q 104.2 265 77.1 292.1 50 319.2 50 357.5 50 395.8 77.1 422.9 104.2 450 142.5 450 180.8 450 207.9 422.9 235 395.8 235 357.5 235 319.2 207.9 292.1 180.8 265 142.5 265 Z"/>
</g>

<g id="Layer0_0_MEMBER_1_FILL">
<path fill="#6F77B2" stroke="none" d="
M 142.5 265
Q 104.2 265 77.1 292.1 50 319.2 50 357.5 50 395.8 77.1 422.9 104.2 450 142.5 450 180.8 450 207.9 422.9 235 395.8 235 357.5 235 319.2 207.9 292.1 180.8 265 142.5 265 Z"/>
</g>

<g id="Layer0_0_MEMBER_2_FILL">
<path fill="#454E79" stroke="none" d="
M 142.5 265
Q 104.2 265 77.1 292.1 50 319.2 50 357.5 50 395.8 77.1 422.9 104.2 450 142.5 450 180.8 450 207.9 422.9 235 395.8 235 357.5 235 319.2 207.9 292.1 180.8 265 142.5 265 Z"/>
</g>

<g id="Layer0_0_MEMBER_3_FILL">
<path fill="#535B8D" stroke="none" d="
M 142.5 265
Q 104.2 265 77.1 292.1 50 319.2 50 357.5 50 395.8 77.1 422.9 104.2 450 142.5 450 180.8 450 207.9 422.9 235 395.8 235 357.5 235 319.2 207.9 292.1 180.8 265 142.5 265 Z"/>
</g>

<g id="Layer0_0_MEMBER_4_FILL">
<path fill="#9EA7CF" fill-opacity="0.4980392156862745" stroke="none" d="
M 195 280
Q 188.8 280 184.4 284.4 180 288.8 180 295 180 301.2 184.4 305.6 188.8 310 195 310 201.2 310 205.6 305.6 210 301.2 210 295 210 288.8 205.6 284.4 201.2 280 195 280 Z"/>
</g>

<g id="Layer0_0_MEMBER_5_FILL">
<path fill="url(#Gradient_1)" stroke="none" d="
M 922.4 85.7
L 922.4 77.35 889.5 77.35 889.5 85.7 922.4 85.7 Z"/>
</g>

<g id="Layer0_0_MEMBER_6_FILL">
<path fill="#454E79" stroke="none" d="
M 125 165
L 112.45 165 112.45 227.1 125 227.1 125 165 Z"/>
</g>

<g id="Layer0_0_MEMBER_7_FILL">
<path fill="#2F3859" stroke="none" d="
M 167.75 156.9
L 136.9 156.9 136.9 225 167.75 225 167.75 156.9 Z"/>
</g>

<g id="Layer0_0_MEMBER_8_FILL">
<path fill="url(#Gradient_1)" stroke="none" d="
M 922.4 85.7
L 922.4 77.35 889.5 77.35 889.5 85.7 922.4 85.7 Z"/>
</g>

<g id="Layer0_0_MEMBER_9_FILL">
<path fill="#404770" stroke="none" d="
M 221.85 136.5
Q 218.7 133.35 214.2 133.35
L 90.8 133.35
Q 86.3 133.35 83.15 136.5 80 139.65 80 144.15
L 80 144.2
Q 80 148.7 83.15 151.85 86.3 155 90.8 155
L 214.2 155
Q 218.7 155 221.85 151.85 225 148.7 225 144.2
L 225 144.15
Q 225 139.65 221.85 136.5 Z"/>
</g>

<g id="Layer0_0_MEMBER_10_FILL">
<path fill="#6F77B2" stroke="none" d="
M 221.85 136.5
Q 218.7 133.35 214.2 133.35
L 90.8 133.35
Q 86.3 133.35 83.15 136.5 80 139.65 80 144.15
L 80 144.2
Q 80 148.7 83.15 151.85 86.3 155 90.8 155
L 214.2 155
Q 218.7 155 221.85 151.85 225 148.7 225 144.2
L 225 144.15
Q 225 139.65 221.85 136.5 Z"/>
</g>

<g id="Layer0_0_MEMBER_11_MEMBER_0_FILL">
<path fill="#FFFFFF" stroke="none" d="
M 881.05 38.9
Q 882.2 37.8 882.2 36.25 882.2 34.7 881.05 33.55 879.95 32.45 878.4 32.45 876.85 32.45 875.7 33.55 874.6 34.7 874.6 36.25 874.6 37.8 875.7 38.9 876.85 40.05 878.4 40.05 879.95 40.05 881.05 38.9 Z"/>
</g>

<g id="Layer0_0_MEMBER_11_MEMBER_1_FILL">
<path fill="#FFFFFF" stroke="none" d="
M 215.4 137.4
Q 214.65 136.65 213.6 136.65
L 178.95 136.65
Q 177.9 136.65 177.1 137.4 176.35 138.2 176.35 139.25
L 176.35 139.3
Q 176.35 140.35 177.1 141.1 177.9 141.9 178.95 141.9
L 213.6 141.9
Q 214.65 141.9 215.4 141.1 216.2 140.35 216.2 139.3
L 216.2 139.25
Q 216.2 138.2 215.4 137.4 Z"/>
</g>

<g id="Layer0_0_MEMBER_12_FILL">
<path fill="#21273F" stroke="none" d="
M 28.1 156.65
L 28.1 165 61.3 165 61.3 156.65 28.1 156.65 Z"/>
</g>

<g id="Layer0_0_MEMBER_13_FILL">
<path fill="#454E79" stroke="none" d="
M 890.45 78.7
L 890.45 140.8 903 140.8 903 78.7 890.45 78.7 Z"/>
</g>

<g id="Layer0_0_MEMBER_14_FILL">
<path fill="#454E79" stroke="none" d="
M 109.25 228.6
L 109.25 242.45
Q 109.25 250.95 117.75 250.95
L 185.65 250.95
Q 194.15 250.95 194.15 242.45
L 194.15 228.6
Q 194.15 220.1 185.65 220.1
L 117.75 220.1
Q 109.25 220.1 109.25 228.6 Z"/>
</g>

<g id="Layer0_0_MEMBER_15_FILL">
<path fill="#6F77B2" stroke="none" d="
M 109.25 228.6
L 109.25 242.45
Q 109.25 250.95 117.75 250.95
L 185.65 250.95
Q 194.15 250.95 194.15 242.45
L 194.15 228.6
Q 194.15 220.1 185.65 220.1
L 117.75 220.1
Q 109.25 220.1 109.25 228.6 Z"/>
</g>

<g id="Layer0_0_MEMBER_16_FILL">
<path fill="#FFFFFF" stroke="none" d="
M 40.9 47.6
Q 41.95 46.4 41.7 44.7
L 39.65 32.65
Q 39.5 31.8 40.1 31.25
L 48.85 22.7
Q 50.4 21.15 49.75 19.05 49 16.9 46.85 16.6
L 34.75 14.85
Q 33.95 14.7 33.55 14
L 28.15 3.05
Q 27.2 1.05 24.95 1.05 22.7 1.05 21.75 3.05
L 16.35 14
Q 15.9 14.75 15.15 14.85
L 3.05 16.6
Q 0.9 16.9 0.15 19.05 -0.45 21.2 1.05 22.7
L 9.8 31.25
Q 10.4 31.8 10.25 32.65
L 8.2 44.7
Q 7.9 46.35 9 47.6 9.8 48.55 11.05 48.8 12.3 49.05 13.4 48.45
L 24.2 42.75
Q 24.95 42.4 25.7 42.75
L 36.5 48.45
Q 37.25 48.9 38.15 48.9 39.75 48.9 40.9 47.6 Z"/>
</g>

<g id="Layer0_0_MEMBER_17_FILL">
<path fill="#FFFFFF" stroke="none" d="
M 40.9 47.6
Q 41.95 46.4 41.7 44.7
L 39.65 32.65
Q 39.5 31.8 40.1 31.25
L 48.85 22.7
Q 50.4 21.15 49.75 19.05 49 16.9 46.85 16.6
L 34.75 14.85
Q 33.95 14.7 33.55 14
L 28.15 3.05
Q 27.2 1.05 24.95 1.05 22.7 1.05 21.75 3.05
L 16.35 14
Q 15.9 14.75 15.15 14.85
L 3.05 16.6
Q 0.9 16.9 0.15 19.05 -0.45 21.2 1.05 22.7
L 9.8 31.25
Q 10.4 31.8 10.25 32.65
L 8.2 44.7
Q 7.9 46.35 9 47.6 9.8 48.55 11.05 48.8 12.3 49.05 13.4 48.45
L 24.2 42.75
Q 24.95 42.4 25.7 42.75
L 36.5 48.45
Q 37.25 48.9 38.15 48.9 39.75 48.9 40.9 47.6 Z"/>
</g>

<g id="Layer0_0_MEMBER_18_FILL">
<path fill="#FFFFFF" stroke="none" d="
M 40.9 47.6
Q 41.95 46.4 41.7 44.7
L 39.65 32.65
Q 39.5 31.8 40.1 31.25
L 48.85 22.7
Q 50.4 21.15 49.75 19.05 49 16.9 46.85 16.6
L 34.75 14.85
Q 33.95 14.7 33.55 14
L 28.15 3.05
Q 27.2 1.05 24.95 1.05 22.7 1.05 21.75 3.05
L 16.35 14
Q 15.9 14.75 15.15 14.85
L 3.05 16.6
Q 0.9 16.9 0.15 19.05 -0.45 21.2 1.05 22.7
L 9.8 31.25
Q 10.4 31.8 10.25 32.65
L 8.2 44.7
Q 7.9 46.35 9 47.6 9.8 48.55 11.05 48.8 12.3 49.05 13.4 48.45
L 24.2 42.75
Q 24.95 42.4 25.7 42.75
L 36.5 48.45
Q 37.25 48.9 38.15 48.9 39.75 48.9 40.9 47.6 Z"/>
</g>

<g id="Layer0_0_MEMBER_19_FILL">
<path fill="#FFFFFF" stroke="none" d="
M 40.9 47.6
Q 41.95 46.4 41.7 44.7
L 39.65 32.65
Q 39.5 31.8 40.1 31.25
L 48.85 22.7
Q 50.4 21.15 49.75 19.05 49 16.9 46.85 16.6
L 34.75 14.85
Q 33.95 14.7 33.55 14
L 28.15 3.05
Q 27.2 1.05 24.95 1.05 22.7 1.05 21.75 3.05
L 16.35 14
Q 15.9 14.75 15.15 14.85
L 3.05 16.6
Q 0.9 16.9 0.15 19.05 -0.45 21.2 1.05 22.7
L 9.8 31.25
Q 10.4 31.8 10.25 32.65
L 8.2 44.7
Q 7.9 46.35 9 47.6 9.8 48.55 11.05 48.8 12.3 49.05 13.4 48.45
L 24.2 42.75
Q 24.95 42.4 25.7 42.75
L 36.5 48.45
Q 37.25 48.9 38.15 48.9 39.75 48.9 40.9 47.6 Z"/>
</g>

<g id="Layer0_0_MEMBER_20_FILL">
<path fill="#6F77B2" stroke="none" d="
M 40.9 47.6
Q 41.95 46.4 41.7 44.7
L 39.65 32.65
Q 39.5 31.8 40.1 31.25
L 48.85 22.7
Q 50.4 21.15 49.75 19.05 49 16.9 46.85 16.6
L 34.75 14.85
Q 33.95 14.7 33.55 14
L 28.15 3.05
Q 27.2 1.05 24.95 1.05 22.7 1.05 21.75 3.05
L 16.35 14
Q 15.9 14.75 15.15 14.85
L 3.05 16.6
Q 0.9 16.9 0.15 19.05 -0.45 21.2 1.05 22.7
L 9.8 31.25
Q 10.4 31.8 10.25 32.65
L 8.2 44.7
Q 7.9 46.35 9 47.6 9.8 48.55 11.05 48.8 12.3 49.05 13.4 48.45
L 24.2 42.75
Q 24.95 42.4 25.7 42.75
L 36.5 48.45
Q 37.25 48.9 38.15 48.9 39.75 48.9 40.9 47.6 Z"/>
</g>

<g id="Layer0_0_MEMBER_21_FILL">
<path fill="#6F77B2" stroke="none" d="
M 40.9 47.6
Q 41.95 46.4 41.7 44.7
L 39.65 32.65
Q 39.5 31.8 40.1 31.25
L 48.85 22.7
Q 50.4 21.15 49.75 19.05 49 16.9 46.85 16.6
L 34.75 14.85
Q 33.95 14.7 33.55 14
L 28.15 3.05
Q 27.2 1.05 24.95 1.05 22.7 1.05 21.75 3.05
L 16.35 14
Q 15.9 14.75 15.15 14.85
L 3.05 16.6
Q 0.9 16.9 0.15 19.05 -0.45 21.2 1.05 22.7
L 9.8 31.25
Q 10.4 31.8 10.25 32.65
L 8.2 44.7
Q 7.9 46.35 9 47.6 9.8 48.55 11.05 48.8 12.3 49.05 13.4 48.45
L 24.2 42.75
Q 24.95 42.4 25.7 42.75
L 36.5 48.45
Q 37.25 48.9 38.15 48.9 39.75 48.9 40.9 47.6 Z"/>
</g>

<g id="Layer0_0_MEMBER_22_FILL">
<path fill="#6F77B2" stroke="none" d="
M 40.9 47.6
Q 41.95 46.4 41.7 44.7
L 39.65 32.65
Q 39.5 31.8 40.1 31.25
L 48.85 22.7
Q 50.4 21.15 49.75 19.05 49 16.9 46.85 16.6
L 34.75 14.85
Q 33.95 14.7 33.55 14
L 28.15 3.05
Q 27.2 1.05 24.95 1.05 22.7 1.05 21.75 3.05
L 16.35 14
Q 15.9 14.75 15.15 14.85
L 3.05 16.6
Q 0.9 16.9 0.15 19.05 -0.45 21.2 1.05 22.7
L 9.8 31.25
Q 10.4 31.8 10.25 32.65
L 8.2 44.7
Q 7.9 46.35 9 47.6 9.8 48.55 11.05 48.8 12.3 49.05 13.4 48.45
L 24.2 42.75
Q 24.95 42.4 25.7 42.75
L 36.5 48.45
Q 37.25 48.9 38.15 48.9 39.75 48.9 40.9 47.6 Z"/>
</g>

<g id="Layer0_0_MEMBER_23_FILL">
<path fill="#6F77B2" stroke="none" d="
M 40.9 47.6
Q 41.95 46.4 41.7 44.7
L 39.65 32.65
Q 39.5 31.8 40.1 31.25
L 48.85 22.7
Q 50.4 21.15 49.75 19.05 49 16.9 46.85 16.6
L 34.75 14.85
Q 33.95 14.7 33.55 14
L 28.15 3.05
Q 27.2 1.05 24.95 1.05 22.7 1.05 21.75 3.05
L 16.35 14
Q 15.9 14.75 15.15 14.85
L 3.05 16.6
Q 0.9 16.9 0.15 19.05 -0.45 21.2 1.05 22.7
L 9.8 31.25
Q 10.4 31.8 10.25 32.65
L 8.2 44.7
Q 7.9 46.35 9 47.6 9.8 48.55 11.05 48.8 12.3 49.05 13.4 48.45
L 24.2 42.75
Q 24.95 42.4 25.7 42.75
L 36.5 48.45
Q 37.25 48.9 38.15 48.9 39.75 48.9 40.9 47.6 Z"/>
</g>

<g id="Layer0_0_MEMBER_24_FILL">
<path fill="#FFFFFF" stroke="none" d="
M 898.3 125.45
Q 899.2 124.55 899.2 123.35 899.2 122.15 898.3 121.25 897.4 120.4 896.2 120.4 895 120.4 894.1 121.25 893.25 122.15 893.25 123.35 893.25 124.55 894.1 125.45 895 126.35 896.2 126.35 897.4 126.35 898.3 125.45 Z"/>
</g>

<g id="Layer0_1_MEMBER_0_FILL">
<path fill="#2F3859" stroke="none" d="
M 109.25 228.6
L 109.25 242.45
Q 109.25 250.95 117.75 250.95
L 185.65 250.95
Q 194.15 250.95 194.15 242.45
L 194.15 228.6
Q 194.15 220.1 185.65 220.1
L 117.75 220.1
Q 109.25 220.1 109.25 228.6 Z"/>
</g>

<g id="Layer0_1_MEMBER_1_FILL">
<path fill="#454E79" stroke="none" d="
M 121.3 173.95
Q 119.1 171.75 115.95 171.75 112.8 171.75 110.6 173.95 108.4 176.15 108.4 179.3 108.4 182.45 110.6 184.65 112.8 186.85 115.95 186.85 119.1 186.85 121.3 184.65 123.5 182.45 123.5 179.3 123.5 176.15 121.3 173.95 Z"/>
</g>

<g id="Layer0_1_MEMBER_2_FILL">
<path fill="#454E79" stroke="none" d="
M 121.3 173.95
Q 119.1 171.75 115.95 171.75 112.8 171.75 110.6 173.95 108.4 176.15 108.4 179.3 108.4 182.45 110.6 184.65 112.8 186.85 115.95 186.85 119.1 186.85 121.3 184.65 123.5 182.45 123.5 179.3 123.5 176.15 121.3 173.95 Z"/>
</g>

<g id="Layer0_1_MEMBER_3_FILL">
<path fill="#FFFFFF" stroke="none" d="
M 890.45 53.5
L 878.1 53.5 878.1 120.55 890.45 120.55 890.45 53.5
M 847.7 53.65
L 835.35 53.65 835.35 120.7 847.7 120.7 847.7 53.65 Z"/>

<path fill="#535B8D" stroke="none" d="
M 822.8 60.15
Q 822.8 54.7 818.45 54.7
L 806.6 54.7
Q 802.25 54.7 802.25 60.15
L 802.25 110.25
Q 801.65 117.4 805.5 119
L 813.85 122.75
Q 818 124.7 820.3 125.8 822.65 126.85 822.8 126.7
L 822.8 60.15
M 907.15 54.1
Q 902.8 54.1 902.8 59.55
L 902.8 126.1
Q 902.95 126.25 905.3 125.2 907.6 124.1 911.75 122.15
L 920.1 118.4
Q 923.95 116.8 923.35 109.65
L 923.35 59.55
Q 923.35 54.1 919 54.1
L 907.15 54.1 Z"/>
</g>

<g id="Layer0_1_MEMBER_3_MEMBER_0_FILL">
<path fill="#404770" stroke="none" d="
M 142.5 265
Q 104.2 265 77.1 292.1 50 319.2 50 357.5 50 395.8 77.1 422.9 104.2 450 142.5 450 180.8 450 207.9 422.9 235 395.8 235 357.5 235 319.2 207.9 292.1 180.8 265 142.5 265 Z"/>
</g>

<g id="Layer0_1_MEMBER_3_MEMBER_1_FILL">
<path fill="#6F77B2" stroke="none" d="
M 142.5 265
Q 104.2 265 77.1 292.1 50 319.2 50 357.5 50 395.8 77.1 422.9 104.2 450 142.5 450 180.8 450 207.9 422.9 235 395.8 235 357.5 235 319.2 207.9 292.1 180.8 265 142.5 265 Z"/>
</g>

<g id="Layer0_1_MEMBER_3_MEMBER_2_FILL">
<path fill="#454E79" stroke="none" d="
M 142.5 265
Q 104.2 265 77.1 292.1 50 319.2 50 357.5 50 395.8 77.1 422.9 104.2 450 142.5 450 180.8 450 207.9 422.9 235 395.8 235 357.5 235 319.2 207.9 292.1 180.8 265 142.5 265 Z"/>
</g>

<g id="Layer0_1_MEMBER_3_MEMBER_3_FILL">
<path fill="#535B8D" stroke="none" d="
M 142.5 265
Q 104.2 265 77.1 292.1 50 319.2 50 357.5 50 395.8 77.1 422.9 104.2 450 142.5 450 180.8 450 207.9 422.9 235 395.8 235 357.5 235 319.2 207.9 292.1 180.8 265 142.5 265 Z"/>
</g>

<g id="Layer0_1_MEMBER_3_MEMBER_4_FILL">
<path fill="#9EA7CF" fill-opacity="0.4980392156862745" stroke="none" d="
M 195 280
Q 188.8 280 184.4 284.4 180 288.8 180 295 180 301.2 184.4 305.6 188.8 310 195 310 201.2 310 205.6 305.6 210 301.2 210 295 210 288.8 205.6 284.4 201.2 280 195 280 Z"/>
</g>

<g id="Layer0_1_MEMBER_3_MEMBER_5_FILL">
<path fill="url(#Gradient_1)" stroke="none" d="
M 922.4 85.7
L 922.4 77.35 889.5 77.35 889.5 85.7 922.4 85.7 Z"/>
</g>

<g id="Layer0_1_MEMBER_3_MEMBER_6_FILL">
<path fill="#454E79" stroke="none" d="
M 125 165
L 112.45 165 112.45 227.1 125 227.1 125 165 Z"/>
</g>

<g id="Layer0_1_MEMBER_3_MEMBER_7_FILL">
<path fill="#2F3859" stroke="none" d="
M 167.75 156.9
L 136.9 156.9 136.9 225 167.75 225 167.75 156.9 Z"/>
</g>

<g id="Layer0_1_MEMBER_3_MEMBER_8_FILL">
<path fill="url(#Gradient_1)" stroke="none" d="
M 922.4 85.7
L 922.4 77.35 889.5 77.35 889.5 85.7 922.4 85.7 Z"/>
</g>

<g id="Layer0_1_MEMBER_3_MEMBER_9_FILL">
<path fill="#404770" stroke="none" d="
M 221.85 136.5
Q 218.7 133.35 214.2 133.35
L 90.8 133.35
Q 86.3 133.35 83.15 136.5 80 139.65 80 144.15
L 80 144.2
Q 80 148.7 83.15 151.85 86.3 155 90.8 155
L 214.2 155
Q 218.7 155 221.85 151.85 225 148.7 225 144.2
L 225 144.15
Q 225 139.65 221.85 136.5 Z"/>
</g>

<g id="Layer0_1_MEMBER_3_MEMBER_10_FILL">
<path fill="#6F77B2" stroke="none" d="
M 221.85 136.5
Q 218.7 133.35 214.2 133.35
L 90.8 133.35
Q 86.3 133.35 83.15 136.5 80 139.65 80 144.15
L 80 144.2
Q 80 148.7 83.15 151.85 86.3 155 90.8 155
L 214.2 155
Q 218.7 155 221.85 151.85 225 148.7 225 144.2
L 225 144.15
Q 225 139.65 221.85 136.5 Z"/>
</g>

<g id="Layer0_1_MEMBER_3_MEMBER_11_MEMBER_0_FILL">
<path fill="#FFFFFF" stroke="none" d="
M 881.05 38.9
Q 882.2 37.8 882.2 36.25 882.2 34.7 881.05 33.55 879.95 32.45 878.4 32.45 876.85 32.45 875.7 33.55 874.6 34.7 874.6 36.25 874.6 37.8 875.7 38.9 876.85 40.05 878.4 40.05 879.95 40.05 881.05 38.9 Z"/>
</g>

<g id="Layer0_1_MEMBER_3_MEMBER_11_MEMBER_1_FILL">
<path fill="#FFFFFF" stroke="none" d="
M 215.4 137.4
Q 214.65 136.65 213.6 136.65
L 178.95 136.65
Q 177.9 136.65 177.1 137.4 176.35 138.2 176.35 139.25
L 176.35 139.3
Q 176.35 140.35 177.1 141.1 177.9 141.9 178.95 141.9
L 213.6 141.9
Q 214.65 141.9 215.4 141.1 216.2 140.35 216.2 139.3
L 216.2 139.25
Q 216.2 138.2 215.4 137.4 Z"/>
</g>

<g id="Layer0_1_MEMBER_3_MEMBER_12_FILL">
<path fill="#21273F" stroke="none" d="
M 28.1 156.65
L 28.1 165 61.3 165 61.3 156.65 28.1 156.65 Z"/>
</g>

<g id="Layer0_1_MEMBER_3_MEMBER_13_FILL">
<path fill="#454E79" stroke="none" d="
M 890.45 78.7
L 890.45 140.8 903 140.8 903 78.7 890.45 78.7 Z"/>
</g>

<g id="Layer0_1_MEMBER_3_MEMBER_14_FILL">
<path fill="#454E79" stroke="none" d="
M 109.25 228.6
L 109.25 242.45
Q 109.25 250.95 117.75 250.95
L 185.65 250.95
Q 194.15 250.95 194.15 242.45
L 194.15 228.6
Q 194.15 220.1 185.65 220.1
L 117.75 220.1
Q 109.25 220.1 109.25 228.6 Z"/>
</g>

<g id="Layer0_1_MEMBER_3_MEMBER_15_FILL">
<path fill="#6F77B2" stroke="none" d="
M 109.25 228.6
L 109.25 242.45
Q 109.25 250.95 117.75 250.95
L 185.65 250.95
Q 194.15 250.95 194.15 242.45
L 194.15 228.6
Q 194.15 220.1 185.65 220.1
L 117.75 220.1
Q 109.25 220.1 109.25 228.6 Z"/>
</g>

<g id="Layer0_1_MEMBER_3_MEMBER_16_FILL">
<path fill="#FFFFFF" stroke="none" d="
M 40.9 47.6
Q 41.95 46.4 41.7 44.7
L 39.65 32.65
Q 39.5 31.8 40.1 31.25
L 48.85 22.7
Q 50.4 21.15 49.75 19.05 49 16.9 46.85 16.6
L 34.75 14.85
Q 33.95 14.7 33.55 14
L 28.15 3.05
Q 27.2 1.05 24.95 1.05 22.7 1.05 21.75 3.05
L 16.35 14
Q 15.9 14.75 15.15 14.85
L 3.05 16.6
Q 0.9 16.9 0.15 19.05 -0.45 21.2 1.05 22.7
L 9.8 31.25
Q 10.4 31.8 10.25 32.65
L 8.2 44.7
Q 7.9 46.35 9 47.6 9.8 48.55 11.05 48.8 12.3 49.05 13.4 48.45
L 24.2 42.75
Q 24.95 42.4 25.7 42.75
L 36.5 48.45
Q 37.25 48.9 38.15 48.9 39.75 48.9 40.9 47.6 Z"/>
</g>

<g id="Layer0_1_MEMBER_3_MEMBER_17_FILL">
<path fill="#FFFFFF" stroke="none" d="
M 40.9 47.6
Q 41.95 46.4 41.7 44.7
L 39.65 32.65
Q 39.5 31.8 40.1 31.25
L 48.85 22.7
Q 50.4 21.15 49.75 19.05 49 16.9 46.85 16.6
L 34.75 14.85
Q 33.95 14.7 33.55 14
L 28.15 3.05
Q 27.2 1.05 24.95 1.05 22.7 1.05 21.75 3.05
L 16.35 14
Q 15.9 14.75 15.15 14.85
L 3.05 16.6
Q 0.9 16.9 0.15 19.05 -0.45 21.2 1.05 22.7
L 9.8 31.25
Q 10.4 31.8 10.25 32.65
L 8.2 44.7
Q 7.9 46.35 9 47.6 9.8 48.55 11.05 48.8 12.3 49.05 13.4 48.45
L 24.2 42.75
Q 24.95 42.4 25.7 42.75
L 36.5 48.45
Q 37.25 48.9 38.15 48.9 39.75 48.9 40.9 47.6 Z"/>
</g>

<g id="Layer0_1_MEMBER_3_MEMBER_18_FILL">
<path fill="#FFFFFF" stroke="none" d="
M 40.9 47.6
Q 41.95 46.4 41.7 44.7
L 39.65 32.65
Q 39.5 31.8 40.1 31.25
L 48.85 22.7
Q 50.4 21.15 49.75 19.05 49 16.9 46.85 16.6
L 34.75 14.85
Q 33.95 14.7 33.55 14
L 28.15 3.05
Q 27.2 1.05 24.95 1.05 22.7 1.05 21.75 3.05
L 16.35 14
Q 15.9 14.75 15.15 14.85
L 3.05 16.6
Q 0.9 16.9 0.15 19.05 -0.45 21.2 1.05 22.7
L 9.8 31.25
Q 10.4 31.8 10.25 32.65
L 8.2 44.7
Q 7.9 46.35 9 47.6 9.8 48.55 11.05 48.8 12.3 49.05 13.4 48.45
L 24.2 42.75
Q 24.95 42.4 25.7 42.75
L 36.5 48.45
Q 37.25 48.9 38.15 48.9 39.75 48.9 40.9 47.6 Z"/>
</g>

<g id="Layer0_1_MEMBER_3_MEMBER_19_FILL">
<path fill="#FFFFFF" stroke="none" d="
M 40.9 47.6
Q 41.95 46.4 41.7 44.7
L 39.65 32.65
Q 39.5 31.8 40.1 31.25
L 48.85 22.7
Q 50.4 21.15 49.75 19.05 49 16.9 46.85 16.6
L 34.75 14.85
Q 33.95 14.7 33.55 14
L 28.15 3.05
Q 27.2 1.05 24.95 1.05 22.7 1.05 21.75 3.05
L 16.35 14
Q 15.9 14.75 15.15 14.85
L 3.05 16.6
Q 0.9 16.9 0.15 19.05 -0.45 21.2 1.05 22.7
L 9.8 31.25
Q 10.4 31.8 10.25 32.65
L 8.2 44.7
Q 7.9 46.35 9 47.6 9.8 48.55 11.05 48.8 12.3 49.05 13.4 48.45
L 24.2 42.75
Q 24.95 42.4 25.7 42.75
L 36.5 48.45
Q 37.25 48.9 38.15 48.9 39.75 48.9 40.9 47.6 Z"/>
</g>

<g id="Layer0_1_MEMBER_3_MEMBER_20_FILL">
<path fill="#6F77B2" stroke="none" d="
M 40.9 47.6
Q 41.95 46.4 41.7 44.7
L 39.65 32.65
Q 39.5 31.8 40.1 31.25
L 48.85 22.7
Q 50.4 21.15 49.75 19.05 49 16.9 46.85 16.6
L 34.75 14.85
Q 33.95 14.7 33.55 14
L 28.15 3.05
Q 27.2 1.05 24.95 1.05 22.7 1.05 21.75 3.05
L 16.35 14
Q 15.9 14.75 15.15 14.85
L 3.05 16.6
Q 0.9 16.9 0.15 19.05 -0.45 21.2 1.05 22.7
L 9.8 31.25
Q 10.4 31.8 10.25 32.65
L 8.2 44.7
Q 7.9 46.35 9 47.6 9.8 48.55 11.05 48.8 12.3 49.05 13.4 48.45
L 24.2 42.75
Q 24.95 42.4 25.7 42.75
L 36.5 48.45
Q 37.25 48.9 38.15 48.9 39.75 48.9 40.9 47.6 Z"/>
</g>

<g id="Layer0_1_MEMBER_3_MEMBER_21_FILL">
<path fill="#6F77B2" stroke="none" d="
M 40.9 47.6
Q 41.95 46.4 41.7 44.7
L 39.65 32.65
Q 39.5 31.8 40.1 31.25
L 48.85 22.7
Q 50.4 21.15 49.75 19.05 49 16.9 46.85 16.6
L 34.75 14.85
Q 33.95 14.7 33.55 14
L 28.15 3.05
Q 27.2 1.05 24.95 1.05 22.7 1.05 21.75 3.05
L 16.35 14
Q 15.9 14.75 15.15 14.85
L 3.05 16.6
Q 0.9 16.9 0.15 19.05 -0.45 21.2 1.05 22.7
L 9.8 31.25
Q 10.4 31.8 10.25 32.65
L 8.2 44.7
Q 7.9 46.35 9 47.6 9.8 48.55 11.05 48.8 12.3 49.05 13.4 48.45
L 24.2 42.75
Q 24.95 42.4 25.7 42.75
L 36.5 48.45
Q 37.25 48.9 38.15 48.9 39.75 48.9 40.9 47.6 Z"/>
</g>

<g id="Layer0_1_MEMBER_3_MEMBER_22_FILL">
<path fill="#6F77B2" stroke="none" d="
M 40.9 47.6
Q 41.95 46.4 41.7 44.7
L 39.65 32.65
Q 39.5 31.8 40.1 31.25
L 48.85 22.7
Q 50.4 21.15 49.75 19.05 49 16.9 46.85 16.6
L 34.75 14.85
Q 33.95 14.7 33.55 14
L 28.15 3.05
Q 27.2 1.05 24.95 1.05 22.7 1.05 21.75 3.05
L 16.35 14
Q 15.9 14.75 15.15 14.85
L 3.05 16.6
Q 0.9 16.9 0.15 19.05 -0.45 21.2 1.05 22.7
L 9.8 31.25
Q 10.4 31.8 10.25 32.65
L 8.2 44.7
Q 7.9 46.35 9 47.6 9.8 48.55 11.05 48.8 12.3 49.05 13.4 48.45
L 24.2 42.75
Q 24.95 42.4 25.7 42.75
L 36.5 48.45
Q 37.25 48.9 38.15 48.9 39.75 48.9 40.9 47.6 Z"/>
</g>

<g id="Layer0_1_MEMBER_3_MEMBER_23_FILL">
<path fill="#6F77B2" stroke="none" d="
M 40.9 47.6
Q 41.95 46.4 41.7 44.7
L 39.65 32.65
Q 39.5 31.8 40.1 31.25
L 48.85 22.7
Q 50.4 21.15 49.75 19.05 49 16.9 46.85 16.6
L 34.75 14.85
Q 33.95 14.7 33.55 14
L 28.15 3.05
Q 27.2 1.05 24.95 1.05 22.7 1.05 21.75 3.05
L 16.35 14
Q 15.9 14.75 15.15 14.85
L 3.05 16.6
Q 0.9 16.9 0.15 19.05 -0.45 21.2 1.05 22.7
L 9.8 31.25
Q 10.4 31.8 10.25 32.65
L 8.2 44.7
Q 7.9 46.35 9 47.6 9.8 48.55 11.05 48.8 12.3 49.05 13.4 48.45
L 24.2 42.75
Q 24.95 42.4 25.7 42.75
L 36.5 48.45
Q 37.25 48.9 38.15 48.9 39.75 48.9 40.9 47.6 Z"/>
</g>

<g id="Layer0_1_MEMBER_3_MEMBER_24_FILL">
<path fill="#FFFFFF" stroke="none" d="
M 898.3 125.45
Q 899.2 124.55 899.2 123.35 899.2 122.15 898.3 121.25 897.4 120.4 896.2 120.4 895 120.4 894.1 121.25 893.25 122.15 893.25 123.35 893.25 124.55 894.1 125.45 895 126.35 896.2 126.35 897.4 126.35 898.3 125.45 Z"/>
</g>

<g id="Layer0_1_MEMBER_4_FILL">
<path fill="#6F77B2" stroke="none" d="
M 121.3 173.95
Q 119.1 171.75 115.95 171.75 112.8 171.75 110.6 173.95 108.4 176.15 108.4 179.3 108.4 182.45 110.6 184.65 112.8 186.85 115.95 186.85 119.1 186.85 121.3 184.65 123.5 182.45 123.5 179.3 123.5 176.15 121.3 173.95 Z"/>
</g>

<g id="Layer0_1_MEMBER_5_FILL">
<path fill="#6F77B2" stroke="none" d="
M 121.3 173.95
Q 119.1 171.75 115.95 171.75 112.8 171.75 110.6 173.95 108.4 176.15 108.4 179.3 108.4 182.45 110.6 184.65 112.8 186.85 115.95 186.85 119.1 186.85 121.3 184.65 123.5 182.45 123.5 179.3 123.5 176.15 121.3 173.95 Z"/>
</g>

<g id="Layer0_1_MEMBER_6_FILL">
<path fill="#6F77B2" stroke="none" d="
M 121.3 173.95
Q 119.1 171.75 115.95 171.75 112.8 171.75 110.6 173.95 108.4 176.15 108.4 179.3 108.4 182.45 110.6 184.65 112.8 186.85 115.95 186.85 119.1 186.85 121.3 184.65 123.5 182.45 123.5 179.3 123.5 176.15 121.3 173.95 Z"/>
</g>

<g id="Layer0_1_MEMBER_7_FILL">
<path fill="#6F77B2" stroke="none" d="
M 121.3 173.95
Q 119.1 171.75 115.95 171.75 112.8 171.75 110.6 173.95 108.4 176.15 108.4 179.3 108.4 182.45 110.6 184.65 112.8 186.85 115.95 186.85 119.1 186.85 121.3 184.65 123.5 182.45 123.5 179.3 123.5 176.15 121.3 173.95 Z"/>
</g>

<g id="Layer0_1_MEMBER_8_FILL">
<path fill="#2F3859" stroke="none" d="
M 121.3 173.95
Q 119.1 171.75 115.95 171.75 112.8 171.75 110.6 173.95 108.4 176.15 108.4 179.3 108.4 182.45 110.6 184.65 112.8 186.85 115.95 186.85 119.1 186.85 121.3 184.65 123.5 182.45 123.5 179.3 123.5 176.15 121.3 173.95 Z"/>
</g>

<g id="Layer0_1_MEMBER_9_FILL">
<path fill="#2F3859" stroke="none" d="
M 121.3 173.95
Q 119.1 171.75 115.95 171.75 112.8 171.75 110.6 173.95 108.4 176.15 108.4 179.3 108.4 182.45 110.6 184.65 112.8 186.85 115.95 186.85 119.1 186.85 121.3 184.65 123.5 182.45 123.5 179.3 123.5 176.15 121.3 173.95 Z"/>
</g>

<g id="Layer0_1_MEMBER_10_FILL">
<path fill="#2F3859" stroke="none" d="
M 904.5 277
Q 908.15 272.85 909.2 271.45 910.8 269.2 910.8 267.6 910.8 265.95 909.25 263.75 908.15 262.25 904.5 258.2
L 891.9 242.45
Q 889.65 239.55 889 238.85 887.85 237.5 887.1 237 886.3 236.45 885.25 236.3 884.5 236.2 882.5 236.2
L 838.55 236.2
Q 836.5 236.2 835.8 236.3 834.75 236.45 833.95 237 833.15 237.5 832 238.85 831.4 239.55 829.1 242.45
L 816.55 258.2
Q 812.9 262.25 811.8 263.75 810.25 265.95 810.25 267.6 810.25 269.2 811.85 271.45 812.85 272.85 816.55 277
L 851.1 311.55
Q 851.6 312.1 853.2 313.85 854.35 315.2 855.15 315.9 857.45 317.85 860.5 317.85 863.6 317.85 865.85 315.9 866.65 315.2 867.85 313.85 869.45 312.05 869.95 311.55
L 904.5 277 Z"/>
</g>

<g id="Layer0_1_MEMBER_11_FILL">
<path fill="#454E79" stroke="none" d="
M 378.15 236.4
L 377.75 236.4 126.1 236.4 234.4 453.05
Q 242.95 456.95 252.15 456.95 262.5 456.95 269.45 453.4
L 378.15 236.4
M 395.05 60.65
Q 389.35 53.95 385.45 51.3 381.45 48.6 376.1 47.85 372.5 47.35 362.4 47.35
L 141.85 47.35
Q 131.75 47.35 128.15 47.85 122.8 48.6 118.8 51.3 114.85 53.95 109.2 60.65 106.05 64.3 94.6 78.85
L 31.6 157.65
Q 13.45 177.75 7.85 185.7 0.05 196.7 0.05 204.9 31.8 212.6 62.95 220.2 125.15 235.45 126.1 236.4
L 251.95 47.65 377.75 236.4
Q 378.75 235.45 441.4 220.05 472.7 212.4 503.8 204.9
L 503.8 200.55
Q 502.2 193.3 494.3 182.95 489.25 176.35 472.7 157.65
L 409.65 78.85
Q 398.2 64.3 395.05 60.65 Z"/>
</g>

<g id="Layer0_1_MEMBER_12_FILL">
<path fill="#7880AE" stroke="none" d="
M 252.15 47.35
L 126.1 236.4 378.15 236.4 252.15 47.35 Z"/>
</g>

<g id="Layer0_1_MEMBER_13_FILL">
<path fill="#6F77B2" stroke="none" d="
M 141.85 47.35
Q 128.65 47.35 124.35 48.75 118.5 50.6 111.55 58.4
L 126.1 236.4 252.15 47.35 141.85 47.35
M 380.1 48.7
Q 375.7 47.35 362.4 47.35
L 252.15 47.35 378.15 236.4 392.75 58
Q 386.1 50.5 380.1 48.7 Z"/>
</g>

<path id="Layer0_0_1_STROKES" stroke="#0066FF" stroke-opacity="0" stroke-width="0.1" stroke-linejoin="round" stroke-linecap="round" fill="none" d="
M 902.8 126.1
L 902.8 59.55
Q 902.8 54.1 907.15 54.1
L 919 54.1
Q 923.35 54.1 923.35 59.55
L 923.35 109.65
Q 923.95 116.8 920.1 118.4
L 911.75 122.15
Q 907.6 124.1 905.3 125.2 902.95 126.25 902.8 126.1 Z"/>

<path id="Layer0_0_2_STROKES" stroke="#0066FF" stroke-width="0.1" stroke-linejoin="round" stroke-linecap="round" fill="none" d="
M 903.05 126.7
Q 899.95 126.7 903.05 126.1
L 903.05 126.7 Z"/>

<path id="Layer0_0_MEMBER_0_1_STROKES" stroke="#0066FF" stroke-opacity="0" stroke-width="0.1" stroke-linejoin="round" stroke-linecap="round" fill="none" d="
M 951.5985137939454 253.70731353759766
Q 951.5985137939454 290.93141174316406 925.2597915649415 317.27013397216797 898.9210693359375 343.6088562011719 861.6969711303711 343.6088562011719 824.4728729248047 343.6088562011719 798.1341506958008 317.27013397216797 771.7954284667969 290.93141174316406 771.7954284667969 253.70731353759766 771.7954284667969 216.48321533203125 798.1341506958008 190.14449310302734 824.4728729248047 163.80577087402344 861.6969711303711 163.80577087402344 898.9210693359375 163.80577087402344 925.2597915649415 190.14449310302734 951.5985137939454 216.48321533203125 951.5985137939454 253.70731353759766 Z"/>

<path id="Layer0_0_MEMBER_1_1_STROKES" stroke="#0066FF" stroke-opacity="0" stroke-width="0.1" stroke-linejoin="round" stroke-linecap="round" fill="none" d="
M 951.5985137939454 251.57657165527343
Q 951.5985137939454 287.8813903808594 925.2597915649415 313.56965637207026 898.9210693359375 339.25792236328124 861.6969711303711 339.25792236328124 824.4728729248047 339.25792236328124 798.1341506958008 313.56965637207026 771.7954284667969 287.8813903808594 771.7954284667969 251.57657165527343 771.7954284667969 215.27175292968747 798.1341506958008 189.5834869384766 824.4728729248047 163.8952209472656 861.6969711303711 163.8952209472656 898.9210693359375 163.8952209472656 925.2597915649415 189.5834869384766 951.5985137939454 215.27175292968747 951.5985137939454 251.57657165527343 Z"/>

<path id="Layer0_0_MEMBER_2_1_STROKES" stroke="#0066FF" stroke-opacity="0" stroke-width="0.1" stroke-linejoin="round" stroke-linecap="round" fill="none" d="
M 938.493862915039 253.69385528564453
Q 938.493862915039 285.5063018798828 915.9842727661132 308.0158920288086 893.4746826171875 330.5254821777344 861.6622360229492 330.5254821777344 829.8497894287109 330.5254821777344 807.3401992797851 308.0158920288086 784.8306091308593 285.5063018798828 784.8306091308593 253.69385528564453 784.8306091308593 221.88140869140625 807.3401992797851 199.3718185424805 829.8497894287109 176.8622283935547 861.6622360229492 176.8622283935547 893.4746826171875 176.8622283935547 915.9842727661132 199.3718185424805 938.493862915039 221.88140869140625 938.493862915039 253.69385528564453 Z"/>

<path id="Layer0_0_MEMBER_3_1_STROKES" stroke="#0066FF" stroke-opacity="0" stroke-width="0.1" stroke-linejoin="round" stroke-linecap="round" fill="none" d="
M 938.493862915039 258.9512176513672
Q 938.493862915039 288.6217956542969 915.9842727661132 309.61585998535156 893.4746826171875 330.60992431640625 861.6622360229492 330.60992431640625 829.8497894287109 330.60992431640625 807.3401992797851 309.61585998535156 784.8306091308593 288.6217956542969 784.8306091308593 258.9512176513672 784.8306091308593 229.2806396484375 807.3401992797851 208.28657531738284 829.8497894287109 187.29251098632812 861.6622360229492 187.29251098632812 893.4746826171875 187.29251098632812 915.9842727661132 208.28657531738284 938.493862915039 229.2806396484375 938.493862915039 258.9512176513672 Z"/>

<path id="Layer0_0_MEMBER_4_1_STROKES" stroke="#0066FF" stroke-opacity="0.00784313725490196" stroke-width="0.1" stroke-linejoin="round" stroke-linecap="round" fill="none" d="
M 915.9948059082031 193.76651306152343
Q 915.9948059082031 199.12197875976562 912.1941528320312 202.92263183593752 908.3934997558594 206.72328491210936 903.0380340576172 206.72328491210936 897.6825683593751 206.72328491210936 893.8819152832032 202.92263183593752 890.0812622070313 199.12197875976562 890.0812622070313 193.76651306152343 890.0812622070313 188.41104736328128 893.8819152832032 184.6103942871094 897.6825683593751 180.8097412109375 903.0380340576172 180.8097412109375 908.3934997558594 180.8097412109375 912.1941528320312 184.6103942871094 915.9948059082031 188.41104736328128 915.9948059082031 193.76651306152343 Z"/>

<path id="Layer0_0_MEMBER_5_1_STROKES" stroke="#0066FF" stroke-opacity="0" stroke-width="0.1" stroke-linejoin="round" stroke-linecap="round" fill="none" d="
M 835.4682907104493 53.8
L 802.1732055664064 53.8 802.1732055664064 62.150000000000006 835.4682907104493 62.150000000000006 835.4682907104493 53.8 Z"/>

<path id="Layer0_0_MEMBER_6_1_STROKES" stroke="#0066FF" stroke-opacity="0.00784313725490196" stroke-width="0.1" stroke-linejoin="round" stroke-linecap="round" fill="none" d="
M 112.45 165
L 125 165 125 227.1 112.45 227.1 112.45 165 Z"/>

<path id="Layer0_0_MEMBER_7_1_STROKES" stroke="#0066FF" stroke-opacity="0" stroke-width="0.1" stroke-linejoin="round" stroke-linecap="round" fill="none" d="
M 136.9 156.9
L 167.75 156.9 167.75 225 136.9 225 136.9 156.9 Z"/>

<path id="Layer0_0_MEMBER_8_1_STROKES" stroke="#0066FF" stroke-opacity="0" stroke-width="0.1" stroke-linejoin="round" stroke-linecap="round" fill="none" d="
M 889.5 77.35
L 922.4 77.35 922.4 85.7 889.5 85.7 889.5 77.35 Z"/>

<path id="Layer0_0_MEMBER_9_1_STROKES" stroke="#0066FF" stroke-opacity="0" stroke-width="0.1" stroke-linejoin="round" stroke-linecap="round" fill="none" d="
M 90.8 133.35
L 214.2 133.35
Q 218.7 133.35 221.85 136.5 225 139.65 225 144.15
L 225 144.2
Q 225 148.7 221.85 151.85 218.7 155 214.2 155
L 90.8 155
Q 86.3 155 83.15 151.85 80 148.7 80 144.2
L 80 144.15
Q 80 139.65 83.15 136.5 86.3 133.35 90.8 133.35 Z"/>

<path id="Layer0_0_MEMBER_10_1_STROKES" stroke="#0066FF" stroke-opacity="0" stroke-width="0.1" stroke-linejoin="round" stroke-linecap="round" fill="none" d="
M 90.8 133.35
L 214.2 133.35
Q 218.7 133.35 221.85 136.5 225 139.65 225 144.15
L 225 144.2
Q 225 148.7 221.85 151.85 218.7 155 214.2 155
L 90.8 155
Q 86.3 155 83.15 151.85 80 148.7 80 144.2
L 80 144.15
Q 80 139.65 83.15 136.5 86.3 133.35 90.8 133.35 Z"/>

<path id="Layer0_0_MEMBER_11_MEMBER_0_1_STROKES" stroke="#0066FF" stroke-opacity="0" stroke-width="0.1" stroke-linejoin="round" stroke-linecap="round" fill="none" d="
M 882.2 36.25
Q 882.2 37.8 881.05 38.9 879.95 40.05 878.4 40.05 876.85 40.05 875.7 38.9 874.6 37.8 874.6 36.25 874.6 34.7 875.7 33.55 876.85 32.45 878.4 32.45 879.95 32.45 881.05 33.55 882.2 34.7 882.2 36.25 Z"/>

<path id="Layer0_0_MEMBER_11_MEMBER_1_1_STROKES" stroke="#0066FF" stroke-opacity="0" stroke-width="0.1" stroke-linejoin="round" stroke-linecap="round" fill="none" d="
M 178.95 136.65
L 213.6 136.65
Q 214.65 136.65 215.4 137.4 216.2 138.2 216.2 139.25
L 216.2 139.3
Q 216.2 140.35 215.4 141.1 214.65 141.9 213.6 141.9
L 178.95 141.9
Q 177.9 141.9 177.1 141.1 176.35 140.35 176.35 139.3
L 176.35 139.25
Q 176.35 138.2 177.1 137.4 177.9 136.65 178.95 136.65 Z"/>

<path id="Layer0_0_MEMBER_12_1_STROKES" stroke="#0066FF" stroke-opacity="0" stroke-width="0.1" stroke-linejoin="round" stroke-linecap="round" fill="none" d="
M 878.228091430664 54.10000000000001
L 847.4242706298828 54.10000000000001 847.4242706298828 62.45 878.228091430664 62.45 878.228091430664 54.10000000000001 Z"/>

<path id="Layer0_0_MEMBER_13_1_STROKES" stroke="#0066FF" stroke-opacity="0" stroke-width="0.1" stroke-linejoin="round" stroke-linecap="round" fill="none" d="
M 890.45 78.7
L 903 78.7 903 140.8 890.45 140.8 890.45 78.7 Z"/>

<path id="Layer0_0_MEMBER_14_1_STROKES" stroke="#FFFFFF" stroke-opacity="0" stroke-width="1" stroke-linejoin="round" stroke-linecap="round" fill="none" d="
M 828.883927154541 122.60110473632811
L 896.1115165710448 122.60110473632811
Q 904.5273414611815 122.60110473632811 904.5273414611815 130.90032958984375
L 904.5273414611815 144.42318420410157
Q 904.5273414611815 152.7224090576172 896.1115165710448 152.7224090576172
L 828.883927154541 152.7224090576172
Q 820.4681022644043 152.7224090576172 820.4681022644043 144.42318420410157
L 820.4681022644043 130.90032958984375
Q 820.4681022644043 122.60110473632811 828.883927154541 122.60110473632811 Z"/>

<path id="Layer0_0_MEMBER_15_1_STROKES" stroke="#0066FF" stroke-opacity="0" stroke-width="1" stroke-linejoin="round" stroke-linecap="round" fill="none" d="
M 828.883927154541 118.0011047363281
L 896.1115165710448 118.0011047363281
Q 904.5273414611815 118.0011047363281 904.5273414611815 126.30032958984373
L 904.5273414611815 139.82318420410155
Q 904.5273414611815 148.12240905761718 896.1115165710448 148.12240905761718
L 828.883927154541 148.12240905761718
Q 820.4681022644043 148.12240905761718 820.4681022644043 139.82318420410155
L 820.4681022644043 126.30032958984373
Q 820.4681022644043 118.0011047363281 828.883927154541 118.0011047363281 Z"/>

<path id="Layer0_0_MEMBER_20_1_STROKES" stroke="#0066FF" stroke-opacity="0" stroke-width="0.1" stroke-linejoin="round" stroke-linecap="round" fill="none" d="
M 800.4005729675293 360.47915267944336
Q 802.3335792541504 360.33857040405275 803.1130172729493 358.5580505371094 803.854475402832 356.68626556396487 802.5898017883301 355.2424629211426
L 795.5079696655274 347.0756530761719
Q 795.0595802307129 346.5127571105957 795.1967613220215 345.8132469177246
L 797.9160079956055 335.36651000976565
Q 798.43695602417 333.47941970825195 796.9319320678711 332.178466796875 795.4269081115723 330.87751388549805 793.6350509643555 331.66602172851566
L 783.6916893005372 335.86818466186526
Q 782.9570335388183 336.10966873168945 782.3975387573242 335.74290771484374
L 773.2920021057129 329.9172462463379
Q 771.6804077148438 328.8747833251953 769.9356002807617 329.8792663574219 768.2911277770996 330.97047958374026 768.4271751403809 332.84113082885744
L 769.3364250183106 343.61948318481444
Q 769.4197540283203 344.3342987060547 768.8279479980469 344.8161331176758
L 760.4893783569336 351.6910598754883
Q 759.334676361084 352.6212837219238 759.3477142333985 354.0934295654297 759.3335426330567 355.1914451599121 760.0251167297364 356.08142166137696 760.7166908264161 356.9713981628418 761.7994010925294 357.206079864502
L 772.319263458252 359.63792648315433
Q 773.0233085632325 359.8374626159668 773.3226127624512 360.5052284240723
L 777.2509803771973 370.56252975463866
Q 777.4924644470215 371.29718551635744 778.0944740295411 371.8175666809082 779.1647132873535 372.7426887512207 780.6856094360352 372.53805084228514 782.081795501709 372.3424827575684 782.8975128173828 371.06080322265626
L 788.4935943603516 361.815251159668
Q 788.8847305297852 361.1599563598633 789.6040809631348 361.13898239135744
L 800.4005729675293 360.47915267944336 Z"/>

<path id="Layer0_0_MEMBER_21_1_STROKES" stroke="#0066FF" stroke-opacity="0" stroke-width="0.1" stroke-linejoin="round" stroke-linecap="round" fill="none" d="
M 851.3983238220214 375.03939590454104
Q 853.0613761901856 374.0442039489746 852.9564239501952 372.10342254638675 852.7764938354492 370.09822235107424 850.9975044250488 369.37777938842777
L 840.9987945556641 365.27034759521484
Q 840.3451118469238 364.9693717956543 840.1529197692871 364.2829475402832
L 837.8814849853516 353.72997283935547
Q 837.4977394104004 351.81030960083007 835.5683685302735 351.32557220458983 833.6389976501465 350.8408348083496 832.3934967041015 352.3511642456055
L 825.4039512634278 360.57739944458007
Q 824.8564979553222 361.12357559204105 824.1918304443359 361.0477462768555
L 813.4390846252442 359.94155807495116
Q 811.5308319091797 359.73561401367186 810.4245147705078 361.4176559448242 809.4468223571777 363.1320137023926 810.4099113464355 364.74141921997074
L 816.0710182189941 373.9581184387207
Q 816.4670257568359 374.5590057373047 816.1552780151367 375.2555633544922
L 811.8013687133789 385.14676666259766
Q 811.1886451721191 386.4970069885254 811.8625946044922 387.8058624267578 812.3439262390136 388.79283676147463 813.3619392395019 389.27650985717776 814.3799522399902 389.7601829528809 815.4524635314941 389.48266677856446
L 825.9414451599121 386.9216667175293
Q 826.6599723815917 386.7831214904785 827.22769241333 387.2448249816895
L 835.2606712341309 394.4593040466309
Q 835.8068473815918 395.00675735473635 836.5785957336426 395.2006523132324 837.950592803955 395.54535446166994 839.2167861938476 394.6783615112305 840.3756858825683 393.8755744934082 840.5275573730469 392.3639678955078
L 841.3657241821289 381.58946533203124
Q 841.4202224731445 380.82827606201175 842.0532127380371 380.48591537475585
L 851.3983238220214 375.03939590454104 Z"/>

<path id="Layer0_0_MEMBER_22_1_STROKES" stroke="#0066FF" stroke-opacity="0" stroke-width="0.1" stroke-linejoin="round" stroke-linecap="round" fill="none" d="
M 924.1994270324707 360.47915267944336
Q 922.2664207458496 360.33857040405275 921.4869827270508 358.5580505371094 920.745524597168 356.68626556396487 922.01019821167 355.2424629211426
L 929.0920303344726 347.0756530761719
Q 929.5404197692872 346.5127571105957 929.4032386779785 345.8132469177246
L 926.6839920043946 335.36651000976565
Q 926.1630439758301 333.47941970825195 927.6680679321289 332.178466796875 929.1730918884277 330.87751388549805 930.9649490356445 331.66602172851566
L 940.9083106994628 335.86818466186526
Q 941.6429664611817 336.10966873168945 942.2024612426758 335.74290771484374
L 951.3079978942872 329.9172462463379
Q 952.9195922851562 328.8747833251953 954.6643997192383 329.8792663574219 956.3088722229004 330.97047958374026 956.1728248596191 332.84113082885744
L 955.2635749816894 343.61948318481444
Q 955.1802459716797 344.3342987060547 955.7720520019532 344.8161331176758
L 964.1106216430665 351.6910598754883
Q 965.265323638916 352.6212837219238 965.2522857666015 354.0934295654297 965.2664573669433 355.1914451599121 964.5748832702636 356.08142166137696 963.8833091735839 356.9713981628418 962.8005989074707 357.206079864502
L 952.2807365417481 359.63792648315433
Q 951.5766914367675 359.8374626159668 951.2773872375489 360.5052284240723
L 947.3490196228028 370.56252975463866
Q 947.1075355529786 371.29718551635744 946.505525970459 371.8175666809082 945.4352867126465 372.7426887512207 943.9143905639648 372.53805084228514 942.518204498291 372.3424827575684 941.7024871826172 371.06080322265626
L 936.1064056396484 361.815251159668
Q 935.7152694702148 361.1599563598633 934.9959190368652 361.13898239135744
L 924.1994270324707 360.47915267944336 Z"/>

<path id="Layer0_0_MEMBER_23_1_STROKES" stroke="#0066FF" stroke-opacity="0" stroke-width="0.1" stroke-linejoin="round" stroke-linecap="round" fill="none" d="
M 873.2016761779786 375.03939590454104
Q 871.5386238098145 374.0442039489746 871.6435760498048 372.10342254638675 871.8235061645508 370.09822235107424 873.6024955749513 369.37777938842777
L 883.601205444336 365.27034759521484
Q 884.2548881530762 364.9693717956543 884.4470802307129 364.2829475402832
L 886.7185150146485 353.72997283935547
Q 887.1022605895996 351.81030960083007 889.0316314697266 351.32557220458983 890.9610023498535 350.8408348083496 892.2065032958985 352.3511642456055
L 899.1960487365723 360.57739944458007
Q 899.7435020446778 361.12357559204105 900.4081695556641 361.0477462768555
L 911.1609153747559 359.94155807495116
Q 913.0691680908203 359.73561401367186 914.1754852294922 361.4176559448242 915.1531776428224 363.1320137023926 914.1900886535645 364.74141921997074
L 908.5289817810059 373.9581184387207
Q 908.1329742431641 374.5590057373047 908.4447219848633 375.2555633544922
L 912.7986312866211 385.14676666259766
Q 913.4113548278809 386.4970069885254 912.7374053955078 387.8058624267578 912.2560737609864 388.79283676147463 911.2380607604981 389.27650985717776 910.2200477600098 389.7601829528809 909.1475364685059 389.48266677856446
L 898.658554840088 386.9216667175293
Q 897.9400276184083 386.7831214904785 897.37230758667 387.2448249816895
L 889.3393287658691 394.4593040466309
Q 888.7931526184083 395.00675735473635 888.0214042663574 395.2006523132324 886.649407196045 395.54535446166994 885.3832138061524 394.6783615112305 884.2243141174317 393.8755744934082 884.0724426269531 392.3639678955078
L 883.2342758178711 381.58946533203124
Q 883.1797775268556 380.82827606201175 882.5467872619629 380.48591537475585
L 873.2016761779786 375.03939590454104 Z"/>

<path id="Layer0_0_MEMBER_24_1_STROKES" stroke="#0066FF" stroke-opacity="0" stroke-width="0.1" stroke-linejoin="round" stroke-linecap="round" fill="none" d="
M 899.2 123.35
Q 899.2 124.55 898.3 125.45 897.4 126.35 896.2 126.35 895 126.35 894.1 125.45 893.25 124.55 893.25 123.35 893.25 122.15 894.1 121.25 895 120.4 896.2 120.4 897.4 120.4 898.3 121.25 899.2 122.15 899.2 123.35 Z"/>

<path id="Layer0_1_MEMBER_0_1_STROKES" stroke="#FFFFFF" stroke-opacity="0" stroke-width="1" stroke-linejoin="round" stroke-linecap="round" fill="none" d="
M 89.07100677490234 70.16490173339844
L 110.88031768798828 70.16490173339844
Q 113.6104965209961 70.16490173339844 113.6104965209961 72.85720825195312
L 113.6104965209961 77.24408416748047
Q 113.6104965209961 79.93639068603515 110.88031768798828 79.93639068603515
L 89.07100677490234 79.93639068603515
Q 86.34082794189453 79.93639068603515 86.34082794189453 77.24408416748047
L 86.34082794189453 72.85720825195312
Q 86.34082794189453 70.16490173339844 89.07100677490234 70.16490173339844 Z"/>

<path id="Layer0_1_MEMBER_1_1_STROKES" stroke="#0066FF" stroke-opacity="0" stroke-width="0.1" stroke-linejoin="round" stroke-linecap="round" fill="none" d="
M 91.09922332763672 73.71057281494141
Q 91.09922332763672 75.72935867309569 89.68927764892578 77.13930435180664 88.27933197021484 78.54925003051757 86.26054611206055 78.54925003051757 84.24176025390625 78.54925003051757 82.83181457519531 77.13930435180664 81.42186889648438 75.72935867309569 81.42186889648438 73.71057281494141 81.42186889648438 71.69178695678711 82.83181457519531 70.28184127807616 84.24176025390625 68.87189559936523 86.26054611206055 68.87189559936523 88.27933197021484 68.87189559936523 89.68927764892578 70.28184127807616 91.09922332763672 71.69178695678711 91.09922332763672 73.71057281494141 Z"/>

<path id="Layer0_1_MEMBER_2_1_STROKES" stroke="#0066FF" stroke-opacity="0" stroke-width="0.1" stroke-linejoin="round" stroke-linecap="round" fill="none" d="
M 118.54922332763672 73.71057281494141
Q 118.54922332763672 75.72935867309569 117.13927764892577 77.13930435180664 115.72933197021484 78.54925003051757 113.71054611206054 78.54925003051757 111.69176025390624 78.54925003051757 110.28181457519531 77.13930435180664 108.87186889648439 75.72935867309569 108.87186889648439 73.71057281494141 108.87186889648439 71.69178695678711 110.28181457519531 70.28184127807616 111.69176025390624 68.87189559936523 113.71054611206054 68.87189559936523 115.72933197021484 68.87189559936523 117.13927764892577 70.28184127807616 118.54922332763672 71.69178695678711 118.54922332763672 73.71057281494141 Z"/>

<path id="Layer0_1_MEMBER_3_1_STROKES" stroke="#0066FF" stroke-opacity="0" stroke-width="0.1" stroke-linejoin="round" stroke-linecap="round" fill="none" d="
M 119.84735717773435 57.63191375732421
L 119.84735717773435 25.105316925048825
Q 119.84735717773435 22.44160614013672 121.97343826293945 22.44160614013672
L 127.76517639160159 22.44160614013672
Q 129.8912574768067 22.44160614013672 129.8912574768067 25.105316925048825
L 129.8912574768067 49.5919059753418
Q 130.18451004028327 53.0864990234375 128.30280609130864 53.868505859375006
L 124.22170791625979 55.70133438110352
Q 122.19337768554692 56.65440521240234 121.0692428588867 57.19203491210938 119.92067031860358 57.70522689819336 119.84735717773435 57.63191375732421 Z"/>

<path id="Layer0_1_MEMBER_3_2_STROKES" stroke="#0066FF" stroke-width="0.1" stroke-linejoin="round" stroke-linecap="round" fill="none" d="
M 119.96954574584959 57.63191375732421
Q 118.45440750122077 57.925166320800784 119.96954574584959 57.925166320800784
L 119.96954574584959 57.63191375732421 Z"/>

<path id="Layer0_1_MEMBER_3_MEMBER_0_1_STROKES" stroke="#0066FF" stroke-opacity="0" stroke-width="0.1" stroke-linejoin="round" stroke-linecap="round" fill="none" d="
M 143.63002014160156 119.97013702392579
Q 143.63002014160156 138.16345520019533 130.75694122314454 151.03653411865233 117.88386230468751 163.90961303710938 99.69054412841797 163.90961303710938 81.49722595214844 163.90961303710938 68.6241470336914 151.03653411865233 55.751068115234375 138.16345520019533 55.751068115234375 119.97013702392579 55.751068115234375 101.77681884765624 68.6241470336914 88.90373992919925 81.49722595214844 76.0306610107422 99.69054412841797 76.0306610107422 117.88386230468751 76.0306610107422 130.75694122314454 88.90373992919925 143.63002014160156 101.77681884765624 143.63002014160156 119.97013702392579 Z"/>

<path id="Layer0_1_MEMBER_3_MEMBER_1_1_STROKES" stroke="#0066FF" stroke-opacity="0" stroke-width="0.1" stroke-linejoin="round" stroke-linecap="round" fill="none" d="
M 143.63002014160156 118.97522888183593
Q 143.63002014160156 136.71913452148436 130.75694122314454 149.2742218017578 117.88386230468751 161.82930908203124 99.69054412841797 161.82930908203124 81.49722595214844 161.82930908203124 68.6241470336914 149.2742218017578 55.751068115234375 136.71913452148436 55.751068115234375 118.97522888183593 55.751068115234375 101.2313232421875 68.6241470336914 88.67623596191407 81.49722595214844 76.12114868164062 99.69054412841797 76.12114868164062 117.88386230468751 76.12114868164062 130.75694122314454 88.67623596191407 143.63002014160156 101.2313232421875 143.63002014160156 118.97522888183593 Z"/>

<path id="Layer0_1_MEMBER_3_MEMBER_2_1_STROKES" stroke="#0066FF" stroke-opacity="0" stroke-width="0.1" stroke-linejoin="round" stroke-linecap="round" fill="none" d="
M 137.25061950683593 119.98072967529296
Q 137.25061950683593 135.52900085449218 126.24910125732421 146.5305191040039 115.2475830078125 157.53203735351562 99.69931182861328 157.53203735351562 84.15104064941406 157.53203735351562 73.14952239990234 146.5305191040039 62.148004150390626 135.52900085449218 62.148004150390626 119.98072967529296 62.148004150390626 104.43245849609374 73.14952239990234 93.43094024658205 84.15104064941406 82.4294219970703 99.69931182861328 82.4294219970703 115.2475830078125 82.4294219970703 126.24910125732421 93.43094024658205 137.25061950683593 104.43245849609374 137.25061950683593 119.98072967529296 Z"/>

<path id="Layer0_1_MEMBER_3_MEMBER_3_1_STROKES" stroke="#0066FF" stroke-opacity="0" stroke-width="0.1" stroke-linejoin="round" stroke-linecap="round" fill="none" d="
M 137.25061950683593 122.56079406738282
Q 137.25061950683593 137.06238403320313 126.24910125732421 147.32330017089842 115.2475830078125 157.58421630859374 99.69931182861328 157.58421630859374 84.15104064941406 157.58421630859374 73.14952239990234 147.32330017089842 62.148004150390626 137.06238403320313 62.148004150390626 122.56079406738282 62.148004150390626 108.0592041015625 73.14952239990234 97.7982879638672 84.15104064941406 87.53737182617188 99.69931182861328 87.53737182617188 115.2475830078125 87.53737182617188 126.24910125732421 97.7982879638672 137.25061950683593 108.0592041015625 137.25061950683593 122.56079406738282 Z"/>

<path id="Layer0_1_MEMBER_3_MEMBER_4_1_STROKES" stroke="#0066FF" stroke-opacity="0.00784313725490196" stroke-width="0.1" stroke-linejoin="round" stroke-linecap="round" fill="none" d="
M 126.25463256835937 90.68865051269532
Q 126.25463256835937 93.30607299804686 124.39710693359376 95.16359863281252 122.53958129882812 97.02112426757813 119.92215881347656 97.02112426757813 117.30473632812502 97.02112426757813 115.44721069335938 95.16359863281252 113.58968505859374 93.30607299804686 113.58968505859374 90.68865051269532 113.58968505859374 88.07122802734375 115.44721069335938 86.21370239257811 117.30473632812502 84.3561767578125 119.92215881347656 84.3561767578125 122.53958129882812 84.3561767578125 124.39710693359376 86.21370239257811 126.25463256835937 88.07122802734375 126.25463256835937 90.68865051269532 Z"/>

<path id="Layer0_1_MEMBER_3_MEMBER_5_1_STROKES" stroke="#0066FF" stroke-opacity="0" stroke-width="0.1" stroke-linejoin="round" stroke-linecap="round" fill="none" d="
M 86.89116058349612 22.30514297485351
L 70.61837158203127 22.30514297485351 70.61837158203127 26.386241149902347 86.89116058349612 26.386241149902347 86.89116058349612 22.30514297485351 Z"/>

<path id="Layer0_1_MEMBER_3_MEMBER_6_1_STROKES" stroke="#0066FF" stroke-opacity="0.00784313725490196" stroke-width="0.1" stroke-linejoin="round" stroke-linecap="round" fill="none" d="
M 80.71041793823242 26.394454956054688
L 86.84428405761719 26.394454956054688 86.84428405761719 56.7460952758789 80.71041793823242 56.7460952758789 80.71041793823242 26.394454956054688 Z"/>

<path id="Layer0_1_MEMBER_3_MEMBER_7_1_STROKES" stroke="#0066FF" stroke-opacity="0" stroke-width="0.1" stroke-linejoin="round" stroke-linecap="round" fill="none" d="
M 92.71045989990235 22.135545349121102
L 107.78852920532226 22.135545349121102 107.78852920532226 55.41971130371094 92.71045989990235 55.41971130371094 92.71045989990235 22.135545349121102 Z"/>

<path id="Layer0_1_MEMBER_3_MEMBER_8_1_STROKES" stroke="#0066FF" stroke-opacity="0" stroke-width="0.1" stroke-linejoin="round" stroke-linecap="round" fill="none" d="
M 113.79692535400392 22.30514297485351
L 129.87694091796874 22.30514297485351 129.87694091796874 26.386241149902347 113.79692535400392 26.386241149902347 113.79692535400392 22.30514297485351 Z"/>

<path id="Layer0_1_MEMBER_3_MEMBER_9_1_STROKES" stroke="#0066FF" stroke-opacity="0" stroke-width="0.1" stroke-linejoin="round" stroke-linecap="round" fill="none" d="
M 70.12888793945312 11.875382232666013
L 130.4411651611328 11.875382232666013
Q 132.64055938720702 11.875382232666013 134.18013534545898 13.414958190917972 135.71971130371094 14.95453414916993 135.71971130371094 17.15392837524415
L 135.71971130371094 17.17836608886718
Q 135.71971130371094 19.377760314941398 134.18013534545898 20.917336273193357 132.64055938720702 22.456912231445315 130.4411651611328 22.456912231445315
L 70.12888793945312 22.456912231445315
Q 67.9294937133789 22.456912231445315 66.38991775512696 20.917336273193357 64.850341796875 19.377760314941398 64.850341796875 17.17836608886718
L 64.850341796875 17.15392837524415
Q 64.850341796875 14.95453414916993 66.38991775512696 13.414958190917972 67.9294937133789 11.875382232666013 70.12888793945312 11.875382232666013 Z"/>

<path id="Layer0_1_MEMBER_3_MEMBER_10_1_STROKES" stroke="#0066FF" stroke-opacity="0" stroke-width="0.1" stroke-linejoin="round" stroke-linecap="round" fill="none" d="
M 70.12888793945312 10.92538223266601
L 130.4411651611328 10.92538223266601
Q 132.64055938720702 10.92538223266601 134.18013534545898 12.464958190917969 135.71971130371094 14.004534149169928 135.71971130371094 16.203928375244146
L 135.71971130371094 16.228366088867176
Q 135.71971130371094 18.427760314941395 134.18013534545898 19.967336273193354 132.64055938720702 21.506912231445312 130.4411651611328 21.506912231445312
L 70.12888793945312 21.506912231445312
Q 67.9294937133789 21.506912231445312 66.38991775512696 19.967336273193354 64.850341796875 18.427760314941395 64.850341796875 16.228366088867176
L 64.850341796875 16.203928375244146
Q 64.850341796875 14.004534149169928 66.38991775512696 12.464958190917969 67.9294937133789 10.92538223266601 70.12888793945312 10.92538223266601 Z"/>

<path id="Layer0_1_MEMBER_3_MEMBER_11_MEMBER_0_1_STROKES" stroke="#0066FF" stroke-opacity="0" stroke-width="0.1" stroke-linejoin="round" stroke-linecap="round" fill="none" d="
M 109.77901916503913 13.717342376708984
Q 109.77901916503913 14.474911499023435 109.21695175170896 15.012541198730467 108.67932205200202 15.574608612060544 107.9217529296875 15.574608612060544 107.16418380737309 15.574608612060544 106.60211639404304 15.012541198730467 106.06448669433598 14.474911499023435 106.06448669433598 13.717342376708984 106.06448669433598 12.959773254394534 106.60211639404304 12.39770584106445 107.16418380737309 11.860076141357423 107.9217529296875 11.860076141357423 108.67932205200202 11.860076141357423 109.21695175170896 12.39770584106445 109.77901916503913 12.959773254394534 109.77901916503913 13.717342376708984 Z"/>

<path id="Layer0_1_MEMBER_3_MEMBER_11_MEMBER_1_1_STROKES" stroke="#0066FF" stroke-opacity="0" stroke-width="0.1" stroke-linejoin="round" stroke-linecap="round" fill="none" d="
M 112.71257705688475 12.538271331787115
L 129.64791259765624 12.538271331787115
Q 130.16110458374024 12.538271331787115 130.52767028808594 12.904837036132818 130.91867370605468 13.295840454101551 130.91867370605468 13.809032440185547
L 130.91867370605468 13.833470153808605
Q 130.91867370605468 14.346662139892572 130.52767028808594 14.713227844238276 130.16110458374024 15.104231262207037 129.64791259765624 15.104231262207037
L 112.71257705688475 15.104231262207037
Q 112.19938507080079 15.104231262207037 111.80838165283203 14.713227844238276 111.44181594848632 14.346662139892572 111.44181594848632 13.833470153808605
L 111.44181594848632 13.809032440185547
Q 111.44181594848632 13.295840454101551 111.80838165283203 12.904837036132818 112.19938507080079 12.538271331787115 112.71257705688475 12.538271331787115 Z"/>

<path id="Layer0_1_MEMBER_3_MEMBER_12_1_STROKES" stroke="#0066FF" stroke-opacity="0" stroke-width="0.1" stroke-linejoin="round" stroke-linecap="round" fill="none" d="
M 107.8073257446289 22.413356781005866
L 92.75192413330078 22.413356781005866 92.75192413330078 26.49445495605469 107.8073257446289 26.49445495605469 107.8073257446289 22.413356781005866 Z"/>

<path id="Layer0_1_MEMBER_3_MEMBER_13_1_STROKES" stroke="#0066FF" stroke-opacity="0" stroke-width="0.1" stroke-linejoin="round" stroke-linecap="round" fill="none" d="
M 113.81124191284187 26.364961242675783
L 119.94510803222659 26.364961242675783 119.94510803222659 56.71660156250001 113.81124191284187 56.71660156250001 113.81124191284187 26.364961242675783 Z"/>

<path id="Layer0_1_MEMBER_3_MEMBER_14_1_STROKES" stroke="#FFFFFF" stroke-opacity="0" stroke-width="1" stroke-linejoin="round" stroke-linecap="round" fill="none" d="
M 83.67945785522461 55.93246154785155
L 116.53640213012696 55.93246154785155
Q 120.64956893920899 55.93246154785155 120.64956893920899 59.988690185546865
L 120.64956893920899 66.59795684814452
Q 120.64956893920899 70.65418548583983 116.53640213012696 70.65418548583983
L 83.67945785522461 70.65418548583983
Q 79.56629104614258 70.65418548583983 79.56629104614258 66.59795684814452
L 79.56629104614258 59.988690185546865
Q 79.56629104614258 55.93246154785155 83.67945785522461 55.93246154785155 Z"/>

<path id="Layer0_1_MEMBER_3_MEMBER_15_1_STROKES" stroke="#0066FF" stroke-opacity="0" stroke-width="1" stroke-linejoin="round" stroke-linecap="round" fill="none" d="
M 83.67945785522461 53.68246154785155
L 116.53640213012696 53.68246154785155
Q 120.64956893920899 53.68246154785155 120.64956893920899 57.738690185546865
L 120.64956893920899 64.34795684814452
Q 120.64956893920899 68.40418548583983 116.53640213012696 68.40418548583983
L 83.67945785522461 68.40418548583983
Q 79.56629104614258 68.40418548583983 79.56629104614258 64.34795684814452
L 79.56629104614258 57.738690185546865
Q 79.56629104614258 53.68246154785155 83.67945785522461 53.68246154785155 Z"/>

<path id="Layer0_1_MEMBER_3_MEMBER_20_1_STROKES" stroke="#0066FF" stroke-opacity="0" stroke-width="0.1" stroke-linejoin="round" stroke-linecap="round" fill="none" d="
M 69.7551643371582 172.1257308959961
Q 70.69990844726563 172.05702438354493 71.08085556030274 171.18680801391602 71.44324035644532 170.27198638916016 70.82514114379883 169.56633605957032
L 67.3639518737793 165.57485427856446
Q 67.14480514526367 165.29974212646485 67.2118522644043 164.957861328125
L 68.54087753295899 159.85209121704102
Q 68.79548950195313 158.92978897094727 68.05992050170899 158.2939552307129 67.32435150146485 157.65812149047852 66.44859237670899 158.04349746704102
L 61.588835906982425 160.097265625
Q 61.22977752685547 160.21528854370118 60.956328582763675 160.03603591918946
L 56.50606460571289 157.18877258300782
Q 55.71840972900391 156.6792739868164 54.86564559936524 157.17020645141602 54.061919403076175 157.70352783203126 54.12840957641602 158.6177963256836
L 54.57278747558594 163.88564529418946
Q 54.61351318359375 164.2350067138672 54.32427139282227 164.47049942016602
L 50.248843383789065 167.8305648803711
Q 49.68448944091797 168.28520431518555 49.690859985351565 169.00470581054688 49.68393249511719 169.54135360717774 50.02193374633789 169.97632446289063 50.3599349975586 170.41129531860352 50.889102172851565 170.52599563598633
L 56.03061218261719 171.71455612182618
Q 56.37470932006836 171.81207885742188 56.520991516113284 172.13844528198243
L 58.44094390869141 177.05388870239258
Q 58.55896682739258 177.41294708251954 58.85319442749024 177.6672805786133 59.37626571655274 178.1194290161133 60.11959381103516 178.01941528320313 60.801970672607425 177.92383422851563 61.20064849853516 177.29742279052735
L 63.935706329345706 172.77872695922852
Q 64.12687225341797 172.45845642089844 64.47845001220703 172.4482063293457
L 69.7551643371582 172.1257308959961 Z"/>

<path id="Layer0_1_MEMBER_3_MEMBER_21_1_STROKES" stroke="#0066FF" stroke-opacity="0" stroke-width="0.1" stroke-linejoin="round" stroke-linecap="round" fill="none" d="
M 94.68294830322264 179.25672607421873
Q 95.49574279785156 178.77031707763672 95.44442901611328 177.8217758178711 95.3564697265625 176.8417510986328 94.48699493408202 176.48965759277343
L 89.60016021728515 174.4822799682617
Q 89.28067474365234 174.3351867675781 89.18673553466796 173.99970397949218
L 88.07648468017578 168.8420394897461
Q 87.88891296386718 167.90382232666016 86.94594268798828 167.66692962646485 86.00297241210937 167.43003692626954 85.39425811767578 168.1682113647461
L 81.97825164794921 172.18879089355468
Q 81.710693359375 172.4557357788086 81.3858413696289 172.4186813354492
L 76.13050689697265 171.87814636230468
Q 75.19786071777344 171.7775115966797 74.65717315673828 172.5996078491211 74.17935028076171 173.43749694824217 74.65006866455077 174.22407226562498
L 77.41698303222655 178.72860870361328
Q 77.61053466796875 179.02228393554688 77.45817718505859 179.36272430419922
L 75.33033447265625 184.1970184326172
Q 75.0308837890625 184.85694427490233 75.36028442382812 185.496630859375 75.59554138183593 185.97900238037107 76.0930923461914 186.2153839111328 76.59064331054687 186.4517654418945 77.11482238769531 186.31612091064454
L 82.24120788574218 185.06434783935546
Q 82.59238128662109 184.9966278076172 82.86985473632812 185.22227630615234
L 86.79598388671874 188.74821929931642
Q 87.06292877197265 189.01577758789062 87.44011688232422 189.11053466796875 88.11067352294921 189.27899169921875 88.72950744628906 188.85524291992186 89.29590301513672 188.46287536621094 89.37011413574218 187.72408752441407
L 89.77965545654297 182.45812225341797
Q 89.80628356933593 182.08609619140626 90.11564941406249 181.91876373291015
L 94.68294830322264 179.25672607421873 Z"/>

<path id="Layer0_1_MEMBER_3_MEMBER_22_1_STROKES" stroke="#0066FF" stroke-opacity="0" stroke-width="0.1" stroke-linejoin="round" stroke-linecap="round" fill="none" d="
M 130.2448356628418 172.1257308959961
Q 129.3000915527344 172.05702438354493 128.91914443969728 171.18680801391602 128.5567596435547 170.27198638916016 129.17485885620118 169.56633605957032
L 132.63604812622071 165.57485427856446
Q 132.85519485473634 165.29974212646485 132.78814773559571 164.957861328125
L 131.45912246704103 159.85209121704102
Q 131.2045104980469 158.92978897094727 131.94007949829103 158.2939552307129 132.67564849853517 157.65812149047852 133.55140762329103 158.04349746704102
L 138.4111640930176 160.097265625
Q 138.77022247314454 160.21528854370118 139.04367141723634 160.03603591918946
L 143.49393539428712 157.18877258300782
Q 144.2815902709961 156.6792739868164 145.13435440063478 157.17020645141602 145.93808059692384 157.70352783203126 145.871590423584 158.6177963256836
L 145.42721252441407 163.88564529418946
Q 145.38648681640626 164.2350067138672 145.67572860717775 164.47049942016602
L 149.75115661621095 167.8305648803711
Q 150.31551055908204 168.28520431518555 150.30914001464845 169.00470581054688 150.31606750488282 169.54135360717774 149.97806625366212 169.97632446289063 149.64006500244142 170.41129531860352 149.11089782714845 170.52599563598633
L 143.96938781738282 171.71455612182618
Q 143.62529067993165 171.81207885742188 143.47900848388673 172.13844528198243
L 141.5590560913086 177.05388870239258
Q 141.44103317260743 177.41294708251954 141.14680557250978 177.6672805786133 140.62373428344728 178.1194290161133 139.88040618896486 178.01941528320313 139.1980293273926 177.92383422851563 138.79935150146486 177.29742279052735
L 136.0642936706543 172.77872695922852
Q 135.87312774658204 172.45845642089844 135.52154998779298 172.4482063293457
L 130.2448356628418 172.1257308959961 Z"/>

<path id="Layer0_1_MEMBER_3_MEMBER_23_1_STROKES" stroke="#0066FF" stroke-opacity="0" stroke-width="0.1" stroke-linejoin="round" stroke-linecap="round" fill="none" d="
M 105.31705169677736 179.25672607421873
Q 104.50425720214844 178.77031707763672 104.55557098388672 177.8217758178711 104.6435302734375 176.8417510986328 105.51300506591798 176.48965759277343
L 110.39983978271485 174.4822799682617
Q 110.71932525634766 174.3351867675781 110.81326446533204 173.99970397949218
L 111.92351531982422 168.8420394897461
Q 112.11108703613282 167.90382232666016 113.05405731201172 167.66692962646485 113.99702758789063 167.43003692626954 114.60574188232422 168.1682113647461
L 118.02174835205079 172.18879089355468
Q 118.289306640625 172.4557357788086 118.6141586303711 172.4186813354492
L 123.86949310302735 171.87814636230468
Q 124.80213928222656 171.7775115966797 125.34282684326172 172.5996078491211 125.82064971923829 173.43749694824217 125.34993133544923 174.22407226562498
L 122.58301696777345 178.72860870361328
Q 122.38946533203125 179.02228393554688 122.54182281494141 179.36272430419922
L 124.66966552734375 184.1970184326172
Q 124.9691162109375 184.85694427490233 124.63971557617188 185.496630859375 124.40445861816407 185.97900238037107 123.9069076538086 186.2153839111328 123.40935668945313 186.4517654418945 122.88517761230469 186.31612091064454
L 117.75879211425782 185.06434783935546
Q 117.40761871337891 184.9966278076172 117.13014526367188 185.22227630615234
L 113.20401611328126 188.74821929931642
Q 112.93707122802735 189.01577758789062 112.55988311767578 189.11053466796875 111.88932647705079 189.27899169921875 111.27049255371094 188.85524291992186 110.70409698486328 188.46287536621094 110.62988586425782 187.72408752441407
L 110.22034454345703 182.45812225341797
Q 110.19371643066407 182.08609619140626 109.88435058593751 181.91876373291015
L 105.31705169677736 179.25672607421873 Z"/>

<path id="Layer0_1_MEMBER_3_MEMBER_24_1_STROKES" stroke="#0066FF" stroke-opacity="0" stroke-width="0.1" stroke-linejoin="round" stroke-linecap="round" fill="none" d="
M 118.08784179687507 56.287839508056635
Q 118.08784179687507 56.87434463500976 117.64796295166013 57.31422348022461 117.20808410644531 57.75410232543945 116.62157897949226 57.75410232543945 116.03507385253909 57.75410232543945 115.59519500732426 57.31422348022461 115.17975387573244 56.87434463500976 115.17975387573244 56.287839508056635 115.17975387573244 55.70133438110352 115.59519500732426 55.26145553588867 116.03507385253909 54.84601440429688 116.62157897949226 54.84601440429688 117.20808410644531 54.84601440429688 117.64796295166013 55.26145553588867 118.08784179687507 55.70133438110352 118.08784179687507 56.287839508056635 Z"/>

<path id="Layer0_1_MEMBER_4_1_STROKES" stroke="#0066FF" stroke-opacity="0" stroke-width="0.1" stroke-linejoin="round" stroke-linecap="round" fill="none" d="
M 95.62495269775391 71.41444549560546
Q 95.62495269775391 72.30014266967774 95.0063705444336 72.91872482299806 94.38778839111328 73.53730697631835 93.50209121704101 73.53730697631835 92.61639404296875 73.53730697631835 91.99781188964843 72.91872482299806 91.37922973632813 72.30014266967774 91.37922973632813 71.41444549560546 91.37922973632813 70.52874832153321 91.99781188964843 69.9101661682129 92.61639404296875 69.29158401489258 93.50209121704101 69.29158401489258 94.38778839111328 69.29158401489258 95.0063705444336 69.9101661682129 95.62495269775391 70.52874832153321 95.62495269775391 71.41444549560546 Z"/>

<path id="Layer0_1_MEMBER_5_1_STROKES" stroke="#0066FF" stroke-opacity="0" stroke-width="0.1" stroke-linejoin="round" stroke-linecap="round" fill="none" d="
M 108.67495269775391 71.41444549560546
Q 108.67495269775391 72.30014266967774 108.0563705444336 72.91872482299806 107.43778839111329 73.53730697631835 106.55209121704101 73.53730697631835 105.66639404296875 73.53730697631835 105.04781188964844 72.91872482299806 104.42922973632812 72.30014266967774 104.42922973632812 71.41444549560546 104.42922973632812 70.52874832153321 105.04781188964844 69.9101661682129 105.66639404296875 69.29158401489258 106.55209121704101 69.29158401489258 107.43778839111329 69.29158401489258 108.0563705444336 69.9101661682129 108.67495269775391 70.52874832153321 108.67495269775391 71.41444549560546 Z"/>

<path id="Layer0_1_MEMBER_6_1_STROKES" stroke="#0066FF" stroke-opacity="0" stroke-width="0.1" stroke-linejoin="round" stroke-linecap="round" fill="none" d="
M 88.2249526977539 73.61444549560547
Q 88.2249526977539 74.50014266967773 87.60637054443359 75.11872482299805 86.98778839111327 75.73730697631835 86.10209121704102 75.73730697631835 85.21639404296874 75.73730697631835 84.59781188964844 75.11872482299805 83.97922973632812 74.50014266967773 83.97922973632812 73.61444549560547 83.97922973632812 72.7287483215332 84.59781188964844 72.11016616821288 85.21639404296874 71.49158401489258 86.10209121704102 71.49158401489258 86.98778839111327 71.49158401489258 87.60637054443359 72.11016616821288 88.2249526977539 72.7287483215332 88.2249526977539 73.61444549560547 Z"/>

<path id="Layer0_1_MEMBER_7_1_STROKES" stroke="#0066FF" stroke-opacity="0" stroke-width="0.1" stroke-linejoin="round" stroke-linecap="round" fill="none" d="
M 115.62495269775391 73.61444549560547
Q 115.62495269775391 74.50014266967773 115.0063705444336 75.11872482299805 114.38778839111328 75.73730697631835 113.50209121704103 75.73730697631835 112.61639404296875 75.73730697631835 111.99781188964845 75.11872482299805 111.37922973632813 74.50014266967773 111.37922973632813 73.61444549560547 111.37922973632813 72.7287483215332 111.99781188964845 72.11016616821288 112.61639404296875 71.49158401489258 113.50209121704103 71.49158401489258 114.38778839111328 71.49158401489258 115.0063705444336 72.11016616821288 115.62495269775391 72.7287483215332 115.62495269775391 73.61444549560547 Z"/>

<path id="Layer0_1_MEMBER_8_1_STROKES" stroke="#0066FF" stroke-opacity="0" stroke-width="0.1" stroke-linejoin="round" stroke-linecap="round" fill="none" d="
M 94.48373107910156 71.40702819824219
Q 94.48373107910156 71.8006820678711 94.20879821777343 72.07561492919922 93.93386535644531 72.35054779052734 93.5402114868164 72.35054779052734 93.1465576171875 72.35054779052734 92.87162475585937 72.07561492919922 92.59669189453125 71.8006820678711 92.59669189453125 71.40702819824219 92.59669189453125 71.01337432861328 92.87162475585937 70.73844146728516 93.1465576171875 70.46350860595703 93.5402114868164 70.46350860595703 93.93386535644531 70.46350860595703 94.20879821777343 70.73844146728516 94.48373107910156 71.01337432861328 94.48373107910156 71.40702819824219 Z"/>

<path id="Layer0_1_MEMBER_9_1_STROKES" stroke="#0066FF" stroke-opacity="0" stroke-width="0.1" stroke-linejoin="round" stroke-linecap="round" fill="none" d="
M 107.43373107910156 71.40702819824219
Q 107.43373107910156 71.8006820678711 107.15879821777344 72.07561492919922 106.88386535644531 72.35054779052734 106.4902114868164 72.35054779052734 106.0965576171875 72.35054779052734 105.82162475585938 72.07561492919922 105.54669189453125 71.8006820678711 105.54669189453125 71.40702819824219 105.54669189453125 71.01337432861328 105.82162475585938 70.73844146728516 106.0965576171875 70.46350860595703 106.4902114868164 70.46350860595703 106.88386535644531 70.46350860595703 107.15879821777344 70.73844146728516 107.43373107910156 71.01337432861328 107.43373107910156 71.40702819824219 Z"/>
</defs>

<g transform="matrix( 1, 0, 0, 1, 0,0) ">
<use xlink:href="#Layer0_0_FILL"/>

<use xlink:href="#Layer0_0_1_STROKES"/>

<use xlink:href="#Layer0_0_2_STROKES"/>
</g>

<g transform="matrix( 0.9719085693359375, 0, 0, 0.9719085693359375, 723.2,-93.75) ">
<use xlink:href="#Layer0_0_MEMBER_0_FILL"/>

<use xlink:href="#Layer0_0_MEMBER_0_1_STROKES" transform="matrix( 1.028900146484375, 0, 0, 1.028900146484375, -744.1,96.45) "/>
</g>

<g transform="matrix( 0.9719085693359375, 0, 0, 0.947906494140625, 723.2,-87.3) ">
<use xlink:href="#Layer0_0_MEMBER_1_FILL"/>

<use xlink:href="#Layer0_0_MEMBER_1_1_STROKES" transform="matrix( 1.028900146484375, 0, 0, 1.0549468994140625, -744.1,92.05) "/>
</g>

<g transform="matrix( 0.8306121826171875, 0, 0, 0.8306121826171875, 743.3,-43.25) ">
<use xlink:href="#Layer0_0_MEMBER_2_FILL"/>

<use xlink:href="#Layer0_0_MEMBER_2_1_STROKES" transform="matrix( 1.20391845703125, 0, 0, 1.20391845703125, -894.85,52.05) "/>
</g>

<g transform="matrix( 0.8306121826171875, 0, 0, 0.774688720703125, 743.3,-18) ">
<use xlink:href="#Layer0_0_MEMBER_3_FILL"/>

<use xlink:href="#Layer0_0_MEMBER_3_1_STROKES" transform="matrix( 1.20391845703125, 0, 0, 1.29083251953125, -894.85,23.2) "/>
</g>

<g transform="matrix( 0.8637847900390625, 0, 0, 0.8637847900390625, 734.6,-61.05) ">
<use xlink:href="#Layer0_0_MEMBER_4_FILL"/>

<use xlink:href="#Layer0_0_MEMBER_4_1_STROKES" transform="matrix( 1.157684326171875, 0, 0, 1.157684326171875, -850.4,70.65) "/>
</g>

<g transform="matrix( -1.0120086669921875, 0, 0, 1, 1735.65,-23.55) ">
<use xlink:href="#Layer0_0_MEMBER_5_FILL"/>

<use xlink:href="#Layer0_0_MEMBER_5_1_STROKES" transform="matrix( -0.988128662109375, 0, 0, 1, 1715.05,23.55) "/>
</g>

<g transform="matrix( 1, 0, 0, 1, 710.35,-102.85) ">
<use xlink:href="#Layer0_0_MEMBER_6_FILL"/>

<use xlink:href="#Layer0_0_MEMBER_6_1_STROKES"/>
</g>

<g transform="matrix( 1, 0, 0, 1, 710.5,-103.45) ">
<use xlink:href="#Layer0_0_MEMBER_7_FILL"/>

<use xlink:href="#Layer0_0_MEMBER_7_1_STROKES"/>
</g>

<g transform="matrix( 1, 0, 0, 1, 0.9,-23.55) ">
<use xlink:href="#Layer0_0_MEMBER_8_FILL"/>

<use xlink:href="#Layer0_0_MEMBER_8_1_STROKES"/>
</g>

<g transform="matrix( 1, 0, 0, 1, 710.35,-100.9) ">
<use xlink:href="#Layer0_0_MEMBER_9_FILL"/>

<use xlink:href="#Layer0_0_MEMBER_9_1_STROKES"/>
</g>

<g transform="matrix( 1, 0, 0, 1, 710.35,-102.85) ">
<use xlink:href="#Layer0_0_MEMBER_10_FILL"/>

<use xlink:href="#Layer0_0_MEMBER_10_1_STROKES"/>
</g>

<g transform="matrix( 1, 0, 0, 1, 0,0) ">
<use xlink:href="#Layer0_0_MEMBER_11_MEMBER_0_FILL"/>

<use xlink:href="#Layer0_0_MEMBER_11_MEMBER_0_1_STROKES"/>
</g>

<g transform="matrix( 1, 0, 0, 1, 709.35,-102.85) ">
<use xlink:href="#Layer0_0_MEMBER_11_MEMBER_1_FILL"/>

<use xlink:href="#Layer0_0_MEMBER_11_MEMBER_1_1_STROKES"/>
</g>

<g transform="matrix( -0.927825927734375, 0, 0, 1, 904.3,-102.55) ">
<use xlink:href="#Layer0_0_MEMBER_12_FILL"/>

<use xlink:href="#Layer0_0_MEMBER_12_1_STROKES" transform="matrix( -1.0777740478515625, 0, 0, 1, 974.6,102.55) "/>
</g>

<g transform="matrix( 1, 0, 0, 1, 0,-16.55) ">
<use xlink:href="#Layer0_0_MEMBER_13_FILL"/>

<use xlink:href="#Layer0_0_MEMBER_13_1_STROKES"/>
</g>

<g transform="matrix( 0.9900970458984375, 0, 0, 0.97637939453125, 712.3,-92.3) ">
<use xlink:href="#Layer0_0_MEMBER_14_FILL"/>

<use xlink:href="#Layer0_0_MEMBER_14_1_STROKES" transform="matrix( 1.0099945068359375, 0, 0, 1.0241851806640625, -719.4,94.5) "/>
</g>

<g transform="matrix( 0.9900970458984375, 0, 0, 0.97637939453125, 712.3,-96.9) ">
<use xlink:href="#Layer0_0_MEMBER_15_FILL"/>

<use xlink:href="#Layer0_0_MEMBER_15_1_STROKES" transform="matrix( 1.0099945068359375, 0, 0, 1.0241851806640625, -719.4,99.2) "/>
</g>

<g transform="matrix( 0.3203125, 0, 0, 0.3203125, 880.4,127.1) ">
<use xlink:href="#Layer0_0_MEMBER_16_FILL"/>
</g>

<g transform="matrix( 0.3203125, 0, 0, 0.3203125, 827.15,127.1) ">
<use xlink:href="#Layer0_0_MEMBER_17_FILL"/>
</g>

<g transform="matrix( 0.3203125, 0, 0, 0.3203125, 845.15,124.1) ">
<use xlink:href="#Layer0_0_MEMBER_18_FILL"/>
</g>

<g transform="matrix( 0.3203125, 0, 0, 0.3203125, 862.8,124.1) ">
<use xlink:href="#Layer0_0_MEMBER_19_FILL"/>
</g>

<g transform="matrix( 0.6688995361328125, 0.5782012939453125, -0.5782012939453125, 0.6688995361328125, 780.85,317.05) ">
<use xlink:href="#Layer0_0_MEMBER_20_FILL"/>

<use xlink:href="#Layer0_0_MEMBER_20_1_STROKES" transform="matrix( 0.8556365966796875, -0.7396240234375, 0.7396240234375, 0.8556365966796875, -902.6,306.25) "/>
</g>

<g transform="matrix( 0.8574981689453125, 0.2154388427734375, -0.2154388427734375, 0.8574981689453125, 814.4,345.05) ">
<use xlink:href="#Layer0_0_MEMBER_21_FILL"/>

<use xlink:href="#Layer0_0_MEMBER_21_1_STROKES" transform="matrix( 1.0969390869140625, -0.2755889892578125, 0.2755889892578125, 1.0969390869140625, -988.4,-154.05) "/>
</g>

<g transform="matrix( -0.6688995361328125, 0.5782012939453125, 0.5782012939453125, 0.6688995361328125, 943.75,317.05) ">
<use xlink:href="#Layer0_0_MEMBER_22_FILL"/>

<use xlink:href="#Layer0_0_MEMBER_22_1_STROKES" transform="matrix( -0.8556365966796875, 0.7396240234375, 0.7396240234375, 0.8556365966796875, 573,-969.3) "/>
</g>

<g transform="matrix( -0.8574981689453125, 0.2154388427734375, 0.2154388427734375, 0.8574981689453125, 910.2,345.05) ">
<use xlink:href="#Layer0_0_MEMBER_23_FILL"/>

<use xlink:href="#Layer0_0_MEMBER_23_1_STROKES" transform="matrix( -1.0969390869140625, 0.2755889892578125, 0.2755889892578125, 1.0969390869140625, 903.3,-629.3) "/>
</g>

<g transform="matrix( 1, 0, 0, 1, 0,0) ">
<use xlink:href="#Layer0_0_MEMBER_24_FILL"/>

<use xlink:href="#Layer0_0_MEMBER_24_1_STROKES"/>
</g>

<g transform="matrix( 0.321197509765625, 0, 0, 0.316741943359375, 51.25,0.45) ">
<use xlink:href="#Layer0_1_MEMBER_0_FILL"/>

<use xlink:href="#Layer0_1_MEMBER_0_1_STROKES" transform="matrix( 3.11334228515625, 0, 0, 3.157135009765625, -159.55,-1.4) "/>
</g>

<g transform="matrix( 0.6408843994140625, 0, 0, 0.6408843994140625, 11.95,-41.2) ">
<use xlink:href="#Layer0_1_MEMBER_1_FILL"/>

<use xlink:href="#Layer0_1_MEMBER_1_1_STROKES" transform="matrix( 1.560333251953125, 0, 0, 1.560333251953125, -18.6,64.25) "/>
</g>

<g transform="matrix( 0.6408843994140625, 0, 0, 0.6408843994140625, 39.4,-41.2) ">
<use xlink:href="#Layer0_1_MEMBER_2_FILL"/>

<use xlink:href="#Layer0_1_MEMBER_2_1_STROKES" transform="matrix( 1.560333251953125, 0, 0, 1.560333251953125, -61.45,64.25) "/>
</g>

<g transform="matrix( 0.4887542724609375, 0, 0, 0.4887542724609375, -321.4,-4) ">
<use xlink:href="#Layer0_1_MEMBER_3_FILL"/>

<use xlink:href="#Layer0_1_MEMBER_3_1_STROKES" transform="matrix( 2.0460052490234375, 0, 0, 2.0460052490234375, 657.55,8.15) "/>

<use xlink:href="#Layer0_1_MEMBER_3_2_STROKES" transform="matrix( 2.0460052490234375, 0, 0, 2.0460052490234375, 657.55,8.15) "/>
</g>

<g transform="matrix( 0.4750213623046875, 0, 0, 0.4750213623046875, 32,-49.85) ">
<use xlink:href="#Layer0_1_MEMBER_3_MEMBER_0_FILL"/>

<use xlink:href="#Layer0_1_MEMBER_3_MEMBER_0_1_STROKES" transform="matrix( 2.10516357421875, 0, 0, 2.10516357421875, -67.35,104.9) "/>
</g>

<g transform="matrix( 0.4750213623046875, 0, 0, 0.463287353515625, 32,-46.65) ">
<use xlink:href="#Layer0_1_MEMBER_3_MEMBER_1_FILL"/>

<use xlink:href="#Layer0_1_MEMBER_3_MEMBER_1_1_STROKES" transform="matrix( 2.10516357421875, 0, 0, 2.158477783203125, -67.35,100.65) "/>
</g>

<g transform="matrix( 0.4059600830078125, 0, 0, 0.4059600830078125, 41.85,-25.15) ">
<use xlink:href="#Layer0_1_MEMBER_3_MEMBER_2_FILL"/>

<use xlink:href="#Layer0_1_MEMBER_3_MEMBER_2_1_STROKES" transform="matrix( 2.463287353515625, 0, 0, 2.463287353515625, -103.05,61.95) "/>
</g>

<g transform="matrix( 0.4059600830078125, 0, 0, 0.378631591796875, 41.85,-12.8) ">
<use xlink:href="#Layer0_1_MEMBER_3_MEMBER_3_FILL"/>

<use xlink:href="#Layer0_1_MEMBER_3_MEMBER_3_1_STROKES" transform="matrix( 2.463287353515625, 0, 0, 2.641082763671875, -103.05,33.8) "/>
</g>

<g transform="matrix( 0.4221649169921875, 0, 0, 0.4221649169921875, 37.6,-33.85) ">
<use xlink:href="#Layer0_1_MEMBER_3_MEMBER_4_FILL"/>

<use xlink:href="#Layer0_1_MEMBER_3_MEMBER_4_1_STROKES" transform="matrix( 2.3687286376953125, 0, 0, 2.3687286376953125, -89.05,80.15) "/>
</g>

<g transform="matrix( -0.4946136474609375, 0, 0, 0.4887542724609375, 526.85,-15.5) ">
<use xlink:href="#Layer0_1_MEMBER_3_MEMBER_5_FILL"/>

<use xlink:href="#Layer0_1_MEMBER_3_MEMBER_5_1_STROKES" transform="matrix( -2.0217742919921875, 0, 0, 2.0460052490234375, 1065.15,31.7) "/>
</g>

<g transform="matrix( 0.4887542724609375, 0, 0, 0.4887542724609375, 25.75,-54.25) ">
<use xlink:href="#Layer0_1_MEMBER_3_MEMBER_6_FILL"/>

<use xlink:href="#Layer0_1_MEMBER_3_MEMBER_6_1_STROKES" transform="matrix( 2.0460052490234375, 0, 0, 2.0460052490234375, -52.65,110.95) "/>
</g>

<g transform="matrix( 0.4887542724609375, 0, 0, 0.4887542724609375, 25.8,-54.55) ">
<use xlink:href="#Layer0_1_MEMBER_3_MEMBER_7_FILL"/>

<use xlink:href="#Layer0_1_MEMBER_3_MEMBER_7_1_STROKES" transform="matrix( 2.0460052490234375, 0, 0, 2.0460052490234375, -52.75,111.6) "/>
</g>

<g transform="matrix( 0.4887542724609375, 0, 0, 0.4887542724609375, -320.95,-15.5) ">
<use xlink:href="#Layer0_1_MEMBER_3_MEMBER_8_FILL"/>

<use xlink:href="#Layer0_1_MEMBER_3_MEMBER_8_1_STROKES" transform="matrix( 2.0460052490234375, 0, 0, 2.0460052490234375, 656.65,31.7) "/>
</g>

<g transform="matrix( 0.4887542724609375, 0, 0, 0.4887542724609375, 25.75,-53.3) ">
<use xlink:href="#Layer0_1_MEMBER_3_MEMBER_9_FILL"/>

<use xlink:href="#Layer0_1_MEMBER_3_MEMBER_9_1_STROKES" transform="matrix( 2.0460052490234375, 0, 0, 2.0460052490234375, -52.65,109.05) "/>
</g>

<g transform="matrix( 0.4887542724609375, 0, 0, 0.4887542724609375, 25.75,-54.25) ">
<use xlink:href="#Layer0_1_MEMBER_3_MEMBER_10_FILL"/>

<use xlink:href="#Layer0_1_MEMBER_3_MEMBER_10_1_STROKES" transform="matrix( 2.0460052490234375, 0, 0, 2.0460052490234375, -52.65,110.95) "/>
</g>

<g transform="matrix( 0.4887542724609375, 0, 0, 0.4887542724609375, -321.4,-4) ">
<use xlink:href="#Layer0_1_MEMBER_3_MEMBER_11_MEMBER_0_FILL"/>

<use xlink:href="#Layer0_1_MEMBER_3_MEMBER_11_MEMBER_0_1_STROKES" transform="matrix( 2.0460052490234375, 0, 0, 2.0460052490234375, 657.55,8.15) "/>
</g>

<g transform="matrix( 0.4887542724609375, 0, 0, 0.4887542724609375, 25.25,-54.25) ">
<use xlink:href="#Layer0_1_MEMBER_3_MEMBER_11_MEMBER_1_FILL"/>

<use xlink:href="#Layer0_1_MEMBER_3_MEMBER_11_MEMBER_1_1_STROKES" transform="matrix( 2.0460052490234375, 0, 0, 2.0460052490234375, -51.65,110.95) "/>
</g>

<g transform="matrix( -0.4534759521484375, 0, 0, 0.4887542724609375, 120.55,-54.15) ">
<use xlink:href="#Layer0_1_MEMBER_3_MEMBER_12_FILL"/>

<use xlink:href="#Layer0_1_MEMBER_3_MEMBER_12_1_STROKES" transform="matrix( -2.2051849365234375, 0, 0, 2.0460052490234375, 265.8,110.75) "/>
</g>

<g transform="matrix( 0.4887542724609375, 0, 0, 0.4887542724609375, -321.4,-12.1) ">
<use xlink:href="#Layer0_1_MEMBER_3_MEMBER_13_FILL"/>

<use xlink:href="#Layer0_1_MEMBER_3_MEMBER_13_1_STROKES" transform="matrix( 2.0460052490234375, 0, 0, 2.0460052490234375, 657.55,24.75) "/>
</g>

<g transform="matrix( 0.4839019775390625, 0, 0, 0.477203369140625, 26.7,-49.1) ">
<use xlink:href="#Layer0_1_MEMBER_3_MEMBER_14_FILL"/>

<use xlink:href="#Layer0_1_MEMBER_3_MEMBER_14_1_STROKES" transform="matrix( 2.0665283203125, 0, 0, 2.0955352783203125, -55.15,102.85) "/>
</g>

<g transform="matrix( 0.4839019775390625, 0, 0, 0.477203369140625, 26.7,-51.35) ">
<use xlink:href="#Layer0_1_MEMBER_3_MEMBER_15_FILL"/>

<use xlink:href="#Layer0_1_MEMBER_3_MEMBER_15_1_STROKES" transform="matrix( 2.0665283203125, 0, 0, 2.0955352783203125, -55.15,107.6) "/>
</g>

<g transform="matrix( 0.1565399169921875, 0, 0, 0.1565399169921875, 108.85,58.05) ">
<use xlink:href="#Layer0_1_MEMBER_3_MEMBER_16_FILL"/>
</g>

<g transform="matrix( 0.1565399169921875, 0, 0, 0.1565399169921875, 82.8,58.05) ">
<use xlink:href="#Layer0_1_MEMBER_3_MEMBER_17_FILL"/>
</g>

<g transform="matrix( 0.1565399169921875, 0, 0, 0.1565399169921875, 91.6,56.6) ">
<use xlink:href="#Layer0_1_MEMBER_3_MEMBER_18_FILL"/>
</g>

<g transform="matrix( 0.1565399169921875, 0, 0, 0.1565399169921875, 100.25,56.6) ">
<use xlink:href="#Layer0_1_MEMBER_3_MEMBER_19_FILL"/>
</g>

<g transform="matrix( 0.3269195556640625, 0.2825927734375, -0.2825927734375, 0.3269195556640625, 60.2,150.9) ">
<use xlink:href="#Layer0_1_MEMBER_3_MEMBER_20_FILL"/>

<use xlink:href="#Layer0_1_MEMBER_3_MEMBER_20_1_STROKES" transform="matrix( 1.750701904296875, -1.5133209228515625, 1.5133209228515625, 1.750701904296875, -333.75,-173.05) "/>
</g>

<g transform="matrix( 0.419097900390625, 0.10528564453125, -0.10528564453125, 0.419097900390625, 76.6,164.6) ">
<use xlink:href="#Layer0_1_MEMBER_3_MEMBER_21_FILL"/>

<use xlink:href="#Layer0_1_MEMBER_3_MEMBER_21_1_STROKES" transform="matrix( 2.244415283203125, -0.5638427734375, 0.5638427734375, 2.244415283203125, -264.7,-326.2) "/>
</g>

<g transform="matrix( -0.3269195556640625, 0.2825927734375, 0.2825927734375, 0.3269195556640625, 139.8,150.9) ">
<use xlink:href="#Layer0_1_MEMBER_3_MEMBER_22_FILL"/>

<use xlink:href="#Layer0_1_MEMBER_3_MEMBER_22_1_STROKES" transform="matrix( -1.750701904296875, 1.5133209228515625, 1.5133209228515625, 1.750701904296875, 16.35,-475.7) "/>
</g>

<g transform="matrix( -0.419097900390625, 0.10528564453125, 0.10528564453125, 0.419097900390625, 123.4,164.6) ">
<use xlink:href="#Layer0_1_MEMBER_3_MEMBER_23_FILL"/>

<use xlink:href="#Layer0_1_MEMBER_3_MEMBER_23_1_STROKES" transform="matrix( -2.244415283203125, 0.5638427734375, 0.5638427734375, 2.244415283203125, 184.15,-439) "/>
</g>

<g transform="matrix( 0.4887542724609375, 0, 0, 0.4887542724609375, -321.4,-4) ">
<use xlink:href="#Layer0_1_MEMBER_3_MEMBER_24_FILL"/>

<use xlink:href="#Layer0_1_MEMBER_3_MEMBER_24_1_STROKES" transform="matrix( 2.0460052490234375, 0, 0, 2.0460052490234375, 657.55,8.15) "/>
</g>

<g transform="matrix( 0.2811737060546875, 0, 0, 0.2811737060546875, 60.9,21) ">
<use xlink:href="#Layer0_1_MEMBER_4_FILL"/>

<use xlink:href="#Layer0_1_MEMBER_4_1_STROKES" transform="matrix( 3.5565185546875, 0, 0, 3.5565185546875, -216.55,-74.65) "/>
</g>

<g transform="matrix( 0.2811737060546875, 0, 0, 0.2811737060546875, 73.95,21) ">
<use xlink:href="#Layer0_1_MEMBER_5_FILL"/>

<use xlink:href="#Layer0_1_MEMBER_5_1_STROKES" transform="matrix( 3.5565185546875, 0, 0, 3.5565185546875, -263,-74.65) "/>
</g>

<g transform="matrix( 0.2811737060546875, 0, 0, 0.2811737060546875, 53.5,23.2) ">
<use xlink:href="#Layer0_1_MEMBER_6_FILL"/>

<use xlink:href="#Layer0_1_MEMBER_6_1_STROKES" transform="matrix( 3.5565185546875, 0, 0, 3.5565185546875, -190.25,-82.5) "/>
</g>

<g transform="matrix( 0.2811737060546875, 0, 0, 0.2811737060546875, 80.9,23.2) ">
<use xlink:href="#Layer0_1_MEMBER_7_FILL"/>

<use xlink:href="#Layer0_1_MEMBER_7_1_STROKES" transform="matrix( 3.5565185546875, 0, 0, 3.5565185546875, -287.7,-82.5) "/>
</g>

<g transform="matrix( 0.124969482421875, 0, 0, 0.124969482421875, 79.05,49) ">
<use xlink:href="#Layer0_1_MEMBER_8_FILL"/>

<use xlink:href="#Layer0_1_MEMBER_8_1_STROKES" transform="matrix( 8.001953125, 0, 0, 8.001953125, -632.55,-392.05) "/>
</g>

<g transform="matrix( 0.124969482421875, 0, 0, 0.124969482421875, 92,49) ">
<use xlink:href="#Layer0_1_MEMBER_9_FILL"/>

<use xlink:href="#Layer0_1_MEMBER_9_1_STROKES" transform="matrix( 8.001953125, 0, 0, 8.001953125, -736.15,-392.05) "/>
</g>

<g transform="matrix( 0.4887542724609375, 0, 0, 0.4887542724609375, -321.4,-12.3) ">
<use xlink:href="#Layer0_1_MEMBER_10_FILL"/>
</g>

<g transform="matrix( 0.0974273681640625, 0, 0, 0.0974273681640625, 74.55,98.45) ">
<use xlink:href="#Layer0_1_MEMBER_11_FILL"/>
</g>

<g transform="matrix( 0.0974273681640625, 0, 0, 0.0974273681640625, 74.55,98.45) ">
<use xlink:href="#Layer0_1_MEMBER_12_FILL"/>
</g>

<g transform="matrix( 0.0974273681640625, 0, 0, 0.0974273681640625, 74.55,98.45) ">
<use xlink:href="#Layer0_1_MEMBER_13_FILL"/>
</g>
</svg>
