
<svg xmlns="http://www.w3.org/2000/svg" version="1.1" xmlns:xlink="http://www.w3.org/1999/xlink" preserveAspectRatio="none" x="0px" y="0px" width="200px" height="200px" viewBox="0 0 200 200">
<defs>
<linearGradient id="Gradient_1" gradientUnits="userSpaceOnUse" x1="27.549999999999997" y1="157.2" x2="57.55" y2="157.2" spreadMethod="pad">
<stop  offset="41.568627450980394%" stop-color="#250100"/>

<stop  offset="44.31372549019608%" stop-color="#533C05"/>
</linearGradient>

<linearGradient id="Gradient_2" gradientUnits="userSpaceOnUse" x1="593.4375" y1="72.4" x2="559.8625" y2="72.4" spreadMethod="pad">
<stop  offset="49.80392156862745%" stop-color="#250100"/>

<stop  offset="50.98039215686274%" stop-color="#533C05"/>
</linearGradient>

<g id="Layer1_0_FILL">
<path fill="#FFFFFF" stroke="none" d="
M 644.35 53.5
L 632 53.5 632 120.55 644.35 120.55 644.35 53.5
M 601.6 53.65
L 589.25 53.65 589.25 120.7 601.6 120.7 601.6 53.65 Z"/>

<path fill="#CB6F00" stroke="none" d="
M 576.7 60.15
Q 576.7 54.7 572.35 54.7
L 560.5 54.7
Q 556.15 54.7 556.15 60.15
L 556.15 110.25
Q 555.55 117.4 559.4 119
L 567.75 122.75
Q 571.9 124.7 574.2 125.8 576.55 126.85 576.7 126.7
L 576.7 60.15
M 661.2 54.1
Q 656.85 54.1 656.85 59.55
L 656.85 126.1 656.9 126.15 656.95 126.15
Q 657.35 126.1 659.35 125.2 661.65 124.1 665.8 122.15
L 674.15 118.4
Q 678 116.8 677.4 109.65
L 677.4 59.55
Q 677.4 54.1 673.05 54.1
L 661.2 54.1 Z"/>
</g>

<g id="Layer1_0_MEMBER_0_FILL">
<path fill="#473405" stroke="none" d="
M 109.25 228.6
L 109.25 242.45
Q 109.25 250.95 117.75 250.95
L 185.65 250.95
Q 194.15 250.95 194.15 242.45
L 194.15 228.6
Q 194.15 220.1 185.65 220.1
L 117.75 220.1
Q 109.25 220.1 109.25 228.6 Z"/>
</g>

<g id="Layer1_0_MEMBER_1_FILL">
<path fill="#BA5500" stroke="none" d="
M 121.3 173.95
Q 119.1 171.75 115.95 171.75 112.8 171.75 110.6 173.95 108.4 176.15 108.4 179.3 108.4 182.45 110.6 184.65 112.8 186.85 115.95 186.85 119.1 186.85 121.3 184.65 123.5 182.45 123.5 179.3 123.5 176.15 121.3 173.95 Z"/>
</g>

<g id="Layer1_0_MEMBER_2_FILL">
<path fill="#BA5500" stroke="none" d="
M 121.3 173.95
Q 119.1 171.75 115.95 171.75 112.8 171.75 110.6 173.95 108.4 176.15 108.4 179.3 108.4 182.45 110.6 184.65 112.8 186.85 115.95 186.85 119.1 186.85 121.3 184.65 123.5 182.45 123.5 179.3 123.5 176.15 121.3 173.95 Z"/>
</g>

<g id="Layer1_0_MEMBER_3_FILL">
<path fill="url(#Gradient_1)" stroke="none" d="
M 28.1 156.65
L 28.1 165 61.3 165 61.3 156.65 28.1 156.65 Z"/>
</g>

<g id="Layer1_0_MEMBER_4_FILL">
<path fill="#BA5500" stroke="none" d="
M 125 165
L 112.45 165 112.45 227.1 125 227.1 125 165 Z"/>
</g>

<g id="Layer1_0_MEMBER_5_FILL">
<path fill="#BA5500" stroke="none" d="
M 40.65 165
L 28.1 165 28.1 227.1 40.65 227.1 40.65 165 Z"/>
</g>

<g id="Layer1_0_MEMBER_6_FILL">
<path fill="#473405" stroke="none" d="
M 167.75 156.9
L 136.9 156.9 136.9 225 167.75 225 167.75 156.9 Z"/>
</g>

<g id="Layer1_0_MEMBER_7_FILL">
<path fill="#E3A30A" stroke="none" d="
M 109.25 228.6
L 109.25 242.45
Q 109.25 250.95 117.75 250.95
L 185.65 250.95
Q 194.15 250.95 194.15 242.45
L 194.15 228.6
Q 194.15 220.1 185.65 220.1
L 117.75 220.1
Q 109.25 220.1 109.25 228.6 Z"/>
</g>

<g id="Layer1_0_MEMBER_8_FILL">
<path fill="#EDBD13" stroke="none" d="
M 109.25 228.6
L 109.25 242.45
Q 109.25 250.95 117.75 250.95
L 185.65 250.95
Q 194.15 250.95 194.15 242.45
L 194.15 228.6
Q 194.15 220.1 185.65 220.1
L 117.75 220.1
Q 109.25 220.1 109.25 228.6 Z"/>
</g>

<g id="Layer1_0_MEMBER_9_FILL">
<path fill="#FDFF26" stroke="none" d="
M 40.9 47.6
Q 41.95 46.4 41.7 44.7
L 39.65 32.65
Q 39.5 31.8 40.1 31.25
L 48.85 22.7
Q 50.4 21.15 49.75 19.05 49 16.9 46.85 16.6
L 34.75 14.85
Q 33.95 14.7 33.55 14
L 28.15 3.05
Q 27.2 1.05 24.95 1.05 22.7 1.05 21.75 3.05
L 16.35 14
Q 15.9 14.75 15.15 14.85
L 3.05 16.6
Q 0.9 16.9 0.15 19.05 -0.45 21.2 1.05 22.7
L 9.8 31.25
Q 10.4 31.8 10.25 32.65
L 8.2 44.7
Q 7.9 46.35 9 47.6 9.8 48.55 11.05 48.8 12.3 49.05 13.4 48.45
L 24.2 42.75
Q 24.95 42.4 25.7 42.75
L 36.5 48.45
Q 37.25 48.9 38.15 48.9 39.75 48.9 40.9 47.6 Z"/>
</g>

<g id="Layer1_0_MEMBER_10_FILL">
<path fill="#FDFF26" stroke="none" d="
M 40.9 47.6
Q 41.95 46.4 41.7 44.7
L 39.65 32.65
Q 39.5 31.8 40.1 31.25
L 48.85 22.7
Q 50.4 21.15 49.75 19.05 49 16.9 46.85 16.6
L 34.75 14.85
Q 33.95 14.7 33.55 14
L 28.15 3.05
Q 27.2 1.05 24.95 1.05 22.7 1.05 21.75 3.05
L 16.35 14
Q 15.9 14.75 15.15 14.85
L 3.05 16.6
Q 0.9 16.9 0.15 19.05 -0.45 21.2 1.05 22.7
L 9.8 31.25
Q 10.4 31.8 10.25 32.65
L 8.2 44.7
Q 7.9 46.35 9 47.6 9.8 48.55 11.05 48.8 12.3 49.05 13.4 48.45
L 24.2 42.75
Q 24.95 42.4 25.7 42.75
L 36.5 48.45
Q 37.25 48.9 38.15 48.9 39.75 48.9 40.9 47.6 Z"/>
</g>

<g id="Layer1_0_MEMBER_11_FILL">
<path fill="#FDFF26" stroke="none" d="
M 40.9 47.6
Q 41.95 46.4 41.7 44.7
L 39.65 32.65
Q 39.5 31.8 40.1 31.25
L 48.85 22.7
Q 50.4 21.15 49.75 19.05 49 16.9 46.85 16.6
L 34.75 14.85
Q 33.95 14.7 33.55 14
L 28.15 3.05
Q 27.2 1.05 24.95 1.05 22.7 1.05 21.75 3.05
L 16.35 14
Q 15.9 14.75 15.15 14.85
L 3.05 16.6
Q 0.9 16.9 0.15 19.05 -0.45 21.2 1.05 22.7
L 9.8 31.25
Q 10.4 31.8 10.25 32.65
L 8.2 44.7
Q 7.9 46.35 9 47.6 9.8 48.55 11.05 48.8 12.3 49.05 13.4 48.45
L 24.2 42.75
Q 24.95 42.4 25.7 42.75
L 36.5 48.45
Q 37.25 48.9 38.15 48.9 39.75 48.9 40.9 47.6 Z"/>
</g>

<g id="Layer1_0_MEMBER_12_FILL">
<path fill="url(#Gradient_2)" stroke="none" d="
M 589.2 78.75
L 589.2 70.4 556 70.4 556 78.75 589.2 78.75 Z"/>
</g>

<g id="Layer1_0_MEMBER_13_FILL">
<path fill="#E3A209" stroke="none" d="
M 221.85 136.5
Q 218.7 133.35 214.2 133.35
L 90.8 133.35
Q 86.3 133.35 83.15 136.5 80 139.65 80 144.15
L 80 144.2
Q 80 148.7 83.15 151.85 86.3 155 90.8 155
L 214.2 155
Q 218.7 155 221.85 151.85 225 148.7 225 144.2
L 225 144.15
Q 225 139.65 221.85 136.5 Z"/>
</g>

<g id="Layer1_0_MEMBER_14_FILL">
<path fill="#EDBE13" stroke="none" d="
M 221.85 136.5
Q 218.7 133.35 214.2 133.35
L 90.8 133.35
Q 86.3 133.35 83.15 136.5 80 139.65 80 144.15
L 80 144.2
Q 80 148.7 83.15 151.85 86.3 155 90.8 155
L 214.2 155
Q 218.7 155 221.85 151.85 225 148.7 225 144.2
L 225 144.15
Q 225 139.65 221.85 136.5 Z"/>
</g>

<g id="Layer1_0_MEMBER_15_FILL">
<path fill="#FDFF27" stroke="none" d="
M 650.8 125.45
Q 651.7 124.55 651.7 123.35 651.7 122.15 650.8 121.25 649.9 120.4 648.7 120.4 647.5 120.4 646.6 121.25 645.75 122.15 645.75 123.35 645.75 124.55 646.6 125.45 647.5 126.35 648.7 126.35 649.9 126.35 650.8 125.45 Z"/>
</g>

<g id="Layer1_0_MEMBER_16_MEMBER_0_FILL">
<path fill="#FDFF27" stroke="none" d="
M 634.95 38.9
Q 636.1 37.8 636.1 36.25 636.1 34.7 634.95 33.55 633.85 32.45 632.3 32.45 630.75 32.45 629.6 33.55 628.5 34.7 628.5 36.25 628.5 37.8 629.6 38.9 630.75 40.05 632.3 40.05 633.85 40.05 634.95 38.9 Z"/>
</g>

<g id="Layer1_0_MEMBER_16_MEMBER_1_FILL">
<path fill="#FDFF27" stroke="none" d="
M 215.4 137.4
Q 214.65 136.65 213.6 136.65
L 178.95 136.65
Q 177.9 136.65 177.1 137.4 176.35 138.2 176.35 139.25
L 176.35 139.3
Q 176.35 140.35 177.1 141.1 177.9 141.9 178.95 141.9
L 213.6 141.9
Q 214.65 141.9 215.4 141.1 216.2 140.35 216.2 139.3
L 216.2 139.25
Q 216.2 138.2 215.4 137.4 Z"/>
</g>

<g id="Layer1_0_MEMBER_17_FILL">
<path fill="#250100" stroke="none" d="
M 28.1 156.65
L 28.1 165 61.3 165 61.3 156.65 28.1 156.65 Z"/>
</g>

<g id="Layer1_0_MEMBER_18_FILL">
<path fill="#EDBD13" stroke="none" d="
M 40.9 47.6
Q 41.95 46.4 41.7 44.7
L 39.65 32.65
Q 39.5 31.8 40.1 31.25
L 48.85 22.7
Q 50.4 21.15 49.75 19.05 49 16.9 46.85 16.6
L 34.75 14.85
Q 33.95 14.7 33.55 14
L 28.15 3.05
Q 27.2 1.05 24.95 1.05 22.7 1.05 21.75 3.05
L 16.35 14
Q 15.9 14.75 15.15 14.85
L 3.05 16.6
Q 0.9 16.9 0.15 19.05 -0.45 21.2 1.05 22.7
L 9.8 31.25
Q 10.4 31.8 10.25 32.65
L 8.2 44.7
Q 7.9 46.35 9 47.6 9.8 48.55 11.05 48.8 12.3 49.05 13.4 48.45
L 24.2 42.75
Q 24.95 42.4 25.7 42.75
L 36.5 48.45
Q 37.25 48.9 38.15 48.9 39.75 48.9 40.9 47.6 Z"/>
</g>

<g id="Layer1_0_MEMBER_19_FILL">
<path fill="#EDBD13" stroke="none" d="
M 40.9 47.6
Q 41.95 46.4 41.7 44.7
L 39.65 32.65
Q 39.5 31.8 40.1 31.25
L 48.85 22.7
Q 50.4 21.15 49.75 19.05 49 16.9 46.85 16.6
L 34.75 14.85
Q 33.95 14.7 33.55 14
L 28.15 3.05
Q 27.2 1.05 24.95 1.05 22.7 1.05 21.75 3.05
L 16.35 14
Q 15.9 14.75 15.15 14.85
L 3.05 16.6
Q 0.9 16.9 0.15 19.05 -0.45 21.2 1.05 22.7
L 9.8 31.25
Q 10.4 31.8 10.25 32.65
L 8.2 44.7
Q 7.9 46.35 9 47.6 9.8 48.55 11.05 48.8 12.3 49.05 13.4 48.45
L 24.2 42.75
Q 24.95 42.4 25.7 42.75
L 36.5 48.45
Q 37.25 48.9 38.15 48.9 39.75 48.9 40.9 47.6 Z"/>
</g>

<g id="Layer1_0_MEMBER_20_FILL">
<path fill="#EDBD13" stroke="none" d="
M 40.9 47.6
Q 41.95 46.4 41.7 44.7
L 39.65 32.65
Q 39.5 31.8 40.1 31.25
L 48.85 22.7
Q 50.4 21.15 49.75 19.05 49 16.9 46.85 16.6
L 34.75 14.85
Q 33.95 14.7 33.55 14
L 28.15 3.05
Q 27.2 1.05 24.95 1.05 22.7 1.05 21.75 3.05
L 16.35 14
Q 15.9 14.75 15.15 14.85
L 3.05 16.6
Q 0.9 16.9 0.15 19.05 -0.45 21.2 1.05 22.7
L 9.8 31.25
Q 10.4 31.8 10.25 32.65
L 8.2 44.7
Q 7.9 46.35 9 47.6 9.8 48.55 11.05 48.8 12.3 49.05 13.4 48.45
L 24.2 42.75
Q 24.95 42.4 25.7 42.75
L 36.5 48.45
Q 37.25 48.9 38.15 48.9 39.75 48.9 40.9 47.6 Z"/>
</g>

<g id="Layer1_0_MEMBER_21_FILL">
<path fill="#E3A307" stroke="none" d="
M 142.5 265
Q 104.2 265 77.1 292.1 50 319.2 50 357.5 50 395.8 77.1 422.9 104.2 450 142.5 450 180.8 450 207.9 422.9 235 395.8 235 357.5 235 319.2 207.9 292.1 180.8 265 142.5 265 Z"/>
</g>

<g id="Layer1_0_MEMBER_22_FILL">
<path fill="#EDBD13" stroke="none" d="
M 142.5 265
Q 104.2 265 77.1 292.1 50 319.2 50 357.5 50 395.8 77.1 422.9 104.2 450 142.5 450 180.8 450 207.9 422.9 235 395.8 235 357.5 235 319.2 207.9 292.1 180.8 265 142.5 265 Z"/>
</g>

<g id="Layer1_0_MEMBER_23_FILL">
<path fill="#CA6E00" stroke="none" d="
M 142.5 265
Q 104.2 265 77.1 292.1 50 319.2 50 357.5 50 395.8 77.1 422.9 104.2 450 142.5 450 180.8 450 207.9 422.9 235 395.8 235 357.5 235 319.2 207.9 292.1 180.8 265 142.5 265 Z"/>
</g>

<g id="Layer1_0_MEMBER_24_FILL">
<path fill="#D78800" stroke="none" d="
M 695.85 276.25
Q 695.85 246.6 673.35 225.6 650.8 204.6 619 204.6 587.2 204.6 564.7 225.6 542.2 246.6 542.2 276.25 542.2 305.9 564.7 326.9 587.2 347.9 619 347.9 650.8 347.9 673.35 326.9 695.85 305.9 695.85 276.25 Z"/>
</g>

<g id="Layer1_0_MEMBER_25_FILL">
<path fill="#FDFF27" fill-opacity="0.4980392156862745" stroke="none" d="
M 195 280
Q 188.8 280 184.4 284.4 180 288.8 180 295 180 301.2 184.4 305.6 188.8 310 195 310 201.2 310 205.6 305.6 210 301.2 210 295 210 288.8 205.6 284.4 201.2 280 195 280 Z"/>
</g>

<g id="Layer1_0_MEMBER_26_FILL">
<path fill="#EDBD13" stroke="none" d="
M 121.3 173.95
Q 119.1 171.75 115.95 171.75 112.8 171.75 110.6 173.95 108.4 176.15 108.4 179.3 108.4 182.45 110.6 184.65 112.8 186.85 115.95 186.85 119.1 186.85 121.3 184.65 123.5 182.45 123.5 179.3 123.5 176.15 121.3 173.95 Z"/>
</g>

<g id="Layer1_0_MEMBER_27_FILL">
<path fill="#EDBD13" stroke="none" d="
M 121.3 173.95
Q 119.1 171.75 115.95 171.75 112.8 171.75 110.6 173.95 108.4 176.15 108.4 179.3 108.4 182.45 110.6 184.65 112.8 186.85 115.95 186.85 119.1 186.85 121.3 184.65 123.5 182.45 123.5 179.3 123.5 176.15 121.3 173.95 Z"/>
</g>

<g id="Layer1_0_MEMBER_28_FILL">
<path fill="#EDBD13" stroke="none" d="
M 121.3 173.95
Q 119.1 171.75 115.95 171.75 112.8 171.75 110.6 173.95 108.4 176.15 108.4 179.3 108.4 182.45 110.6 184.65 112.8 186.85 115.95 186.85 119.1 186.85 121.3 184.65 123.5 182.45 123.5 179.3 123.5 176.15 121.3 173.95 Z"/>
</g>

<g id="Layer1_0_MEMBER_29_FILL">
<path fill="#EDBD13" stroke="none" d="
M 121.3 173.95
Q 119.1 171.75 115.95 171.75 112.8 171.75 110.6 173.95 108.4 176.15 108.4 179.3 108.4 182.45 110.6 184.65 112.8 186.85 115.95 186.85 119.1 186.85 121.3 184.65 123.5 182.45 123.5 179.3 123.5 176.15 121.3 173.95 Z"/>
</g>

<g id="Layer1_0_MEMBER_30_FILL">
<path fill="#533C05" stroke="none" d="
M 121.3 173.95
Q 119.1 171.75 115.95 171.75 112.8 171.75 110.6 173.95 108.4 176.15 108.4 179.3 108.4 182.45 110.6 184.65 112.8 186.85 115.95 186.85 119.1 186.85 121.3 184.65 123.5 182.45 123.5 179.3 123.5 176.15 121.3 173.95 Z"/>
</g>

<g id="Layer1_0_MEMBER_31_FILL">
<path fill="#533C05" stroke="none" d="
M 121.3 173.95
Q 119.1 171.75 115.95 171.75 112.8 171.75 110.6 173.95 108.4 176.15 108.4 179.3 108.4 182.45 110.6 184.65 112.8 186.85 115.95 186.85 119.1 186.85 121.3 184.65 123.5 182.45 123.5 179.3 123.5 176.15 121.3 173.95 Z"/>
</g>

<g id="Layer1_0_MEMBER_32_FILL">
<path fill="#C86900" stroke="none" d="
M 460 254
Q 454.1 252.25 449.75 259.65 440.5564453125 278.360546875 428.3 263.35
L 414.05 242.7
Q 409.65 236.7 402.15 236.75 394.55 236.8 390.5 243.05
L 374.85 264.7
Q 370.95 271 365.3 269.85 361.2 269 358.1 265.25 357.45 264.45 355.55 261.65 353.5 258.6 352.85 257.75 349.65 253.25 345.2 254.15 340.6 255.1 341.9 261.4 344.25 272.85 346.95 283.05 349.85 293.95 350.8 295.95 352.8654296875 300.1041015625 360 300.95 370.6099609375 303.7099609375 399.75 304.4 428.8966796875 305.1466796875 444.9 300.95 451.4 300.05 453.9 294.95 455.05 292.65 456.7 283.6
L 461.15 264.95
Q 463.15 259.25 462.25 256.4 461.7 254.55 460 254 Z"/>
</g>

<g id="Layer1_0_MEMBER_33_FILL">
<path fill="#E7970D" stroke="none" d="
M 460 254
Q 454.1 252.25 449.75 259.65 440.5564453125 278.360546875 428.3 263.35
L 414.05 242.7
Q 409.65 236.7 402.15 236.75 394.55 236.8 390.5 243.05
L 374.85 264.7
Q 370.95 271 365.3 269.85 361.2 269 358.1 265.25 357.45 264.45 355.55 261.65 353.5 258.6 352.85 257.75 349.65 253.25 345.2 254.15 340.6 255.1 341.9 261.4 344.25 272.85 346.95 283.05 349.85 293.95 350.8 295.95 352.8654296875 300.1041015625 360 300.95 370.6099609375 303.7099609375 399.75 304.4 428.8966796875 305.1466796875 444.9 300.95 451.4 300.05 453.9 294.95 455.05 292.65 456.7 283.6
L 461.15 264.95
Q 463.15 259.25 462.25 256.4 461.7 254.55 460 254 Z"/>
</g>

<g id="Layer1_0_MEMBER_34_FILL">
<path fill="#FDE01B" stroke="none" d="
M 460 254
Q 454.1 252.25 449.75 259.65 440.5564453125 278.360546875 428.3 263.35
L 414.05 242.7
Q 409.65 236.7 402.15 236.75 394.55 236.8 390.5 243.05
L 374.85 264.7
Q 370.95 271 365.3 269.85 361.2 269 358.1 265.25 357.45 264.45 355.55 261.65 353.5 258.6 352.85 257.75 349.65 253.25 345.2 254.15 340.6 255.1 341.9 261.4 344.25 272.85 346.95 283.05 349.85 293.95 350.8 295.95 352.8654296875 300.1041015625 360 300.95 370.6099609375 303.7099609375 399.75 304.4 428.8966796875 305.1466796875 444.9 300.95 451.4 300.05 453.9 294.95 455.05 292.65 456.7 283.6
L 461.15 264.95
Q 463.15 259.25 462.25 256.4 461.7 254.55 460 254 Z"/>
</g>

<g id="Layer1_0_MEMBER_35_FILL">
<path fill="#FFFFFF" fill-opacity="0.5176470588235295" stroke="none" d="
M 590.75 264.8
Q 597.18125 257.2375 601.65 250.85 606.11875 244.4625 607.8 241.4
L 590.75 264.8 Z"/>
</g>

<g id="Layer1_0_MEMBER_36_FILL">
<path fill="#E7970D" fill-opacity="0.4" stroke="none" d="
M 672.8 295.6
Q 674 292.75 675 286.7 676.65 280.9 678.2 273.45 679.55 266.85 679.4 266.75 680.45 264.1 680.8 261.45 681.6 256.25 678 256.15 676.6677734375 288.3349609375 650.25 298.35 623.8822265625 308.365234375 571.35 300.45 579.35 305.05 607.65 306.15 628.35 307 643.05 306 650.9 305.5 657.35 304.2 662.75 303.1 668.55 301.2 671.35 299.1 672.8 295.6 Z"/>
</g>

<path id="Layer1_0_1_STROKES" stroke="#0066FF" stroke-opacity="0" stroke-width="0.1" stroke-linejoin="round" stroke-linecap="round" fill="none" d="
M 118.19752502441403 56.1647933959961
L 118.1735794067383 56.14084777832031 118.1735794067383 24.269230651855466
Q 118.1735794067383 21.659158325195314 120.25684814453129 21.659158325195314
L 125.93195953369136 21.659158325195314
Q 128.01522827148435 21.659158325195314 128.01522827148435 24.269230651855466
L 128.01522827148435 48.26273956298829
Q 128.30257568359374 51.686962890625 126.45876312255857 52.453222656250006
L 122.45984497070307 54.2491439819336
Q 120.47235870361325 55.18302307128906 119.37086029052736 55.70982666015625 118.41303558349611 56.14084777832031 118.22147064208988 56.1647933959961
L 118.19752502441403 56.1647933959961 Z"/>

<path id="Layer1_0_2_STROKES" stroke="#0066FF" stroke-width="0.1" stroke-linejoin="round" stroke-linecap="round" fill="none" d="
M 118.22147064208988 56.42819519042969
L 118.22147064208988 56.1647933959961
M 118.19752502441403 56.1647933959961
Q 116.76078796386716 56.42819519042969 118.22147064208988 56.42819519042969"/>

<path id="Layer1_0_MEMBER_0_1_STROKES" stroke="#FFFFFF" stroke-opacity="0" stroke-width="1" stroke-linejoin="round" stroke-linecap="round" fill="none" d="
M 88.00919647216797 68.41106567382812
L 109.37921295166015 68.41106567382812
Q 112.05439910888671 68.41106567382812 112.05439910888671 71.04915771484374
L 112.05439910888671 75.34769592285156
Q 112.05439910888671 77.98578796386718 109.37921295166015 77.98578796386718
L 88.00919647216797 77.98578796386718
Q 85.33401031494141 77.98578796386718 85.33401031494141 75.34769592285156
L 85.33401031494141 71.04915771484374
Q 85.33401031494141 68.41106567382812 88.00919647216797 68.41106567382812 Z"/>

<path id="Layer1_0_MEMBER_1_1_STROKES" stroke="#0066FF" stroke-opacity="0" stroke-width="0.1" stroke-linejoin="round" stroke-linecap="round" fill="none" d="
M 116.85496978759765 71.89600067138673
Q 116.85496978759765 73.87412338256834 115.47342376708984 75.25566940307617 114.09187774658203 76.63721542358398 112.11375503540039 76.63721542358398 110.13563232421875 76.63721542358398 108.75408630371093 75.25566940307617 107.37254028320312 73.87412338256834 107.37254028320312 71.89600067138673 107.37254028320312 69.91787796020508 108.75408630371093 68.53633193969725 110.13563232421875 67.15478591918945 112.11375503540039 67.15478591918945 114.09187774658203 67.15478591918945 115.47342376708984 68.53633193969725 116.85496978759765 69.91787796020508 116.85496978759765 71.89600067138673 Z"/>

<path id="Layer1_0_MEMBER_2_1_STROKES" stroke="#0066FF" stroke-opacity="0" stroke-width="0.1" stroke-linejoin="round" stroke-linecap="round" fill="none" d="
M 89.95496978759766 71.89600067138673
Q 89.95496978759766 73.87412338256834 88.57342376708985 75.25566940307617 87.19187774658204 76.63721542358398 85.2137550354004 76.63721542358398 83.23563232421876 76.63721542358398 81.85408630371094 75.25566940307617 80.47254028320313 73.87412338256834 80.47254028320313 71.89600067138673 80.47254028320313 69.91787796020508 81.85408630371094 68.53633193969725 83.23563232421876 67.15478591918945 85.2137550354004 67.15478591918945 87.19187774658204 67.15478591918945 88.57342376708985 68.53633193969725 89.95496978759766 69.91787796020508 89.95496978759766 71.89600067138673 Z"/>

<path id="Layer1_0_MEMBER_3_1_STROKES" stroke="#0066FF" stroke-opacity="0" stroke-width="0.1" stroke-linejoin="round" stroke-linecap="round" fill="none" d="
M 112.15743713378907 21.521620178222662
L 128.0573272705078 21.521620178222662 128.0573272705078 25.520538330078125 112.15743713378907 25.520538330078125 112.15743713378907 21.521620178222662 Z"/>

<path id="Layer1_0_MEMBER_4_1_STROKES" stroke="#0066FF" stroke-opacity="0.00784313725490196" stroke-width="0.1" stroke-linejoin="round" stroke-linecap="round" fill="none" d="
M 79.75369415283203 25.520538330078125
L 85.76404418945313 25.520538330078125 85.76404418945313 55.26099548339843 79.75369415283203 55.26099548339843 79.75369415283203 25.520538330078125 Z"/>

<path id="Layer1_0_MEMBER_5_1_STROKES" stroke="#0066FF" stroke-opacity="0" stroke-width="0.1" stroke-linejoin="round" stroke-linecap="round" fill="none" d="
M 112.15743713378907 25.520538330078125
L 118.16778717041015 25.520538330078125 118.16778717041015 55.26099548339843 112.15743713378907 55.26099548339843 112.15743713378907 25.520538330078125 Z"/>

<path id="Layer1_0_MEMBER_6_1_STROKES" stroke="#0066FF" stroke-opacity="0" stroke-width="0.1" stroke-linejoin="round" stroke-linecap="round" fill="none" d="
M 91.51310119628907 21.34134826660157
L 106.2875473022461 21.34134826660157 106.2875473022461 53.95527954101563 91.51310119628907 53.95527954101563 91.51310119628907 21.34134826660157 Z"/>

<path id="Layer1_0_MEMBER_7_1_STROKES" stroke="#FFFFFF" stroke-opacity="0" stroke-width="1" stroke-linejoin="round" stroke-linecap="round" fill="none" d="
M 82.63314895629883 54.466632080078114
L 114.82907943725586 54.466632080078114
Q 118.85949783325195 54.466632080078114 118.85949783325195 58.44114990234374
L 118.85949783325195 64.91727600097656
Q 118.85949783325195 68.89179382324218 114.82907943725586 68.89179382324218
L 82.63314895629883 68.89179382324218
Q 78.60273056030273 68.89179382324218 78.60273056030273 64.91727600097656
L 78.60273056030273 58.44114990234374
Q 78.60273056030273 54.466632080078114 82.63314895629883 54.466632080078114 Z"/>

<path id="Layer1_0_MEMBER_8_1_STROKES" stroke="#FFFFFF" stroke-opacity="0" stroke-width="1" stroke-linejoin="round" stroke-linecap="round" fill="none" d="
M 82.63314895629883 52.26663208007812
L 114.82907943725586 52.26663208007812
Q 118.85949783325195 52.26663208007812 118.85949783325195 56.24114990234374
L 118.85949783325195 62.71727600097656
Q 118.85949783325195 66.6917938232422 114.82907943725586 66.6917938232422
L 82.63314895629883 66.6917938232422
Q 78.60273056030273 66.6917938232422 78.60273056030273 62.71727600097656
L 78.60273056030273 56.24114990234374
Q 78.60273056030273 52.26663208007812 82.63314895629883 52.26663208007812 Z"/>

<path id="Layer1_0_MEMBER_12_1_STROKES" stroke="#0066FF" stroke-opacity="0" stroke-width="0.1" stroke-linejoin="round" stroke-linecap="round" fill="none" d="
M 85.77515869140629 21.565429687500007
L 69.8752685546875 21.565429687500007 69.8752685546875 25.56434783935547 85.77515869140629 25.56434783935547 85.77515869140629 21.565429687500007 Z"/>

<path id="Layer1_0_MEMBER_13_1_STROKES" stroke="#0066FF" stroke-opacity="0" stroke-width="0.1" stroke-linejoin="round" stroke-linecap="round" fill="none" d="
M 69.38524169921874 11.312962341308591
L 128.48302612304687 11.312962341308591
Q 130.63813171386718 11.312962341308591 132.1467056274414 12.821536254882815 133.65527954101563 14.33011016845704 133.65527954101563 16.485215759277352
L 133.65527954101563 16.509161376953116
Q 133.65527954101563 18.66426696777343 132.1467056274414 20.172840881347653 130.63813171386718 21.681414794921878 128.48302612304687 21.681414794921878
L 69.38524169921874 21.681414794921878
Q 67.23013610839843 21.681414794921878 65.72156219482423 20.172840881347653 64.21298828125 18.66426696777343 64.21298828125 16.509161376953116
L 64.21298828125 16.485215759277352
Q 64.21298828125 14.33011016845704 65.72156219482423 12.821536254882815 67.23013610839843 11.312962341308591 69.38524169921874 11.312962341308591 Z"/>

<path id="Layer1_0_MEMBER_14_1_STROKES" stroke="#0066FF" stroke-opacity="0" stroke-width="0.1" stroke-linejoin="round" stroke-linecap="round" fill="none" d="
M 69.38524169921874 10.362962341308588
L 128.48302612304687 10.362962341308588
Q 130.63813171386718 10.362962341308588 132.1467056274414 11.871536254882812 133.65527954101563 13.380110168457037 133.65527954101563 15.53521575927735
L 133.65527954101563 15.559161376953114
Q 133.65527954101563 17.714266967773426 132.1467056274414 19.22284088134765 130.63813171386718 20.731414794921875 128.48302612304687 20.731414794921875
L 69.38524169921874 20.731414794921875
Q 67.23013610839843 20.731414794921875 65.72156219482423 19.22284088134765 64.21298828125 17.714266967773426 64.21298828125 15.559161376953114
L 64.21298828125 15.53521575927735
Q 64.21298828125 13.380110168457037 65.72156219482423 11.871536254882812 67.23013610839843 10.362962341308588 69.38524169921874 10.362962341308588 Z"/>

<path id="Layer1_0_MEMBER_15_1_STROKES" stroke="#0066FF" stroke-opacity="0" stroke-width="0.1" stroke-linejoin="round" stroke-linecap="round" fill="none" d="
M 115.70718078613285 54.82383880615234
Q 115.70718078613285 55.39853363037109 115.2761596679687 55.82955474853516 114.84513854980466 56.26057586669921 114.27044372558598 56.26057586669921 113.69574890136718 56.26057586669921 113.26472778320314 55.82955474853516 112.85765228271484 55.39853363037109 112.85765228271484 54.82383880615234 112.85765228271484 54.2491439819336 113.26472778320314 53.81812286376953 113.69574890136718 53.411047363281256 114.27044372558598 53.411047363281256 114.84513854980466 53.411047363281256 115.2761596679687 53.81812286376953 115.70718078613285 54.2491439819336 115.70718078613285 54.82383880615234 Z"/>

<path id="Layer1_0_MEMBER_16_MEMBER_0_1_STROKES" stroke="#0066FF" stroke-opacity="0" stroke-width="0.1" stroke-linejoin="round" stroke-linecap="round" fill="none" d="
M 108.23614807128908 13.110572814941406
Q 108.23614807128908 13.852886962890622 107.68539886474613 14.379690551757811 107.15859527587892 14.930439758300778 106.41628112792964 14.930439758300778 105.67396697998046 14.930439758300778 105.12321777343752 14.379690551757811 104.5964141845703 13.852886962890622 104.5964141845703 13.110572814941406 104.5964141845703 12.36825866699219 105.12321777343752 11.817509460449216 105.67396697998046 11.290705871582032 106.41628112792964 11.290705871582032 107.15859527587892 11.290705871582032 107.68539886474613 11.817509460449216 108.23614807128908 12.36825866699219 108.23614807128908 13.110572814941406 Z"/>

<path id="Layer1_0_MEMBER_16_MEMBER_1_1_STROKES" stroke="#0066FF" stroke-opacity="0" stroke-width="0.1" stroke-linejoin="round" stroke-linecap="round" fill="none" d="
M 111.10136566162109 11.943373107910162
L 127.6956787109375 11.943373107910162
Q 128.19853668212892 11.943373107910162 128.55772094726564 12.30255737304688 128.94085083007812 12.685687255859364 128.94085083007812 13.188545227050781
L 128.94085083007812 13.212490844726574
Q 128.94085083007812 13.715348815917963 128.55772094726564 14.074533081054682 128.19853668212892 14.457662963867193 127.6956787109375 14.457662963867193
L 111.10136566162109 14.457662963867193
Q 110.5985076904297 14.457662963867193 110.21537780761719 14.074533081054682 109.85619354248047 13.715348815917963 109.85619354248047 13.212490844726574
L 109.85619354248047 13.188545227050781
Q 109.85619354248047 12.685687255859364 110.21537780761719 12.30255737304688 110.5985076904297 11.943373107910162 111.10136566162109 11.943373107910162 Z"/>

<path id="Layer1_0_MEMBER_17_1_STROKES" stroke="#0066FF" stroke-opacity="0" stroke-width="0.1" stroke-linejoin="round" stroke-linecap="round" fill="none" d="
M 106.26416015625 21.67162017822266
L 91.51220703125 21.67162017822266 91.51220703125 25.670538330078124 106.26416015625 25.670538330078124 106.26416015625 21.67162017822266 Z"/>

<path id="Layer1_0_MEMBER_18_1_STROKES" stroke="#0066FF" stroke-opacity="0" stroke-width="0.1" stroke-linejoin="round" stroke-linecap="round" fill="none" d="
M 81.20948791503906 170.09085388183593
Q 82.09990539550782 169.82879943847655 82.28392333984375 168.9163391113281 82.44089965820314 167.96502075195312 81.7024139404297 167.41769104003907
L 77.55877685546875 164.31445922851563
Q 77.2917694091797 164.0965362548828 77.28495178222657 163.75522155761718
L 77.49696044921876 158.58982543945314
Q 77.54917907714844 157.6537322998047 76.71270751953125 157.19766235351562 75.87623596191406 156.74159240722656 75.11766357421875 157.2925598144531
L 70.89059143066407 160.2688201904297
Q 70.57127380371094 160.45643005371093 70.27218017578126 160.34158325195312
L 65.41910095214844 158.5395294189453
Q 64.55899658203126 158.2152587890625 63.844372558593754 158.86253051757814 63.18551330566407 159.5402069091797 63.43911437988282 160.4019012451172
L 64.95899353027345 165.35409851074218
Q 65.07056884765626 165.68018798828126 64.84251098632814 165.96578369140624
L 61.63788452148438 170.03002319335937
Q 61.191903686523446 170.58262634277344 61.34747314453126 171.27030029296876 61.45232238769532 171.78563537597657 61.86635437011719 172.13194885253907 62.28038635253907 172.47826232910157 62.81094665527344 172.4781707763672
L 67.98138732910157 172.54824523925782
Q 68.33115539550782 172.57015075683594 68.53903503417969 172.8522918701172
L 71.39872131347657 177.16048889160157
Q 71.58633117675782 177.47980651855468 71.9209197998047 177.6622344970703 72.5157440185547 177.9865509033203 73.20678100585938 177.73635864257812 73.84037170410157 177.5030731201172 74.0920166015625 176.82039794921874
L 75.77240600585938 171.92509765625
Q 75.88893432617188 171.5786926269531 76.22347717285157 171.49584045410157
L 81.20948791503906 170.09085388183593 Z"/>

<path id="Layer1_0_MEMBER_19_1_STROKES" stroke="#0066FF" stroke-opacity="0" stroke-width="0.1" stroke-linejoin="round" stroke-linecap="round" fill="none" d="
M 86.73220901489258 175.63384475708008
Q 85.88691787719728 174.80685958862304 86.22515563964845 173.6701889038086 86.6170425415039 172.50595550537108 87.77507553100585 172.33142623901367
L 94.2920135498047 171.31594696044922
Q 94.72268295288086 171.23030624389648 94.93432693481446 170.850333404541
L 97.7826629638672 164.91153411865233
Q 98.28332443237305 163.8270362854004 99.49707336425782 163.81374969482422 100.71082229614258 163.80046310424805 101.23510437011718 164.87374114990234
L 104.21276321411133 170.74876480102537
Q 104.45994186401367 171.15069046020508 104.86511535644532 171.20020599365233
L 111.4027214050293 172.07278060913086
Q 112.56429748535156 172.22191772460937 112.98157653808595 173.37729339599608 113.31793899536133 174.53355484008787 112.51763076782227 175.3515785217285
L 107.8479850769043 180.0154945373535
Q 107.52756652832032 180.31573181152345 107.6135025024414 180.77337341308592
L 108.79051971435547 187.26156768798828
Q 108.9620964050293 188.14987869262694 108.37608947753907 188.83067932128907 107.95014419555665 189.34787521362304 107.27731552124024 189.49011764526367 106.60448684692383 189.6323600769043 106.0075553894043 189.31518936157227
L 100.14790115356446 186.30413436889648
Q 99.74125137329102 186.11975784301757 99.33873519897462 186.31299209594727
L 93.5463996887207 189.45159835815429
Q 93.14447402954102 189.69877700805662 92.65897445678712 189.7040916442871 91.79586410522461 189.7135398864746 91.16782684326172 189.01905364990233 90.59432449340821 188.377921295166 90.71914672851562 187.45939025878906
L 91.75384979248048 180.94698486328124
Q 91.82974700927736 180.4875717163086 91.50283279418946 180.19442062377928
L 86.73220901489258 175.63384475708008 Z"/>

<path id="Layer1_0_MEMBER_20_1_STROKES" stroke="#0066FF" stroke-opacity="0" stroke-width="0.1" stroke-linejoin="round" stroke-linecap="round" fill="none" d="
M 118.29051208496094 170.09085388183593
Q 117.40009460449218 169.82879943847655 117.21607666015625 168.9163391113281 117.05910034179686 167.96502075195312 117.7975860595703 167.41769104003907
L 121.94122314453125 164.31445922851563
Q 122.2082305908203 164.0965362548828 122.21504821777343 163.75522155761718
L 122.00303955078124 158.58982543945314
Q 121.95082092285156 157.6537322998047 122.78729248046875 157.19766235351562 123.62376403808594 156.74159240722656 124.38233642578125 157.2925598144531
L 128.60940856933593 160.2688201904297
Q 128.92872619628906 160.45643005371093 129.22781982421876 160.34158325195312
L 134.08089904785155 158.5395294189453
Q 134.94100341796874 158.2152587890625 135.65562744140624 158.86253051757814 136.31448669433593 159.5402069091797 136.06088562011718 160.4019012451172
L 134.54100646972657 165.35409851074218
Q 134.42943115234374 165.68018798828126 134.65748901367186 165.96578369140624
L 137.86211547851562 170.03002319335937
Q 138.30809631347657 170.58262634277344 138.15252685546875 171.27030029296876 138.04767761230468 171.78563537597657 137.6336456298828 172.13194885253907 137.21961364746093 172.47826232910157 136.68905334472655 172.4781707763672
L 131.51861267089842 172.54824523925782
Q 131.1688446044922 172.57015075683594 130.9609649658203 172.8522918701172
L 128.10127868652344 177.16048889160157
Q 127.91366882324218 177.47980651855468 127.5790802001953 177.6622344970703 126.9842559814453 177.9865509033203 126.29321899414062 177.73635864257812 125.65962829589843 177.5030731201172 125.4079833984375 176.82039794921874
L 123.72759399414062 171.92509765625
Q 123.61106567382812 171.5786926269531 123.27652282714843 171.49584045410157
L 118.29051208496094 170.09085388183593 Z"/>

<path id="Layer1_0_MEMBER_21_1_STROKES" stroke="#0066FF" stroke-opacity="0" stroke-width="0.1" stroke-linejoin="round" stroke-linecap="round" fill="none" d="
M 143.0817138671875 117.39984130859375
Q 143.0817138671875 135.22673339843752 130.46790771484376 147.84053955078124 117.8541015625 160.454345703125 100.02720947265625 160.454345703125 82.2003173828125 160.454345703125 69.58651123046874 147.84053955078124 56.972705078125 135.22673339843752 56.972705078125 117.39984130859375 56.972705078125 99.57294921874998 69.58651123046874 86.95914306640626 82.2003173828125 74.3453369140625 100.02720947265625 74.3453369140625 117.8541015625 74.3453369140625 130.46790771484376 86.95914306640626 143.0817138671875 99.57294921874998 143.0817138671875 117.39984130859375 Z"/>

<path id="Layer1_0_MEMBER_22_1_STROKES" stroke="#0066FF" stroke-opacity="0" stroke-width="0.1" stroke-linejoin="round" stroke-linecap="round" fill="none" d="
M 143.0817138671875 116.38675842285156
Q 143.0817138671875 133.77300415039062 130.46790771484376 146.07502136230468 117.8541015625 158.37703857421874 100.02720947265625 158.37703857421874 82.2003173828125 158.37703857421874 69.58651123046874 146.07502136230468 56.972705078125 133.77300415039062 56.972705078125 116.38675842285156 56.972705078125 99.0005126953125 69.58651123046874 86.69849548339843 82.2003173828125 74.39647827148437 100.02720947265625 74.39647827148437 117.8541015625 74.39647827148437 130.46790771484376 86.69849548339843 143.0817138671875 99.0005126953125 143.0817138671875 116.38675842285156 Z"/>

<path id="Layer1_0_MEMBER_23_1_STROKES" stroke="#0066FF" stroke-opacity="0" stroke-width="0.1" stroke-linejoin="round" stroke-linecap="round" fill="none" d="
M 136.77862243652345 117.40684051513672
Q 136.77862243652345 132.6418670654297 125.99874725341797 143.42174224853514 115.2188720703125 154.2016174316406 99.98384552001953 154.2016174316406 84.74881896972656 154.2016174316406 73.96894378662108 143.42174224853514 63.18906860351562 132.6418670654297 63.18906860351562 117.40684051513672 63.18906860351562 102.17181396484375 73.96894378662108 91.39193878173829 84.74881896972656 80.61206359863282 99.98384552001953 80.61206359863282 115.2188720703125 80.61206359863282 125.99874725341797 91.39193878173829 136.77862243652345 102.17181396484375 136.77862243652345 117.40684051513672 Z"/>

<path id="Layer1_0_MEMBER_24_1_STROKES" stroke="#0066FF" stroke-opacity="0" stroke-width="0.1" stroke-linejoin="round" stroke-linecap="round" fill="none" d="
M 136.85116119384767 119.8995376586914
Q 136.85116119384767 134.09928894042966 126.07563323974611 144.15644836425778 115.2761596679687 154.2136077880859 100.04674682617187 154.2136077880859 84.81733398437504 154.2136077880859 74.04180603027348 144.15644836425778 63.266278076171915 134.09928894042966 63.266278076171915 119.8995376586914 63.266278076171915 105.69978637695311 74.04180603027348 95.64262695312499 84.81733398437504 85.58546752929686 100.04674682617187 85.58546752929686 115.2761596679687 85.58546752929686 126.07563323974611 95.64262695312499 136.85116119384767 105.69978637695311 136.85116119384767 119.8995376586914 Z"/>

<path id="Layer1_0_MEMBER_25_1_STROKES" stroke="#0066FF" stroke-opacity="0.00784313725490196" stroke-width="0.1" stroke-linejoin="round" stroke-linecap="round" fill="none" d="
M 126.01981201171876 88.68140258789063
Q 126.01981201171876 91.24613037109376 124.1996826171875 93.066259765625 122.37955322265626 94.88638916015626 119.81482543945313 94.88638916015626 117.25009765625 94.88638916015626 115.42996826171876 93.066259765625 113.6098388671875 91.24613037109376 113.6098388671875 88.68140258789063 113.6098388671875 86.1166748046875 115.42996826171876 84.29654541015623 117.25009765625 82.476416015625 119.81482543945313 82.476416015625 122.37955322265626 82.476416015625 124.1996826171875 84.29654541015623 126.01981201171876 86.1166748046875 126.01981201171876 88.68140258789063 Z"/>

<path id="Layer1_0_MEMBER_26_1_STROKES" stroke="#0066FF" stroke-opacity="0" stroke-width="0.1" stroke-linejoin="round" stroke-linecap="round" fill="none" d="
M 94.42581787109376 69.64942626953126
Q 94.42581787109376 70.51729125976561 93.81968994140624 71.12341918945313 93.21356201171875 71.72954711914062 92.34569702148437 71.72954711914062 91.47783203125 71.72954711914062 90.8717041015625 71.12341918945313 90.265576171875 70.51729125976561 90.265576171875 69.64942626953126 90.265576171875 68.78156127929688 90.8717041015625 68.17543334960936 91.47783203125 67.56930541992188 92.34569702148437 67.56930541992188 93.21356201171875 67.56930541992188 93.81968994140624 68.17543334960936 94.42581787109376 68.78156127929688 94.42581787109376 69.64942626953126 Z"/>

<path id="Layer1_0_MEMBER_27_1_STROKES" stroke="#0066FF" stroke-opacity="0" stroke-width="0.1" stroke-linejoin="round" stroke-linecap="round" fill="none" d="
M 107.17581787109376 69.64942626953126
Q 107.17581787109376 70.51729125976561 106.56968994140625 71.12341918945313 105.96356201171875 71.72954711914062 105.09569702148438 71.72954711914062 104.22783203125 71.72954711914062 103.6217041015625 71.12341918945313 103.01557617187501 70.51729125976561 103.01557617187501 69.64942626953126 103.01557617187501 68.78156127929688 103.6217041015625 68.17543334960936 104.22783203125 67.56930541992188 105.09569702148438 67.56930541992188 105.96356201171875 67.56930541992188 106.56968994140625 68.17543334960936 107.17581787109376 68.78156127929688 107.17581787109376 69.64942626953126 Z"/>

<path id="Layer1_0_MEMBER_28_1_STROKES" stroke="#0066FF" stroke-opacity="0" stroke-width="0.1" stroke-linejoin="round" stroke-linecap="round" fill="none" d="
M 87.17581787109376 71.79942626953125
Q 87.17581787109376 72.66729125976562 86.56968994140624 73.27341918945312 85.96356201171875 73.87954711914062 85.09569702148437 73.87954711914062 84.22783203125 73.87954711914062 83.6217041015625 73.27341918945312 83.015576171875 72.66729125976562 83.015576171875 71.79942626953125 83.015576171875 70.93156127929687 83.6217041015625 70.32543334960937 84.22783203125 69.71930541992188 85.09569702148437 69.71930541992188 85.96356201171875 69.71930541992188 86.56968994140624 70.32543334960937 87.17581787109376 70.93156127929687 87.17581787109376 71.79942626953125 Z"/>

<path id="Layer1_0_MEMBER_29_1_STROKES" stroke="#0066FF" stroke-opacity="0" stroke-width="0.1" stroke-linejoin="round" stroke-linecap="round" fill="none" d="
M 114.02581787109375 71.79942626953125
Q 114.02581787109375 72.66729125976562 113.41968994140625 73.27341918945312 112.81356201171874 73.87954711914062 111.94569702148438 73.87954711914062 111.07783203125 73.87954711914062 110.4717041015625 73.27341918945312 109.865576171875 72.66729125976562 109.865576171875 71.79942626953125 109.865576171875 70.93156127929687 110.4717041015625 70.32543334960937 111.07783203125 69.71930541992188 111.94569702148438 69.71930541992188 112.81356201171874 69.71930541992188 113.41968994140625 70.32543334960937 114.02581787109375 70.93156127929687 114.02581787109375 71.79942626953125 Z"/>

<path id="Layer1_0_MEMBER_30_1_STROKES" stroke="#0066FF" stroke-opacity="0" stroke-width="0.1" stroke-linejoin="round" stroke-linecap="round" fill="none" d="
M 93.27279510498047 69.65560455322266
Q 93.27279510498047 70.04132766723633 93.00340118408204 70.31072158813477 92.7340072631836 70.5801155090332 92.34828414916993 70.5801155090332 91.96256103515626 70.5801155090332 91.69316711425782 70.31072158813477 91.42377319335938 70.04132766723633 91.42377319335938 69.65560455322266 91.42377319335938 69.26988143920899 91.69316711425782 69.00048751831055 91.96256103515626 68.73109359741211 92.34828414916993 68.73109359741211 92.7340072631836 68.73109359741211 93.00340118408204 69.00048751831055 93.27279510498047 69.26988143920899 93.27279510498047 69.65560455322266 Z"/>

<path id="Layer1_0_MEMBER_31_1_STROKES" stroke="#0066FF" stroke-opacity="0" stroke-width="0.1" stroke-linejoin="round" stroke-linecap="round" fill="none" d="
M 105.97279510498046 69.65560455322266
Q 105.97279510498046 70.04132766723633 105.70340118408203 70.31072158813477 105.43400726318359 70.5801155090332 105.04828414916992 70.5801155090332 104.66256103515624 70.5801155090332 104.3931671142578 70.31072158813477 104.12377319335937 70.04132766723633 104.12377319335937 69.65560455322266 104.12377319335937 69.26988143920899 104.3931671142578 69.00048751831055 104.66256103515624 68.73109359741211 105.04828414916992 68.73109359741211 105.43400726318359 68.73109359741211 105.70340118408203 69.00048751831055 105.97279510498046 69.26988143920899 105.97279510498046 69.65560455322266 Z"/>

<path id="Layer1_0_MEMBER_32_1_STROKES" stroke="#0066FF" stroke-opacity="0" stroke-width="0.1" stroke-linejoin="round" stroke-linecap="round" fill="none" d="
M 71.94013366699217 116.38768920898437
Q 73.06557769775391 121.8712356567383 74.35864105224609 126.75614166259767 75.74748687744143 131.97628631591795 76.20245361328126 132.9341110229492 77.19161340594293 134.923561578989 80.608447265625 135.32867279052732 85.68968862891195 136.65045217871665 99.6452133178711 136.99289321899414 113.6039182841778 137.3385145366192 121.26810607910154 135.32867279052732 124.3810363769531 134.89765167236328 125.57831726074217 132.45519866943357 126.12906646728517 131.35370025634762 126.91927185058593 127.01954345703128
L 129.05043182373043 118.08782806396484
Q 130.00825653076168 115.35802764892578 129.57723541259764 113.99312744140624 129.31383361816404 113.10713958740236 128.4996826171875 112.84373779296875 125.67409973144534 112.00564117431641 123.59083099365235 115.54959259033203 119.1879240810871 124.51030462980272 113.3181610107422 117.32156829833986
L 106.49365997314455 107.43202819824218
Q 104.38644561767576 104.55855407714843 100.79460296630857 104.58249969482422 97.15486907958986 104.60644531250001 95.21527404785157 107.59964752197267
L 87.72029571533206 117.96809997558593
Q 85.85253753662109 120.98524780273438 83.14668273925783 120.43449859619143 81.18314208984374 120.02742309570313 79.69851379394534 118.23150177001953 79.38722076416015 117.84837188720702 78.47728729248048 116.50741729736328 77.49551696777344 115.04673461914064 77.1842239379883 114.63965911865235 75.65170440673826 112.48455352783203 73.52054443359374 112.9155746459961 71.3175476074219 113.37054138183593 71.94013366699217 116.38768920898437 Z"/>

<path id="Layer1_0_MEMBER_33_1_STROKES" stroke="#0066FF" stroke-opacity="0" stroke-width="0.1" stroke-linejoin="round" stroke-linecap="round" fill="none" d="
M 71.94013366699217 112.53768920898436
Q 73.06557769775391 118.0212356567383 74.35864105224609 122.90614166259766 75.74748687744143 128.12628631591795 76.20245361328126 129.0841110229492 77.19161340594293 131.073561578989 80.608447265625 131.47867279052733 85.68968862891195 132.80045217871665 99.6452133178711 133.14289321899415 113.6039182841778 133.4885145366192 121.26810607910154 131.47867279052733 124.3810363769531 131.0476516723633 125.57831726074217 128.60519866943358 126.12906646728517 127.50370025634763 126.91927185058593 123.16954345703127
L 129.05043182373043 114.23782806396483
Q 130.00825653076168 111.50802764892578 129.57723541259764 110.14312744140624 129.31383361816404 109.25713958740235 128.4996826171875 108.99373779296874 125.67409973144534 108.1556411743164 123.59083099365235 111.69959259033202 119.1879240810871 120.66030462980271 113.3181610107422 113.47156829833985
L 106.49365997314455 103.58202819824217
Q 104.38644561767576 100.70855407714842 100.79460296630857 100.73249969482421 97.15486907958986 100.7564453125 95.21527404785157 103.74964752197266
L 87.72029571533206 114.11809997558592
Q 85.85253753662109 117.13524780273437 83.14668273925783 116.58449859619142 81.18314208984374 116.17742309570312 79.69851379394534 114.38150177001953 79.38722076416015 113.99837188720701 78.47728729248048 112.65741729736327 77.49551696777344 111.19673461914063 77.1842239379883 110.78965911865234 75.65170440673826 108.63455352783203 73.52054443359374 109.0655746459961 71.3175476074219 109.52054138183593 71.94013366699217 112.53768920898436 Z"/>

<path id="Layer1_0_MEMBER_34_1_STROKES" stroke="#0066FF" stroke-opacity="0" stroke-width="0.1" stroke-linejoin="round" stroke-linecap="round" fill="none" d="
M 71.94013366699217 113.73768920898436
Q 73.06557769775391 119.2212356567383 74.35864105224609 124.10614166259766 75.74748687744143 129.32628631591797 76.20245361328126 130.28411102294922 77.19161340594293 132.27356157898902 80.608447265625 132.67867279052734 85.68968862891195 134.00045217871667 99.6452133178711 134.34289321899416 113.6039182841778 134.6885145366192 121.26810607910154 132.67867279052734 124.3810363769531 132.2476516723633 125.57831726074217 129.8051986694336 126.12906646728517 128.70370025634764 126.91927185058593 124.36954345703127
L 129.05043182373043 115.43782806396483
Q 130.00825653076168 112.70802764892578 129.57723541259764 111.34312744140624 129.31383361816404 110.45713958740235 128.4996826171875 110.19373779296875 125.67409973144534 109.3556411743164 123.59083099365235 112.89959259033202 119.1879240810871 121.86030462980271 113.3181610107422 114.67156829833985
L 106.49365997314455 104.78202819824217
Q 104.38644561767576 101.90855407714842 100.79460296630857 101.93249969482422 97.15486907958986 101.95644531250001 95.21527404785157 104.94964752197266
L 87.72029571533206 115.31809997558592
Q 85.85253753662109 118.33524780273437 83.14668273925783 117.78449859619143 81.18314208984374 117.37742309570312 79.69851379394534 115.58150177001953 79.38722076416015 115.19837188720702 78.47728729248048 113.85741729736327 77.49551696777344 112.39673461914063 77.1842239379883 111.98965911865234 75.65170440673826 109.83455352783203 73.52054443359374 110.2655746459961 71.3175476074219 110.72054138183593 71.94013366699217 113.73768920898436 Z"/>

<path id="Layer1_0_MEMBER_35_1_STROKES" stroke="#0066FF" stroke-opacity="0" stroke-width="0.1" stroke-linejoin="round" stroke-linecap="round" fill="none" d="
M 87.36747283935546 115.76599121093751
L 95.53292846679682 104.55944213867188
Q 94.7277570724487 106.02611122131349 92.58761749267575 109.08516387939453 90.4474779129028 112.1442165374756 87.36747283935546 115.76599121093751 Z"/>

<path id="Layer1_0_MEMBER_36_1_STROKES" stroke="#0066FF" stroke-opacity="0" stroke-width="0.1" stroke-linejoin="round" stroke-linecap="round" fill="none" d="
M 77.22657318115236 131.4892166137695
Q 102.38490543961527 135.27992013692855 115.02473068237302 130.48350067138674 127.66455592513088 125.68717474341392 128.30257568359374 110.27339935302733 130.02666015625002 110.3212905883789 129.64353027343745 112.81163482666014 129.47591094970707 114.08075256347657 128.9730529785156 115.34987030029296 129.04488983154292 115.39776153564453 128.39835815429691 118.55858306884764 127.65604400634763 122.12648010253903 126.86583862304687 124.90417175292967 126.38692626953124 127.80159149169921 125.81223144531245 129.16649169921877 125.11780853271486 130.84268493652345 123.77685394287104 131.84840087890623 120.99916229248046 132.75833435058595 118.41303558349611 133.2851379394531 115.32405090332028 133.90772399902343 111.5645889282226 134.14718017578124 104.52457733154299 134.62609252929687 94.6110916137695 134.21901702880857 81.05787200927736 133.6922134399414 77.22657318115236 131.4892166137695 Z"/>
</defs>

<g transform="matrix( 0.478912353515625, 0, 0, 0.478912353515625, -196.4,-4.25) ">
<use xlink:href="#Layer1_0_FILL"/>

<use xlink:href="#Layer1_0_1_STROKES" transform="matrix( 2.0880584716796875, 0, 0, 2.0880584716796875, 410.05,8.85) "/>

<use xlink:href="#Layer1_0_2_STROKES" transform="matrix( 2.0880584716796875, 0, 0, 2.0880584716796875, 410.05,8.85) "/>
</g>

<g transform="matrix( 0.314727783203125, 0, 0, 0.31036376953125, 50.95,0.1) ">
<use xlink:href="#Layer1_0_MEMBER_0_FILL"/>

<use xlink:href="#Layer1_0_MEMBER_0_1_STROKES" transform="matrix( 3.177337646484375, 0, 0, 3.222015380859375, -161.85,-0.3) "/>
</g>

<g transform="matrix( 0.6279754638671875, 0, 0, 0.6279754638671875, 39.3,-40.7) ">
<use xlink:href="#Layer1_0_MEMBER_1_FILL"/>

<use xlink:href="#Layer1_0_MEMBER_1_1_STROKES" transform="matrix( 1.5924072265625, 0, 0, 1.5924072265625, -62.55,64.8) "/>
</g>

<g transform="matrix( 0.6279754638671875, 0, 0, 0.6279754638671875, 12.4,-40.7) ">
<use xlink:href="#Layer1_0_MEMBER_2_FILL"/>

<use xlink:href="#Layer1_0_MEMBER_2_1_STROKES" transform="matrix( 1.5924072265625, 0, 0, 1.5924072265625, -19.7,64.8) "/>
</g>

<g transform="matrix( 0.478912353515625, 0, 0, 0.478912353515625, 98.7,-53.5) ">
<use xlink:href="#Layer1_0_MEMBER_3_FILL"/>

<use xlink:href="#Layer1_0_MEMBER_3_1_STROKES" transform="matrix( 2.0880584716796875, 0, 0, 2.0880584716796875, -206.05,111.7) "/>
</g>

<g transform="matrix( 0.478912353515625, 0, 0, 0.478912353515625, 25.9,-53.5) ">
<use xlink:href="#Layer1_0_MEMBER_4_FILL"/>

<use xlink:href="#Layer1_0_MEMBER_4_1_STROKES" transform="matrix( 2.0880584716796875, 0, 0, 2.0880584716796875, -54.05,111.7) "/>
</g>

<g transform="matrix( 0.478912353515625, 0, 0, 0.478912353515625, 98.7,-53.5) ">
<use xlink:href="#Layer1_0_MEMBER_5_FILL"/>

<use xlink:href="#Layer1_0_MEMBER_5_1_STROKES" transform="matrix( 2.0880584716796875, 0, 0, 2.0880584716796875, -206.05,111.7) "/>
</g>

<g transform="matrix( 0.478912353515625, 0, 0, 0.478912353515625, 25.95,-53.8) ">
<use xlink:href="#Layer1_0_MEMBER_6_FILL"/>

<use xlink:href="#Layer1_0_MEMBER_6_1_STROKES" transform="matrix( 2.0880584716796875, 0, 0, 2.0880584716796875, -54.15,112.3) "/>
</g>

<g transform="matrix( 0.4741668701171875, 0, 0, 0.46759033203125, 26.8,-48.45) ">
<use xlink:href="#Layer1_0_MEMBER_7_FILL"/>

<use xlink:href="#Layer1_0_MEMBER_7_1_STROKES" transform="matrix( 2.10894775390625, 0, 0, 2.13861083984375, -56.5,103.6) "/>
</g>

<g transform="matrix( 0.4741668701171875, 0, 0, 0.46759033203125, 26.8,-50.65) ">
<use xlink:href="#Layer1_0_MEMBER_8_FILL"/>

<use xlink:href="#Layer1_0_MEMBER_8_1_STROKES" transform="matrix( 2.10894775390625, 0, 0, 2.13861083984375, -56.5,108.3) "/>
</g>

<g transform="matrix( 0.1889190673828125, 0, 0, 0.1889190673828125, 94.2,54.7) ">
<use xlink:href="#Layer1_0_MEMBER_9_FILL"/>
</g>

<g transform="matrix( 0.1533966064453125, 0, 0, 0.1533966064453125, 106.4,55.35) ">
<use xlink:href="#Layer1_0_MEMBER_10_FILL"/>
</g>

<g transform="matrix( 0.1533966064453125, 0, 0, 0.1533966064453125, 83.55,55.35) ">
<use xlink:href="#Layer1_0_MEMBER_11_FILL"/>
</g>

<g transform="matrix( 0.478912353515625, 0, 0, 0.478912353515625, -196.4,-12.15) ">
<use xlink:href="#Layer1_0_MEMBER_12_FILL"/>

<use xlink:href="#Layer1_0_MEMBER_12_1_STROKES" transform="matrix( 2.0880584716796875, 0, 0, 2.0880584716796875, 410.05,25.35) "/>
</g>

<g transform="matrix( 0.478912353515625, 0, 0, 0.478912353515625, 25.9,-52.55) ">
<use xlink:href="#Layer1_0_MEMBER_13_FILL"/>

<use xlink:href="#Layer1_0_MEMBER_13_1_STROKES" transform="matrix( 2.0880584716796875, 0, 0, 2.0880584716796875, -54.05,109.7) "/>
</g>

<g transform="matrix( 0.478912353515625, 0, 0, 0.478912353515625, 25.9,-53.5) ">
<use xlink:href="#Layer1_0_MEMBER_14_FILL"/>

<use xlink:href="#Layer1_0_MEMBER_14_1_STROKES" transform="matrix( 2.0880584716796875, 0, 0, 2.0880584716796875, -54.05,111.7) "/>
</g>

<g transform="matrix( 0.478912353515625, 0, 0, 0.478912353515625, -196.4,-4.25) ">
<use xlink:href="#Layer1_0_MEMBER_15_FILL"/>

<use xlink:href="#Layer1_0_MEMBER_15_1_STROKES" transform="matrix( 2.0880584716796875, 0, 0, 2.0880584716796875, 410.05,8.85) "/>
</g>

<g transform="matrix( 0.478912353515625, 0, 0, 0.478912353515625, -196.4,-4.25) ">
<use xlink:href="#Layer1_0_MEMBER_16_MEMBER_0_FILL"/>

<use xlink:href="#Layer1_0_MEMBER_16_MEMBER_0_1_STROKES" transform="matrix( 2.0880584716796875, 0, 0, 2.0880584716796875, 410.05,8.85) "/>
</g>

<g transform="matrix( 0.478912353515625, 0, 0, 0.478912353515625, 25.4,-53.5) ">
<use xlink:href="#Layer1_0_MEMBER_16_MEMBER_1_FILL"/>

<use xlink:href="#Layer1_0_MEMBER_16_MEMBER_1_1_STROKES" transform="matrix( 2.0880584716796875, 0, 0, 2.0880584716796875, -53,111.7) "/>
</g>

<g transform="matrix( -0.4443359375, 0, 0, 0.478912353515625, 118.75,-53.35) ">
<use xlink:href="#Layer1_0_MEMBER_17_FILL"/>

<use xlink:href="#Layer1_0_MEMBER_17_1_STROKES" transform="matrix( -2.25054931640625, 0, 0, 2.0880584716796875, 267.25,111.35) "/>
</g>

<g transform="matrix( 0.37176513671875, 0.20269775390625, -0.20269775390625, 0.37176513671875, 67.65,151.75) ">
<use xlink:href="#Layer1_0_MEMBER_18_FILL"/>

<use xlink:href="#Layer1_0_MEMBER_18_1_STROKES" transform="matrix( 2.0734710693359375, -1.1305084228515625, 1.1305084228515625, 2.0734710693359375, -311.8,-238.15) "/>
</g>

<g transform="matrix( -0.5394439697265625, 0.0059051513671875, 0.0059051513671875, 0.5394439697265625, 112.95,163.1) ">
<use xlink:href="#Layer1_0_MEMBER_19_FILL"/>

<use xlink:href="#Layer1_0_MEMBER_19_1_STROKES" transform="matrix( -1.8535308837890625, 0.0202789306640625, 0.0202789306640625, 1.8535308837890625, 206,-304.6) "/>
</g>

<g transform="matrix( -0.37176513671875, 0.20269775390625, 0.20269775390625, 0.37176513671875, 131.85,151.75) ">
<use xlink:href="#Layer1_0_MEMBER_20_FILL"/>

<use xlink:href="#Layer1_0_MEMBER_20_1_STROKES" transform="matrix( -2.0734710693359375, 1.1305084228515625, 1.1305084228515625, 2.0734710693359375, 101.8,-463.7) "/>
</g>

<g transform="matrix( 0.4654541015625, 0, 0, 0.4654541015625, 33.7,-49) ">
<use xlink:href="#Layer1_0_MEMBER_21_FILL"/>

<use xlink:href="#Layer1_0_MEMBER_21_1_STROKES" transform="matrix( 2.1484375, 0, 0, 2.1484375, -72.4,105.25) "/>
</g>

<g transform="matrix( 0.4654541015625, 0, 0, 0.453948974609375, 33.7,-45.9) ">
<use xlink:href="#Layer1_0_MEMBER_22_FILL"/>

<use xlink:href="#Layer1_0_MEMBER_22_1_STROKES" transform="matrix( 2.1484375, 0, 0, 2.202880859375, -72.4,101.1) "/>
</g>

<g transform="matrix( 0.3977813720703125, 0, 0, 0.3977813720703125, 43.3,-24.8) ">
<use xlink:href="#Layer1_0_MEMBER_23_FILL"/>

<use xlink:href="#Layer1_0_MEMBER_23_1_STROKES" transform="matrix( 2.5139312744140625, 0, 0, 2.5139312744140625, -108.85,62.3) "/>
</g>

<g transform="matrix( 0.478912353515625, 0, 0, 0.478912353515625, -196.4,-12.4) ">
<use xlink:href="#Layer1_0_MEMBER_24_FILL"/>

<use xlink:href="#Layer1_0_MEMBER_24_1_STROKES" transform="matrix( 2.0880584716796875, 0, 0, 2.0880584716796875, 410.05,25.85) "/>
</g>

<g transform="matrix( 0.413665771484375, 0, 0, 0.413665771484375, 39.15,-33.35) ">
<use xlink:href="#Layer1_0_MEMBER_25_FILL"/>

<use xlink:href="#Layer1_0_MEMBER_25_1_STROKES" transform="matrix( 2.4174041748046875, 0, 0, 2.4174041748046875, -94.6,80.6) "/>
</g>

<g transform="matrix( 0.2755126953125, 0, 0, 0.2755126953125, 60.4,20.25) ">
<use xlink:href="#Layer1_0_MEMBER_26_FILL"/>

<use xlink:href="#Layer1_0_MEMBER_26_1_STROKES" transform="matrix( 3.6295928955078125, 0, 0, 3.6295928955078125, -219.2,-73.45) "/>
</g>

<g transform="matrix( 0.2755126953125, 0, 0, 0.2755126953125, 73.15,20.25) ">
<use xlink:href="#Layer1_0_MEMBER_27_FILL"/>

<use xlink:href="#Layer1_0_MEMBER_27_1_STROKES" transform="matrix( 3.6295928955078125, 0, 0, 3.6295928955078125, -265.5,-73.45) "/>
</g>

<g transform="matrix( 0.2755126953125, 0, 0, 0.2755126953125, 53.15,22.4) ">
<use xlink:href="#Layer1_0_MEMBER_28_FILL"/>

<use xlink:href="#Layer1_0_MEMBER_28_1_STROKES" transform="matrix( 3.6295928955078125, 0, 0, 3.6295928955078125, -192.9,-81.3) "/>
</g>

<g transform="matrix( 0.2755126953125, 0, 0, 0.2755126953125, 80,22.4) ">
<use xlink:href="#Layer1_0_MEMBER_29_FILL"/>

<use xlink:href="#Layer1_0_MEMBER_29_1_STROKES" transform="matrix( 3.6295928955078125, 0, 0, 3.6295928955078125, -290.35,-81.3) "/>
</g>

<g transform="matrix( 0.1224517822265625, 0, 0, 0.1224517822265625, 78.15,47.7) ">
<use xlink:href="#Layer1_0_MEMBER_30_FILL"/>

<use xlink:href="#Layer1_0_MEMBER_30_1_STROKES" transform="matrix( 8.166473388671875, 0, 0, 8.166473388671875, -638.2,-389.5) "/>
</g>

<g transform="matrix( 0.1224517822265625, 0, 0, 0.1224517822265625, 90.85,47.7) ">
<use xlink:href="#Layer1_0_MEMBER_31_FILL"/>

<use xlink:href="#Layer1_0_MEMBER_31_1_STROKES" transform="matrix( 8.166473388671875, 0, 0, 8.166473388671875, -741.9,-389.5) "/>
</g>

<g transform="matrix( 0.478912353515625, 0, 0, 0.478912353515625, -91.8,-8.8) ">
<use xlink:href="#Layer1_0_MEMBER_32_FILL"/>

<use xlink:href="#Layer1_0_MEMBER_32_1_STROKES" transform="matrix( 2.0880584716796875, 0, 0, 2.0880584716796875, 191.65,18.35) "/>
</g>

<g transform="matrix( 0.478912353515625, 0, 0, 0.478912353515625, -91.8,-12.65) ">
<use xlink:href="#Layer1_0_MEMBER_33_FILL"/>

<use xlink:href="#Layer1_0_MEMBER_33_1_STROKES" transform="matrix( 2.0880584716796875, 0, 0, 2.0880584716796875, 191.65,26.4) "/>
</g>

<g transform="matrix( 0.478912353515625, 0, 0, 0.478912353515625, -91.8,-11.45) ">
<use xlink:href="#Layer1_0_MEMBER_34_FILL"/>

<use xlink:href="#Layer1_0_MEMBER_34_1_STROKES" transform="matrix( 2.0880584716796875, 0, 0, 2.0880584716796875, 191.65,23.9) "/>
</g>

<g transform="matrix( 0.478912353515625, 0, 0, 0.478912353515625, -195.55,-11.05) ">
<use xlink:href="#Layer1_0_MEMBER_35_FILL"/>

<use xlink:href="#Layer1_0_MEMBER_35_1_STROKES" transform="matrix( 2.0880584716796875, 0, 0, 2.0880584716796875, 408.3,23.05) "/>
</g>

<g transform="matrix( 0.478912353515625, 0, 0, 0.478912353515625, -196.4,-12.4) ">
<use xlink:href="#Layer1_0_MEMBER_36_FILL"/>

<use xlink:href="#Layer1_0_MEMBER_36_1_STROKES" transform="matrix( 2.0880584716796875, 0, 0, 2.0880584716796875, 410.05,25.85) "/>
</g>
</svg>
