
<svg xmlns="http://www.w3.org/2000/svg" version="1.1" xmlns:xlink="http://www.w3.org/1999/xlink" preserveAspectRatio="none" x="0px" y="0px" width="200px" height="200px" viewBox="0 0 200 200">
<defs>
<linearGradient id="Gradient_1" gradientUnits="userSpaceOnUse" x1="26.700000000000003" y1="158.5" x2="56.7" y2="158.5" spreadMethod="pad">
<stop  offset="47.05882352941177%" stop-color="#3F231A"/>

<stop  offset="48.23529411764706%" stop-color="#65372A"/>
</linearGradient>

<linearGradient id="Gradient_2" gradientUnits="userSpaceOnUse" x1="111.95" y1="79.2" x2="81.95" y2="79.2" spreadMethod="pad">
<stop  offset="46.27450980392157%" stop-color="#3F231A"/>

<stop  offset="46.666666666666664%" stop-color="#65372A"/>
</linearGradient>

<g id="Layer0_0_FILL">
<path fill="#FFFFFF" stroke="none" d="
M 123.7 53.65
L 111.35 53.65 111.35 120.7 123.7 120.7 123.7 53.65
M 166.45 120.55
L 166.45 53.5 154.1 53.5 154.1 120.55 166.45 120.55 Z"/>

<path fill="#9C523B" stroke="none" d="
M 94.45 54.7
L 82.6 54.7
Q 78.25 54.7 78.25 60.15
L 78.25 110.25
Q 77.65 117.4 81.5 119
L 89.85 122.75
Q 94 124.7 96.3 125.8 98.65 126.85 98.8 126.7
L 98.8 60.15
Q 98.8 54.7 94.45 54.7
M 183.15 54.1
Q 178.8 54.1 178.8 59.55
L 178.8 126.1
Q 178.95 126.25 181.3 125.2 183.6 124.1 187.75 122.15
L 196.1 118.4
Q 199.95 116.8 199.35 109.65
L 199.35 59.55
Q 199.35 54.1 195 54.1
L 183.15 54.1 Z"/>
</g>

<g id="Layer0_0_MEMBER_0_FILL">
<path fill="#BB6245" stroke="none" d="
M 40.9 47.6
Q 41.95 46.4 41.7 44.7
L 39.65 32.65
Q 39.5 31.8 40.1 31.25
L 48.85 22.7
Q 50.4 21.15 49.75 19.05 49 16.9 46.85 16.6
L 34.75 14.85
Q 33.95 14.7 33.55 14
L 28.15 3.05
Q 27.2 1.05 24.95 1.05 22.7 1.05 21.75 3.05
L 16.35 14
Q 15.9 14.75 15.15 14.85
L 3.05 16.6
Q 0.9 16.9 0.15 19.05 -0.45 21.2 1.05 22.7
L 9.8 31.25
Q 10.4 31.8 10.25 32.65
L 8.2 44.7
Q 7.9 46.35 9 47.6 9.8 48.55 11.05 48.8 12.3 49.05 13.4 48.45
L 24.2 42.75
Q 24.95 42.4 25.7 42.75
L 36.5 48.45
Q 37.25 48.9 38.15 48.9 39.75 48.9 40.9 47.6 Z"/>
</g>

<g id="Layer0_0_MEMBER_1_FILL">
<path fill="#3F231A" stroke="none" d="
M 109.25 228.6
L 109.25 242.45
Q 109.25 250.95 117.75 250.95
L 185.65 250.95
Q 194.15 250.95 194.15 242.45
L 194.15 228.6
Q 194.15 220.1 185.65 220.1
L 117.75 220.1
Q 109.25 220.1 109.25 228.6 Z"/>
</g>

<g id="Layer0_0_MEMBER_2_FILL">
<path fill="#65372A" stroke="none" d="
M 121.3 173.95
Q 119.1 171.75 115.95 171.75 112.8 171.75 110.6 173.95 108.4 176.15 108.4 179.3 108.4 182.45 110.6 184.65 112.8 186.85 115.95 186.85 119.1 186.85 121.3 184.65 123.5 182.45 123.5 179.3 123.5 176.15 121.3 173.95 Z"/>
</g>

<g id="Layer0_0_MEMBER_3_FILL">
<path fill="#65372A" stroke="none" d="
M 121.3 173.95
Q 119.1 171.75 115.95 171.75 112.8 171.75 110.6 173.95 108.4 176.15 108.4 179.3 108.4 182.45 110.6 184.65 112.8 186.85 115.95 186.85 119.1 186.85 121.3 184.65 123.5 182.45 123.5 179.3 123.5 176.15 121.3 173.95 Z"/>
</g>

<g id="Layer0_0_MEMBER_4_FILL">
<path fill="#8C4B38" stroke="none" d="
M 142.5 265
Q 104.2 265 77.1 292.1 50 319.2 50 357.5 50 395.8 77.1 422.9 104.2 450 142.5 450 180.8 450 207.9 422.9 235 395.8 235 357.5 235 319.2 207.9 292.1 180.8 265 142.5 265 Z"/>
</g>

<g id="Layer0_0_MEMBER_5_FILL">
<path fill="#BB6245" stroke="none" d="
M 142.5 265
Q 104.2 265 77.1 292.1 50 319.2 50 357.5 50 395.8 77.1 422.9 104.2 450 142.5 450 180.8 450 207.9 422.9 235 395.8 235 357.5 235 319.2 207.9 292.1 180.8 265 142.5 265 Z"/>
</g>

<g id="Layer0_0_MEMBER_6_FILL">
<path fill="#8C4B38" stroke="none" d="
M 142.5 265
Q 104.2 265 77.1 292.1 50 319.2 50 357.5 50 395.8 77.1 422.9 104.2 450 142.5 450 180.8 450 207.9 422.9 235 395.8 235 357.5 235 319.2 207.9 292.1 180.8 265 142.5 265 Z"/>
</g>

<g id="Layer0_0_MEMBER_7_FILL">
<path fill="#9C523B" stroke="none" d="
M 142.5 265
Q 104.2 265 77.1 292.1 50 319.2 50 357.5 50 395.8 77.1 422.9 104.2 450 142.5 450 180.8 450 207.9 422.9 235 395.8 235 357.5 235 319.2 207.9 292.1 180.8 265 142.5 265 Z"/>
</g>

<g id="Layer0_0_MEMBER_8_FILL">
<path fill="#C16D51" fill-opacity="0.4980392156862745" stroke="none" d="
M 195 280
Q 188.8 280 184.4 284.4 180 288.8 180 295 180 301.2 184.4 305.6 188.8 310 195 310 201.2 310 205.6 305.6 210 301.2 210 295 210 288.8 205.6 284.4 201.2 280 195 280 Z"/>
</g>

<g id="Layer0_0_MEMBER_9_FILL">
<path fill="url(#Gradient_1)" stroke="none" d="
M 28.1 156.65
L 28.1 165 61.3 165 61.3 156.65 28.1 156.65 Z"/>
</g>

<g id="Layer0_0_MEMBER_10_FILL">
<path fill="#8C4B38" stroke="none" d="
M 125 165
L 112.45 165 112.45 227.1 125 227.1 125 165 Z"/>
</g>

<g id="Layer0_0_MEMBER_11_FILL">
<path fill="#8C4B38" stroke="none" d="
M 179 78.7
L 166.45 78.7 166.45 140.8 179 140.8 179 78.7 Z"/>
</g>

<g id="Layer0_0_MEMBER_12_FILL">
<path fill="#3F231A" stroke="none" d="
M 167.75 156.9
L 136.9 156.9 136.9 225 167.75 225 167.75 156.9 Z"/>
</g>

<g id="Layer0_0_MEMBER_13_FILL">
<path fill="url(#Gradient_2)" stroke="none" d="
M 110.55 85.7
L 110.55 77.35 77.35 77.35 77.35 85.7 110.55 85.7 Z"/>
</g>

<g id="Layer0_0_MEMBER_14_FILL">
<path fill="#8C4B38" stroke="none" d="
M 221.85 136.5
Q 218.7 133.35 214.2 133.35
L 90.8 133.35
Q 86.3 133.35 83.15 136.5 80 139.65 80 144.15
L 80 144.2
Q 80 148.7 83.15 151.85 86.3 155 90.8 155
L 214.2 155
Q 218.7 155 221.85 151.85 225 148.7 225 144.2
L 225 144.15
Q 225 139.65 221.85 136.5 Z"/>
</g>

<g id="Layer0_0_MEMBER_15_FILL">
<path fill="#BB6245" stroke="none" d="
M 221.85 136.5
Q 218.7 133.35 214.2 133.35
L 90.8 133.35
Q 86.3 133.35 83.15 136.5 80 139.65 80 144.15
L 80 144.2
Q 80 148.7 83.15 151.85 86.3 155 90.8 155
L 214.2 155
Q 218.7 155 221.85 151.85 225 148.7 225 144.2
L 225 144.15
Q 225 139.65 221.85 136.5 Z"/>
</g>

<g id="Layer0_0_MEMBER_16_MEMBER_0_FILL">
<path fill="#FFFFFF" stroke="none" d="
M 157.05 38.9
Q 158.2 37.8 158.2 36.25 158.2 34.7 157.05 33.55 155.95 32.45 154.4 32.45 152.85 32.45 151.7 33.55 150.6 34.7 150.6 36.25 150.6 37.8 151.7 38.9 152.85 40.05 154.4 40.05 155.95 40.05 157.05 38.9 Z"/>
</g>

<g id="Layer0_0_MEMBER_16_MEMBER_1_FILL">
<path fill="#FFFFFF" stroke="none" d="
M 215.4 137.4
Q 214.65 136.65 213.6 136.65
L 178.95 136.65
Q 177.9 136.65 177.1 137.4 176.35 138.2 176.35 139.25
L 176.35 139.3
Q 176.35 140.35 177.1 141.1 177.9 141.9 178.95 141.9
L 213.6 141.9
Q 214.65 141.9 215.4 141.1 216.2 140.35 216.2 139.3
L 216.2 139.25
Q 216.2 138.2 215.4 137.4 Z"/>
</g>

<g id="Layer0_0_MEMBER_17_FILL">
<path fill="#21130E" stroke="none" d="
M 28.1 156.65
L 28.1 165 61.3 165 61.3 156.65 28.1 156.65 Z"/>
</g>

<g id="Layer0_0_MEMBER_18_FILL">
<path fill="#8C4B38" stroke="none" d="
M 109.25 228.6
L 109.25 242.45
Q 109.25 250.95 117.75 250.95
L 185.65 250.95
Q 194.15 250.95 194.15 242.45
L 194.15 228.6
Q 194.15 220.1 185.65 220.1
L 117.75 220.1
Q 109.25 220.1 109.25 228.6 Z"/>
</g>

<g id="Layer0_0_MEMBER_19_FILL">
<path fill="#BB6245" stroke="none" d="
M 109.25 228.6
L 109.25 242.45
Q 109.25 250.95 117.75 250.95
L 185.65 250.95
Q 194.15 250.95 194.15 242.45
L 194.15 228.6
Q 194.15 220.1 185.65 220.1
L 117.75 220.1
Q 109.25 220.1 109.25 228.6 Z"/>
</g>

<g id="Layer0_0_MEMBER_20_FILL">
<path fill="#FFFFFF" stroke="none" d="
M 40.9 47.6
Q 41.95 46.4 41.7 44.7
L 39.65 32.65
Q 39.5 31.8 40.1 31.25
L 48.85 22.7
Q 50.4 21.15 49.75 19.05 49 16.9 46.85 16.6
L 34.75 14.85
Q 33.95 14.7 33.55 14
L 28.15 3.05
Q 27.2 1.05 24.95 1.05 22.7 1.05 21.75 3.05
L 16.35 14
Q 15.9 14.75 15.15 14.85
L 3.05 16.6
Q 0.9 16.9 0.15 19.05 -0.45 21.2 1.05 22.7
L 9.8 31.25
Q 10.4 31.8 10.25 32.65
L 8.2 44.7
Q 7.9 46.35 9 47.6 9.8 48.55 11.05 48.8 12.3 49.05 13.4 48.45
L 24.2 42.75
Q 24.95 42.4 25.7 42.75
L 36.5 48.45
Q 37.25 48.9 38.15 48.9 39.75 48.9 40.9 47.6 Z"/>
</g>

<g id="Layer0_0_MEMBER_21_FILL">
<path fill="#FFFFFF" stroke="none" d="
M 173.6 125.45
Q 174.5 124.55 174.5 123.35 174.5 122.15 173.6 121.25 172.7 120.4 171.5 120.4 170.3 120.4 169.4 121.25 168.55 122.15 168.55 123.35 168.55 124.55 169.4 125.45 170.3 126.35 171.5 126.35 172.7 126.35 173.6 125.45 Z"/>
</g>

<g id="Layer0_0_MEMBER_22_FILL">
<path fill="#BB6245" stroke="none" d="
M 121.3 173.95
Q 119.1 171.75 115.95 171.75 112.8 171.75 110.6 173.95 108.4 176.15 108.4 179.3 108.4 182.45 110.6 184.65 112.8 186.85 115.95 186.85 119.1 186.85 121.3 184.65 123.5 182.45 123.5 179.3 123.5 176.15 121.3 173.95 Z"/>
</g>

<g id="Layer0_0_MEMBER_23_FILL">
<path fill="#BB6245" stroke="none" d="
M 121.3 173.95
Q 119.1 171.75 115.95 171.75 112.8 171.75 110.6 173.95 108.4 176.15 108.4 179.3 108.4 182.45 110.6 184.65 112.8 186.85 115.95 186.85 119.1 186.85 121.3 184.65 123.5 182.45 123.5 179.3 123.5 176.15 121.3 173.95 Z"/>
</g>

<g id="Layer0_0_MEMBER_24_FILL">
<path fill="#BB6245" stroke="none" d="
M 121.3 173.95
Q 119.1 171.75 115.95 171.75 112.8 171.75 110.6 173.95 108.4 176.15 108.4 179.3 108.4 182.45 110.6 184.65 112.8 186.85 115.95 186.85 119.1 186.85 121.3 184.65 123.5 182.45 123.5 179.3 123.5 176.15 121.3 173.95 Z"/>
</g>

<g id="Layer0_0_MEMBER_25_FILL">
<path fill="#BB6245" stroke="none" d="
M 121.3 173.95
Q 119.1 171.75 115.95 171.75 112.8 171.75 110.6 173.95 108.4 176.15 108.4 179.3 108.4 182.45 110.6 184.65 112.8 186.85 115.95 186.85 119.1 186.85 121.3 184.65 123.5 182.45 123.5 179.3 123.5 176.15 121.3 173.95 Z"/>
</g>

<g id="Layer0_0_MEMBER_26_FILL">
<path fill="#3F231A" stroke="none" d="
M 121.3 173.95
Q 119.1 171.75 115.95 171.75 112.8 171.75 110.6 173.95 108.4 176.15 108.4 179.3 108.4 182.45 110.6 184.65 112.8 186.85 115.95 186.85 119.1 186.85 121.3 184.65 123.5 182.45 123.5 179.3 123.5 176.15 121.3 173.95 Z"/>
</g>

<g id="Layer0_0_MEMBER_27_FILL">
<path fill="#3F231A" stroke="none" d="
M 121.3 173.95
Q 119.1 171.75 115.95 171.75 112.8 171.75 110.6 173.95 108.4 176.15 108.4 179.3 108.4 182.45 110.6 184.65 112.8 186.85 115.95 186.85 119.1 186.85 121.3 184.65 123.5 182.45 123.5 179.3 123.5 176.15 121.3 173.95 Z"/>
</g>

<g id="Layer0_0_MEMBER_28_FILL">
<path fill="#8C4B38" stroke="none" d="
M 385.2 74.65
Q 383.3 57.8 380.9 50.45 376.9 38.1 368.1 32.95 359.3 27.8 346.7 30.45 338.85 32.05 323.75 38.75 312.15 45.35 298.7 46.1 295.65 45.25 290.5 39.35 287.4 35.75 281.65 27.85 271.55 14.3 265.75 9.05 255.75 0 245.3 0 234.85 0 224.85 9.05 218.95 14.35 209.05 27.85 203.05 36 200.1 39.4 194.95 45.35 191.95 46.1 178.7 45.35 166.95 38.75 151.65 32.05 143.95 30.4 131.4 27.8 122.6 32.85 113.85 37.9 109.8 50.3 107.3 57.95 105.4 74.65 105.35 87.9 99.5 99.6 87.75 105.4 74.65 105.45 57.75 107.35 50.4 109.75 38.05 113.7 32.9 122.5 27.75 131.35 30.4 143.95 32 151.6 38.7 166.9 45.35 178.7 46.05 192 45.2 195.05 39.3 200.2 35.8 203.25 27.85 209.1 14.35 219 9.05 224.9 0 234.9 0 245.35 0 255.8 9.05 265.8 14.35 271.7 27.85 281.6 36.1 287.7 39.35 290.55 45.3 295.7 46.1 298.7 45.35 312.1 38.75 323.7 32.05 339.1 30.45 346.6 27.75 359.2 32.85 367.95 37.95 376.75 50.3 380.8 57.95 383.25 74.55 385.05 87.7 385.15 99.5 391 105.4 402.85 105.45 416 107.3 432.8 109.7 440.25 113.7 452.55 122.5 457.7 131.3 462.85 143.85 460.2 151.2 458.6 166.75 451.85 178.6 445.3 192 444.6 195.05 445.4 200.15 451.3 203.1 454.7 209.05 462.8 218.95 476.3 224.85 481.6 234.85 490.65 245.3 490.65 255.75 490.65 265.75 481.6 271.6 476.3 281.6 462.8 287.4 454.85 290.5 451.3 295.65 445.35 298.65 444.55 312.05 445.3 323.7 451.9 339.05 458.6 346.6 460.2 359.2 462.85 367.95 457.8 376.7 452.75 380.75 440.4 383.25 432.8 385.15 416.05 385.25 402.85 391.05 391.15 402.75 385.35 416 385.25 432.85 383.35 440.25 380.95 452.6 376.95 457.7 368.15 462.8 359.35 460.15 346.8 458.55 339.45 451.8 323.9 445.25 312.05 444.55 298.7 445.4 295.6 451.3 290.45 454.9 287.35 462.8 281.6 476.25 271.7 481.6 265.75 490.65 255.75 490.65 245.35 490.65 234.9 481.6 224.9 476.25 219 462.75 209.1 454.5 203 451.25 200.15 445.3 195 444.55 192 445.25 178.75 451.9 167 458.6 151.6 460.2 144.05 462.85 131.5 457.75 122.7 452.65 113.9 440.3 109.9 432.55 107.4 416.05 105.65 402.95 105.6 391.1 99.7 385.3 87.9 385.2 74.65 Z"/>
</g>

<g id="Layer0_0_MEMBER_29_FILL">
<path fill="#BB6245" stroke="none" d="
M 385.2 74.65
Q 383.3 57.8 380.9 50.45 376.9 38.1 368.1 32.95 359.3 27.8 346.7 30.45 338.85 32.05 323.75 38.75 312.15 45.35 298.7 46.1 295.65 45.25 290.5 39.35 287.4 35.75 281.65 27.85 271.55 14.3 265.75 9.05 255.75 0 245.3 0 234.85 0 224.85 9.05 218.95 14.35 209.05 27.85 203.05 36 200.1 39.4 194.95 45.35 191.95 46.1 178.7 45.35 166.95 38.75 151.65 32.05 143.95 30.4 131.4 27.8 122.6 32.85 113.85 37.9 109.8 50.3 107.3 57.95 105.4 74.65 105.35 87.9 99.5 99.6 87.75 105.4 74.65 105.45 57.75 107.35 50.4 109.75 38.05 113.7 32.9 122.5 27.75 131.35 30.4 143.95 32 151.6 38.7 166.9 45.35 178.7 46.05 192 45.2 195.05 39.3 200.2 35.8 203.25 27.85 209.1 14.35 219 9.05 224.9 0 234.9 0 245.35 0 255.8 9.05 265.8 14.35 271.7 27.85 281.6 36.1 287.7 39.35 290.55 45.3 295.7 46.1 298.7 45.35 312.1 38.75 323.7 32.05 339.1 30.45 346.6 27.75 359.2 32.85 367.95 37.95 376.75 50.3 380.8 57.95 383.25 74.55 385.05 87.7 385.15 99.5 391 105.4 402.85 105.45 416 107.3 432.8 109.7 440.25 113.7 452.55 122.5 457.7 131.3 462.85 143.85 460.2 151.2 458.6 166.75 451.85 178.6 445.3 192 444.6 195.05 445.4 200.15 451.3 203.1 454.7 209.05 462.8 218.95 476.3 224.85 481.6 234.85 490.65 245.3 490.65 255.75 490.65 265.75 481.6 271.6 476.3 281.6 462.8 287.4 454.85 290.5 451.3 295.65 445.35 298.65 444.55 312.05 445.3 323.7 451.9 339.05 458.6 346.6 460.2 359.2 462.85 367.95 457.8 376.7 452.75 380.75 440.4 383.25 432.8 385.15 416.05 385.25 402.85 391.05 391.15 402.75 385.35 416 385.25 432.85 383.35 440.25 380.95 452.6 376.95 457.7 368.15 462.8 359.35 460.15 346.8 458.55 339.45 451.8 323.9 445.25 312.05 444.55 298.7 445.4 295.6 451.3 290.45 454.9 287.35 462.8 281.6 476.25 271.7 481.6 265.75 490.65 255.75 490.65 245.35 490.65 234.9 481.6 224.9 476.25 219 462.75 209.1 454.5 203 451.25 200.15 445.3 195 444.55 192 445.25 178.75 451.9 167 458.6 151.6 460.2 144.05 462.85 131.5 457.75 122.7 452.65 113.9 440.3 109.9 432.55 107.4 416.05 105.65 402.95 105.6 391.1 99.7 385.3 87.9 385.2 74.65 Z"/>
</g>

<g id="Layer0_0_MEMBER_30_MEMBER_0_FILL">
<path fill="#9C523B" stroke="none" d="
M 404.75 308.6
Q 361.9 306.05 334.4 318.95 310.85 330 300.05 360 295.7 372.1 295 383.65 294.3 394.8 297.2 401 300.1 407.2 309.1 413.75 318.45 420.6 330.55 424.95 360.55 435.75 384.1 424.7 411.6 411.8 436.95 377.2 453.15 355.1 465.6 328.6 467.2 325.25 465.65 321.85 464.05 318.5 460.4 317.55 432 310.25 404.75 308.6 Z"/>
</g>

<g id="Layer0_0_MEMBER_30_MEMBER_1_FILL">
<path fill="#D6785A" stroke="none" d="
M 404.75 308.6
Q 361.9 306.05 334.4 318.95 310.85 330 300.05 360 295.7 372.1 295 383.65 294.3 394.8 297.2 401
L 297.8 402
Q 333.35 380.5 369.2 362.8 425.5 334.95 466.35 324.95 466.25 322.35 464.65 320.3 463 318.2 460.4 317.55 432 310.25 404.75 308.6 Z"/>
</g>

<g id="Layer0_0_MEMBER_30_MEMBER_2_FILL">
<path fill="#9C523B" stroke="none" d="
M 285.3 65.05
Q 280.45 46.45 262.55 26.7 250.5 13.45 234.65 1.65 231.55 -0.65 227.85 0.3 224.15 1.25 222.55 4.8 214.5 22.9 210.55 40.3 204.65 66.3 209.55 84.9 213.95 101.8 232.4 112.6 239.85 116.95 247.4 118.8 254.65 120.6 259.1 119.45 263.55 118.3 269 113.15 274.65 107.85 278.95 100.4 289.75 81.95 285.3 65.05 Z"/>
</g>

<g id="Layer0_0_MEMBER_30_MEMBER_3_FILL">
<path fill="#D6785A" stroke="none" d="
M 285.3 65.05
Q 280.45 46.45 262.55 26.7 250.55 13.5 234.65 1.6 231.15 -0.9 227 0.7 233.75 19.5 240.65 43.5 250.9 79.35 259.25 119.4 263.7 118.15 269.1 113 274.75 107.65 279.05 100.25 289.7 81.85 285.3 65.05 Z"/>
</g>

<g id="Layer0_0_MEMBER_30_MEMBER_4_FILL">
<path fill="#9C523B" stroke="none" d="
M 50.4 268.5
Q 46.95 270 45.9 273.55 44.85 277.15 46.9 280.25 64.45 306.5 85.35 327.6 118.4 360.95 150.15 370.35 164.1 374.45 179.95 371.7 193.85 369.25 207.45 361.85 219.65 355.25 228.55 346.4 237.1 337.9 239.2 330.8 241.3 323.7 238.75 311.9 236.1 299.65 229.5 287.45 222.1 273.85 211.75 264.25 200 253.3 186 249.15 154.25 239.75 108.4 249.75 79.4 256.05 50.4 268.5 Z"/>
</g>

<g id="Layer0_0_MEMBER_30_MEMBER_5_FILL">
<path fill="#D6785A" stroke="none" d="
M 46.35 272.55
Q 45.2 275.3 46.15 278.2 96.2 282.35 139.85 291.95 209.45 307.35 238.5 332.55 239.05 331.35 239.2 330.8 241.3 323.7 238.75 311.9 236.1 299.65 229.5 287.45 222.1 273.85 211.75 264.25 200 253.3 186 249.15 154.25 239.75 108.4 249.75 79.4 256.05 50.4 268.5 47.55 269.75 46.35 272.55 Z"/>
</g>

<g id="Layer0_0_MEMBER_30_MEMBER_6_FILL">
<path fill="#9C523B" stroke="none" d="
M 237.1 197.8
Q 239.55 193.9 240 186.45 240.5 178.7 238.6 170.3 233.9 149.45 219.15 140.15 202.9 129.85 176.3 127.65 158.45 126.15 138.8 128.4 135 128.8 132.95 132.05 130.9 135.3 132.15 138.95 138.6 157.65 147.65 173.1 161.1 196.1 177.3 206.4 192.05 215.7 212.9 211 221.35 209.1 228.1 205.3 234.65 201.7 237.1 197.8 Z"/>
</g>

<g id="Layer0_0_MEMBER_30_MEMBER_7_FILL">
<path fill="#D6785A" stroke="none" d="
M 240 186.45
Q 240.5 178.7 238.6 170.3 233.9 149.45 219.15 140.15 202.9 129.85 176.3 127.65 158.45 126.15 138.8 128.4 136.05 128.7 134.1 130.65 132.2 132.5 131.8 135.15 156.05 145.6 179.2 158.55 214.4 178.3 236.65 198.4
L 237.1 197.8
Q 239.55 193.9 240 186.45 Z"/>
</g>

<g id="Layer0_0_MEMBER_30_MEMBER_8_FILL">
<path fill="#9C523B" stroke="none" d="
M 373.85 159.95
Q 347.15 158.9 329.8 167.05 314 174.45 306.75 194.55 303.8 202.7 303.35 210.45 302.9 217.9 304.85 222.05 306.8 226.2 312.85 230.6 319.1 235.2 327.2 238.1 347.3 245.35 363.1 237.95 380.5 229.8 396.65 208.6 407.5 194.4 416.25 176.6 417.95 173.15 416.35 169.7 414.7 166.2 410.95 165.3 391.55 160.7 373.85 159.95 Z"/>
</g>

<g id="Layer0_0_MEMBER_30_MEMBER_9_FILL">
<path fill="#D6785A" stroke="none" d="
M 373.85 159.95
Q 347.15 158.9 329.8 167.05 314 174.45 306.75 194.55 303.8 202.7 303.35 210.45 302.9 217.9 304.85 222.05 305.5 223.45 307.1 225.4 322.95 209 361.3 193.3 386.25 183.1 416.7 174.7 417.4 171.55 415.8 168.85 414.15 166.1 410.95 165.3 391.55 160.7 373.85 159.95 Z"/>
</g>

<g id="Layer0_0_MEMBER_30_MEMBER_10_FILL">
<path fill="#65372A" stroke="none" d="
M 416.9 342.85
Q 415.95 339.6 413 337.95 410 336.35 406.75 337.3 349 354.15 293.5 391.8 265.5 410.8 247.25 428.1 244.8 430.4 244.75 433.8 244.65 437.2 247 439.65 249.4 442.2 252.95 442.2 256.2 442.2 258.6 439.95 275.05 424.35 302.15 405.9 356.15 369.1 411.35 353 414.6 352.05 416.2 349.1 417.85 346.1 416.9 342.85 Z"/>
</g>

<g id="Layer0_0_MEMBER_30_MEMBER_11_FILL">
<path fill="#65372A" stroke="none" d="
M 99.2 288.35
Q 99 291.75 101.25 294.25 103.5 296.8 106.9 297 107 297 115 297.75
L 115.85 297.75
Q 119 297.75 121.3 295.7 123.65 293.6 124 290.45 124.4 287.1 122.25 284.45 120.1 281.8 116.7 281.45
L 107.85 280.65
Q 104.45 280.45 101.95 282.7 99.4 285 99.2 288.35 Z"/>
</g>

<g id="Layer0_0_MEMBER_30_MEMBER_12_FILL">
<path fill="#65372A" stroke="none" d="
M 348.05 189.9
Q 344.85 191 343.3 194.05 341.8 197.05 342.9 200.25 343.75 202.8 345.95 204.35 348.05 205.85 350.65 205.85 351.9 205.85 353.25 205.45 357.3 204.1 361.65 202.9 364.9 202.05 366.65 199.1 368.35 196.15 367.45 192.9 366.6 189.65 363.65 187.95 360.7 186.25 357.45 187.1 353.2 188.2 348.05 189.9 Z"/>
</g>

<g id="Layer0_0_MEMBER_30_MEMBER_13_FILL">
<path fill="#65372A" stroke="none" d="
M 329.9 213.1
Q 330.6 209.75 328.75 206.9 326.95 204.05 323.65 203.35 320.3 202.6 317.45 204.45 295.35 218.65 281.15 240.45 278.6 139.65 249.3 48.15 248.25 44.9 245.25 43.35 242.2 41.8 239 42.85 235.75 43.85 234.2 46.9 232.65 49.95 233.7 53.15 258.75 131.55 263.75 216.85 243.75 189.3 214.7 169.5 205.4 163.15 196.2 158.3 191.05 155.6 187.95 154.35 184.85 153.05 181.7 154.35 178.55 155.65 177.25 158.75 175.95 161.9 177.25 165.05 178.55 168.2 181.7 169.45 181.85 169.5 190.9 174.05 202 180.2 212.75 188.3 246.9 214.1 264.9 250.15 265.45 296.85 260.25 342.95 244.25 320.7 211.25 305.5 185.25 293.5 150.1 286.5 146.75 285.85 143.95 287.7 141.15 289.6 140.45 292.95 139.8 296.3 141.65 299.1 143.55 301.95 146.9 302.6 184.4 310.05 210.85 323.7 248.7 343.25 256.35 372.4 248.95 421 236.05 465.3 229.6 487.55 224.35 500.75 223.1 503.9 224.4 507 225.7 510.15 228.85 511.4 230.2 512 231.9 512 234.35 512 236.45 510.65 238.55 509.3 239.5 506.95 245 493.2 251.75 469.95 265.1 423.8 272.7 373.2
L 272.75 372.95
Q 279.75 326.5 281.05 279.8 284 267.7 291.3 254.95 304.3 232.4 326.3 218.25 329.2 216.4 329.9 213.1 Z"/>
</g>

<path id="Layer0_0_1_STROKES" stroke="#0066FF" stroke-opacity="0" stroke-width="0.1" stroke-linejoin="round" stroke-linecap="round" fill="none" d="
M 120.3997802734375 58.726690673828124
L 120.3997802734375 25.675094604492188
Q 120.3997802734375 22.968389892578127 122.5601776123047 22.968389892578127
L 128.44539794921874 22.968389892578127
Q 130.60579528808594 22.968389892578127 130.60579528808594 25.675094604492188
L 130.60579528808594 50.55691223144532
Q 130.90378112792968 54.10791015625 128.99170532226563 54.902539062500004
L 124.84473571777343 56.76495056152344
Q 122.7836669921875 57.733404541015624 121.64138793945312 58.2797119140625 120.47427673339843 58.801187133789064 120.3997802734375 58.726690673828124 Z"/>

<path id="Layer0_0_2_STROKES" stroke="#0066FF" stroke-width="0.1" stroke-linejoin="round" stroke-linecap="round" fill="none" d="
M 120.52394104003906 58.726690673828124
Q 118.98434753417968 59.02467651367188 120.52394104003906 59.02467651367188
L 120.52394104003906 58.726690673828124 Z"/>

<path id="Layer0_0_MEMBER_0_1_STROKES" stroke="#0066FF" stroke-opacity="0" stroke-width="0.1" stroke-linejoin="round" stroke-linecap="round" fill="none" d="
M 90.91637954711913 178.626953125
Q 90.30757598876953 178.03129959106445 90.55121536254882 177.21261978149414 90.83349609375 176.37408905029295 91.66757278442383 176.24840850830077
L 96.36141738891601 175.51714553833008
Q 96.67160873413086 175.4554718017578 96.82405319213868 175.18180084228516
L 98.87569046020508 170.90444107055663
Q 99.23631439208984 170.12334213256835 100.11051712036132 170.11379776000976 100.9847198486328 170.10425338745117 101.36231155395508 170.87729263305664
L 103.5068473815918 175.1088394165039
Q 103.68486938476562 175.398331451416 103.97669448852538 175.43400344848632
L 108.6853858947754 176.06261138916014
Q 109.52200775146484 176.17005157470703 109.82252883911133 177.00221939086913 110.06476974487305 177.83502349853515 109.48833084106445 178.42418823242187
L 106.12492218017577 181.78327560424805
Q 105.89413452148438 181.9995147705078 105.95602035522461 182.32913284301756
L 106.80363159179687 187.00227813720704
Q 106.92719116210937 187.64208755493163 106.5051055908203 188.132421875 106.19830780029297 188.504923248291 105.71370010375976 188.60735931396482 105.22909240722656 188.70979537963865 104.79915924072266 188.48134078979493
L 100.5788070678711 186.31250686645507
Q 100.28592147827148 186.17970123291016 99.99600524902344 186.31886978149413
L 95.82401123046874 188.57932968139647
Q 95.53451919555664 188.7573516845703 95.18483810424804 188.76116943359375 94.56318283081055 188.76795654296873 94.11085357666016 188.26773986816406 93.69780197143554 187.8059524536133 93.78772430419922 187.1443832397461
L 94.53310470581054 182.4538459777832
Q 94.58777923583985 182.12295532226562 94.35232543945312 181.91180648803712
L 90.91637954711913 178.626953125 Z"/>

<path id="Layer0_0_MEMBER_1_1_STROKES" stroke="#FFFFFF" stroke-opacity="0" stroke-width="1" stroke-linejoin="round" stroke-linecap="round" fill="none" d="
M 89.23189239501953 71.43998565673827
L 111.39346771240234 71.43998565673827
Q 114.16774444580078 71.43998565673827 114.16774444580078 74.17574157714843
L 114.16774444580078 78.6334144592285
Q 114.16774444580078 81.36917037963866 111.39346771240234 81.36917037963866
L 89.23189239501953 81.36917037963866
Q 86.45761566162109 81.36917037963866 86.45761566162109 78.6334144592285
L 86.45761566162109 74.17574157714843
Q 86.45761566162109 71.43998565673827 89.23189239501953 71.43998565673827 Z"/>

<path id="Layer0_0_MEMBER_2_1_STROKES" stroke="#0066FF" stroke-opacity="0" stroke-width="0.1" stroke-linejoin="round" stroke-linecap="round" fill="none" d="
M 91.27688751220703 75.01551361083985
Q 91.27688751220703 77.06688766479492 89.84418182373047 78.4995933532715 88.41147613525389 79.93229904174804 86.36010208129882 79.93229904174804 84.30872802734375 79.93229904174804 82.87602233886717 78.4995933532715 81.44331665039063 77.06688766479492 81.44331665039063 75.01551361083985 81.44331665039063 72.96413955688477 82.87602233886717 71.5314338684082 84.30872802734375 70.09872817993164 86.36010208129882 70.09872817993164 88.41147613525389 70.09872817993164 89.84418182373047 71.5314338684082 91.27688751220703 72.96413955688477 91.27688751220703 75.01551361083985 Z"/>

<path id="Layer0_0_MEMBER_3_1_STROKES" stroke="#0066FF" stroke-opacity="0" stroke-width="0.1" stroke-linejoin="round" stroke-linecap="round" fill="none" d="
M 119.17688751220703 75.01551361083985
Q 119.17688751220703 77.06688766479492 117.74418182373047 78.4995933532715 116.3114761352539 79.93229904174804 114.26010208129883 79.93229904174804 112.20872802734375 79.93229904174804 110.77602233886718 78.4995933532715 109.34331665039063 77.06688766479492 109.34331665039063 75.01551361083985 109.34331665039063 72.96413955688477 110.77602233886718 71.5314338684082 112.20872802734375 70.09872817993164 114.26010208129883 70.09872817993164 116.3114761352539 70.09872817993164 117.74418182373047 71.5314338684082 119.17688751220703 72.96413955688477 119.17688751220703 75.01551361083985 Z"/>

<path id="Layer0_0_MEMBER_4_1_STROKES" stroke="#0066FF" stroke-opacity="0" stroke-width="0.1" stroke-linejoin="round" stroke-linecap="round" fill="none" d="
M 144.63009948730468 122.10855560302734
Q 144.63009948730468 140.59524841308593 131.5494369506836 153.67591094970703 118.46877441406251 166.75657348632814 99.98208160400391 166.75657348632814 81.49538879394531 166.75657348632814 68.41472625732422 153.67591094970703 55.33406372070313 140.59524841308593 55.33406372070313 122.10855560302734 55.33406372070313 103.62186279296874 68.41472625732422 90.54120025634766 81.49538879394531 77.46053771972656 99.98208160400391 77.46053771972656 118.46877441406251 77.46053771972656 131.5494369506836 90.54120025634766 144.63009948730468 103.62186279296874 144.63009948730468 122.10855560302734 Z"/>

<path id="Layer0_0_MEMBER_5_1_STROKES" stroke="#0066FF" stroke-opacity="0" stroke-width="0.1" stroke-linejoin="round" stroke-linecap="round" fill="none" d="
M 144.63009948730468 121.04818725585938
Q 144.63009948730468 139.07845458984374 131.5494369506836 151.8361633300781 118.46877441406251 164.5938720703125 99.98208160400391 164.5938720703125 81.49538879394531 164.5938720703125 68.41472625732422 151.8361633300781 55.33406372070313 139.07845458984374 55.33406372070313 121.04818725585938 55.33406372070313 103.017919921875 68.41472625732422 90.26021118164064 81.49538879394531 77.50250244140625 99.98208160400391 77.50250244140625 118.46877441406251 77.50250244140625 131.5494369506836 90.26021118164064 144.63009948730468 103.017919921875 144.63009948730468 121.04818725585938 Z"/>

<path id="Layer0_0_MEMBER_6_1_STROKES" stroke="#0066FF" stroke-opacity="0" stroke-width="0.1" stroke-linejoin="round" stroke-linecap="round" fill="none" d="
M 138.13893432617186 122.07093200683593
Q 138.13893432617186 137.8699157714844 126.96001892089845 149.0488311767578 115.781103515625 160.22774658203124 99.98211975097657 160.22774658203124 84.18313598632812 160.22774658203124 73.00422058105468 149.0488311767578 61.82530517578125 137.8699157714844 61.82530517578125 122.07093200683593 61.82530517578125 106.27194824218748 73.00422058105468 95.09303283691406 84.18313598632812 83.91411743164062 99.98211975097657 83.91411743164062 115.781103515625 83.91411743164062 126.96001892089845 95.09303283691406 138.13893432617186 106.27194824218748 138.13893432617186 122.07093200683593 Z"/>

<path id="Layer0_0_MEMBER_7_1_STROKES" stroke="#0066FF" stroke-opacity="0" stroke-width="0.1" stroke-linejoin="round" stroke-linecap="round" fill="none" d="
M 138.13893432617186 124.69280090332032
Q 138.13893432617186 139.42815551757815 126.96001892089845 149.85447692871094 115.781103515625 160.28079833984376 99.98211975097657 160.28079833984376 84.18313598632812 160.28079833984376 73.00422058105468 149.85447692871094 61.82530517578125 139.42815551757815 61.82530517578125 124.69280090332032 61.82530517578125 109.9574462890625 73.00422058105468 99.5311248779297 84.18313598632812 89.10480346679688 99.98211975097657 89.10480346679688 115.781103515625 89.10480346679688 126.96001892089845 99.5311248779297 138.13893432617186 109.9574462890625 138.13893432617186 124.69280090332032 Z"/>

<path id="Layer0_0_MEMBER_8_1_STROKES" stroke="#0066FF" stroke-opacity="0.00784313725490196" stroke-width="0.1" stroke-linejoin="round" stroke-linecap="round" fill="none" d="
M 126.93697509765624 92.30075073242188
Q 126.93697509765624 94.96046142578123 125.0494384765625 96.847998046875 123.16190185546876 98.73553466796875 120.50219116210937 98.73553466796875 117.84248046875001 98.73553466796875 115.95494384765627 96.847998046875 114.0674072265625 94.96046142578123 114.0674072265625 92.30075073242188 114.0674072265625 89.6410400390625 115.95494384765627 87.75350341796874 117.84248046875001 85.865966796875 120.50219116210937 85.865966796875 123.16190185546876 85.865966796875 125.0494384765625 87.75350341796874 126.93697509765624 89.6410400390625 126.93697509765624 92.30075073242188 Z"/>

<path id="Layer0_0_MEMBER_9_1_STROKES" stroke="#0066FF" stroke-opacity="0" stroke-width="0.1" stroke-linejoin="round" stroke-linecap="round" fill="none" d="
M 114.2796112060547 22.799136352539065
L 130.61922302246094 22.799136352539065 130.61922302246094 26.94610595703125 114.2796112060547 26.94610595703125 114.2796112060547 22.799136352539065 Z"/>

<path id="Layer0_0_MEMBER_10_1_STROKES" stroke="#0066FF" stroke-opacity="0.00784313725490196" stroke-width="0.1" stroke-linejoin="round" stroke-linecap="round" fill="none" d="
M 80.64751281738282 26.94610595703125
L 86.88038330078125 26.94610595703125 86.88038330078125 57.78764038085937 80.64751281738282 57.78764038085937 80.64751281738282 26.94610595703125 Z"/>

<path id="Layer0_0_MEMBER_11_1_STROKES" stroke="#0066FF" stroke-opacity="0" stroke-width="0.1" stroke-linejoin="round" stroke-linecap="round" fill="none" d="
M 114.2662384033203 26.935809326171878
L 120.49910888671874 26.935809326171878 120.49910888671874 57.77734375000001 114.2662384033203 57.77734375000001 114.2662384033203 26.935809326171878 Z"/>

<path id="Layer0_0_MEMBER_12_1_STROKES" stroke="#0066FF" stroke-opacity="0" stroke-width="0.1" stroke-linejoin="round" stroke-linecap="round" fill="none" d="
M 92.89043579101562 22.62329711914063
L 108.21187438964844 22.62329711914063 108.21187438964844 56.44468994140625 92.89043579101562 56.44468994140625 92.89043579101562 22.62329711914063 Z"/>

<path id="Layer0_0_MEMBER_13_1_STROKES" stroke="#0066FF" stroke-opacity="0" stroke-width="0.1" stroke-linejoin="round" stroke-linecap="round" fill="none" d="
M 86.85389099121093 22.815341186523433
L 70.36534118652344 22.815341186523433 70.36534118652344 26.962310791015625 86.85389099121093 26.962310791015625 86.85389099121093 22.815341186523433 Z"/>

<path id="Layer0_0_MEMBER_14_1_STROKES" stroke="#0066FF" stroke-opacity="0" stroke-width="0.1" stroke-linejoin="round" stroke-linecap="round" fill="none" d="
M 69.8951904296875 12.227352905273435
L 131.18094482421876 12.227352905273435
Q 133.41583862304688 12.227352905273435 134.98026428222656 13.791778564453125 136.54468994140626 15.356204223632815 136.54468994140626 17.59109802246094
L 136.54468994140626 17.615930175781244
Q 136.54468994140626 19.85082397460937 134.98026428222656 21.41524963378906 133.41583862304688 22.97967529296875 131.18094482421876 22.97967529296875
L 69.8951904296875 22.97967529296875
Q 67.66029663085938 22.97967529296875 66.09587097167969 21.41524963378906 64.5314453125 19.85082397460937 64.5314453125 17.615930175781244
L 64.5314453125 17.59109802246094
Q 64.5314453125 15.356204223632815 66.09587097167969 13.791778564453125 67.66029663085938 12.227352905273435 69.8951904296875 12.227352905273435 Z"/>

<path id="Layer0_0_MEMBER_15_1_STROKES" stroke="#0066FF" stroke-opacity="0" stroke-width="0.1" stroke-linejoin="round" stroke-linecap="round" fill="none" d="
M 69.8951904296875 11.227352905273435
L 131.18094482421876 11.227352905273435
Q 133.41583862304688 11.227352905273435 134.98026428222656 12.791778564453125 136.54468994140626 14.356204223632815 136.54468994140626 16.59109802246094
L 136.54468994140626 16.615930175781244
Q 136.54468994140626 18.85082397460937 134.98026428222656 20.41524963378906 133.41583862304688 21.97967529296875 131.18094482421876 21.97967529296875
L 69.8951904296875 21.97967529296875
Q 67.66029663085938 21.97967529296875 66.09587097167969 20.41524963378906 64.5314453125 18.85082397460937 64.5314453125 16.615930175781244
L 64.5314453125 16.59109802246094
Q 64.5314453125 14.356204223632815 66.09587097167969 12.791778564453125 67.66029663085938 11.227352905273435 69.8951904296875 11.227352905273435 Z"/>

<path id="Layer0_0_MEMBER_16_MEMBER_0_1_STROKES" stroke="#0066FF" stroke-opacity="0" stroke-width="0.1" stroke-linejoin="round" stroke-linecap="round" fill="none" d="
M 110.16893310546874 14.103311157226562
Q 110.16893310546874 14.873107910156248 109.59779357910156 15.419415283203124 109.05148620605468 15.99055480957031 108.28168945312501 15.99055480957031 107.51189270019532 15.99055480957031 106.94075317382811 15.419415283203124 106.39444580078126 14.873107910156248 106.39444580078126 14.103311157226562 106.39444580078126 13.333514404296876 106.94075317382811 12.762374877929686 107.51189270019532 12.216067504882814 108.28168945312501 12.216067504882814 109.05148620605468 12.216067504882814 109.59779357910156 12.762374877929686 110.16893310546874 13.333514404296876 110.16893310546874 14.103311157226562 Z"/>

<path id="Layer0_0_MEMBER_16_MEMBER_1_1_STROKES" stroke="#0066FF" stroke-opacity="0" stroke-width="0.1" stroke-linejoin="round" stroke-linecap="round" fill="none" d="
M 113.22427673339843 12.866275024414065
L 130.432958984375 12.866275024414065
Q 130.95443420410157 12.866275024414065 131.32691650390626 13.238757324218753 131.72423095703124 13.636071777343744 131.72423095703124 14.157546997070312
L 131.72423095703124 14.18237915039063
Q 131.72423095703124 14.703854370117185 131.32691650390626 15.076336669921872 130.95443420410157 15.473651123046878 130.432958984375 15.473651123046878
L 113.22427673339843 15.473651123046878
Q 112.70280151367189 15.473651123046878 112.30548706054688 15.076336669921872 111.9330047607422 14.703854370117185 111.9330047607422 14.18237915039063
L 111.9330047607422 14.157546997070312
Q 111.9330047607422 13.636071777343744 112.30548706054688 13.238757324218753 112.70280151367189 12.866275024414065 113.22427673339843 12.866275024414065 Z"/>

<path id="Layer0_0_MEMBER_17_1_STROKES" stroke="#0066FF" stroke-opacity="0" stroke-width="0.1" stroke-linejoin="round" stroke-linecap="round" fill="none" d="
M 108.20194396972657 22.949136352539064
L 92.90388488769531 22.949136352539064 92.90388488769531 27.09610595703125 108.20194396972657 27.09610595703125 108.20194396972657 22.949136352539064 Z"/>

<path id="Layer0_0_MEMBER_18_1_STROKES" stroke="#FFFFFF" stroke-opacity="0" stroke-width="1" stroke-linejoin="round" stroke-linecap="round" fill="none" d="
M 83.6993797302246 56.97848358154296
L 117.08679275512695 56.97848358154296
Q 121.26636581420898 56.97848358154296 121.26636581420898 61.100210571289054
L 121.26636581420898 67.8162010192871
Q 121.26636581420898 71.9379280090332 117.08679275512695 71.9379280090332
L 83.6993797302246 71.9379280090332
Q 79.51980667114258 71.9379280090332 79.51980667114258 67.8162010192871
L 79.51980667114258 61.100210571289054
Q 79.51980667114258 56.97848358154296 83.6993797302246 56.97848358154296 Z"/>

<path id="Layer0_0_MEMBER_19_1_STROKES" stroke="#FFFFFF" stroke-opacity="0" stroke-width="1" stroke-linejoin="round" stroke-linecap="round" fill="none" d="
M 83.6993797302246 54.67848358154296
L 117.08679275512695 54.67848358154296
Q 121.26636581420898 54.67848358154296 121.26636581420898 58.80021057128906
L 121.26636581420898 65.51620101928711
Q 121.26636581420898 69.6379280090332 117.08679275512695 69.6379280090332
L 83.6993797302246 69.6379280090332
Q 79.51980667114258 69.6379280090332 79.51980667114258 65.51620101928711
L 79.51980667114258 58.80021057128906
Q 79.51980667114258 54.67848358154296 83.6993797302246 54.67848358154296 Z"/>

<path id="Layer0_0_MEMBER_21_1_STROKES" stroke="#0066FF" stroke-opacity="0" stroke-width="0.1" stroke-linejoin="round" stroke-linecap="round" fill="none" d="
M 118.26421508789062 57.360922241210936
Q 118.26421508789062 57.95689392089844 117.817236328125 58.403872680664065 117.37025756835936 58.850851440429686 116.77428588867187 58.850851440429686 116.17831420898438 58.850851440429686 115.73133544921876 58.403872680664065 115.30918884277344 57.95689392089844 115.30918884277344 57.360922241210936 115.30918884277344 56.76495056152344 115.73133544921876 56.317971801757814 116.17831420898438 55.895825195312504 116.77428588867187 55.895825195312504 117.37025756835936 55.895825195312504 117.817236328125 56.317971801757814 118.26421508789062 56.76495056152344 118.26421508789062 57.360922241210936 Z"/>

<path id="Layer0_0_MEMBER_22_1_STROKES" stroke="#0066FF" stroke-opacity="0" stroke-width="0.1" stroke-linejoin="round" stroke-linecap="round" fill="none" d="
M 95.88652191162109 72.72974395751953
Q 95.88652191162109 73.62976455688477 95.2579360961914 74.25835037231445 94.62935028076171 74.88693618774414 93.72932968139648 74.88693618774414 92.82930908203124 74.88693618774414 92.20072326660156 74.25835037231445 91.57213745117187 73.62976455688477 91.57213745117187 72.72974395751953 91.57213745117187 71.8297233581543 92.20072326660156 71.20113754272461 92.82930908203124 70.57255172729492 93.72932968139648 70.57255172729492 94.62935028076171 70.57255172729492 95.2579360961914 71.20113754272461 95.88652191162109 71.8297233581543 95.88652191162109 72.72974395751953 Z"/>

<path id="Layer0_0_MEMBER_23_1_STROKES" stroke="#0066FF" stroke-opacity="0" stroke-width="0.1" stroke-linejoin="round" stroke-linecap="round" fill="none" d="
M 109.13652191162109 72.72974395751953
Q 109.13652191162109 73.62976455688477 108.5079360961914 74.25835037231445 107.87935028076171 74.88693618774414 106.97932968139648 74.88693618774414 106.07930908203124 74.88693618774414 105.45072326660156 74.25835037231445 104.82213745117187 73.62976455688477 104.82213745117187 72.72974395751953 104.82213745117187 71.8297233581543 105.45072326660156 71.20113754272461 106.07930908203124 70.57255172729492 106.97932968139648 70.57255172729492 107.87935028076171 70.57255172729492 108.5079360961914 71.20113754272461 109.13652191162109 71.8297233581543 109.13652191162109 72.72974395751953 Z"/>

<path id="Layer0_0_MEMBER_24_1_STROKES" stroke="#0066FF" stroke-opacity="0" stroke-width="0.1" stroke-linejoin="round" stroke-linecap="round" fill="none" d="
M 88.38652191162109 74.97974395751953
Q 88.38652191162109 75.87976455688477 87.7579360961914 76.50835037231445 87.12935028076171 77.13693618774414 86.22932968139648 77.13693618774414 85.32930908203124 77.13693618774414 84.70072326660156 76.50835037231445 84.07213745117187 75.87976455688477 84.07213745117187 74.97974395751953 84.07213745117187 74.0797233581543 84.70072326660156 73.45113754272461 85.32930908203124 72.82255172729492 86.22932968139648 72.82255172729492 87.12935028076171 72.82255172729492 87.7579360961914 73.45113754272461 88.38652191162109 74.0797233581543 88.38652191162109 74.97974395751953 Z"/>

<path id="Layer0_0_MEMBER_25_1_STROKES" stroke="#0066FF" stroke-opacity="0" stroke-width="0.1" stroke-linejoin="round" stroke-linecap="round" fill="none" d="
M 116.1865219116211 74.97974395751953
Q 116.1865219116211 75.87976455688477 115.55793609619141 76.50835037231445 114.92935028076172 77.13693618774414 114.02932968139649 77.13693618774414 113.12930908203126 77.13693618774414 112.50072326660157 76.50835037231445 111.87213745117188 75.87976455688477 111.87213745117188 74.97974395751953 111.87213745117188 74.0797233581543 112.50072326660157 73.45113754272461 113.12930908203126 72.82255172729492 114.02932968139649 72.82255172729492 114.92935028076172 72.82255172729492 115.55793609619141 73.45113754272461 116.1865219116211 74.0797233581543 116.1865219116211 74.97974395751953 Z"/>

<path id="Layer0_0_MEMBER_26_1_STROKES" stroke="#0066FF" stroke-opacity="0" stroke-width="0.1" stroke-linejoin="round" stroke-linecap="round" fill="none" d="
M 94.68247985839844 72.71816711425782
Q 94.68247985839844 73.1181655883789 94.40311584472656 73.39752960205078 94.12375183105469 73.67689361572266 93.7237533569336 73.67689361572266 93.3237548828125 73.67689361572266 93.04439086914063 73.39752960205078 92.76502685546875 73.1181655883789 92.76502685546875 72.71816711425782 92.76502685546875 72.31816864013672 93.04439086914063 72.03880462646484 93.3237548828125 71.75944061279297 93.7237533569336 71.75944061279297 94.12375183105469 71.75944061279297 94.40311584472656 72.03880462646484 94.68247985839844 72.31816864013672 94.68247985839844 72.71816711425782 Z"/>

<path id="Layer0_0_MEMBER_27_1_STROKES" stroke="#0066FF" stroke-opacity="0" stroke-width="0.1" stroke-linejoin="round" stroke-linecap="round" fill="none" d="
M 107.83247985839844 72.71816711425782
Q 107.83247985839844 73.1181655883789 107.55311584472656 73.39752960205078 107.2737518310547 73.67689361572266 106.8737533569336 73.67689361572266 106.4737548828125 73.67689361572266 106.19439086914063 73.39752960205078 105.91502685546875 73.1181655883789 105.91502685546875 72.71816711425782 105.91502685546875 72.31816864013672 106.19439086914063 72.03880462646484 106.4737548828125 71.75944061279297 106.8737533569336 71.75944061279297 107.2737518310547 71.75944061279297 107.55311584472656 72.03880462646484 107.83247985839844 72.31816864013672 107.83247985839844 72.71816711425782 Z"/>
</defs>

<g transform="matrix( 0.49664306640625, 0, 0, 0.49664306640625, 31.6,-3.9) ">
<use xlink:href="#Layer0_0_FILL"/>

<use xlink:href="#Layer0_0_1_STROKES" transform="matrix( 2.0135040283203125, 0, 0, 2.0135040283203125, -63.6,7.85) "/>

<use xlink:href="#Layer0_0_2_STROKES" transform="matrix( 2.0135040283203125, 0, 0, 2.0135040283203125, -63.6,7.85) "/>
</g>

<g transform="matrix( -0.3885345458984375, 0.004241943359375, 0.004241943359375, 0.3885345458984375, 109.8,169.6) ">
<use xlink:href="#Layer0_0_MEMBER_0_FILL"/>

<use xlink:href="#Layer0_0_MEMBER_0_1_STROKES" transform="matrix( -2.573455810546875, 0.0280914306640625, 0.0280914306640625, 2.573455810546875, 277.8,-439.5) "/>
</g>

<g transform="matrix( 0.326385498046875, 0, 0, 0.3218536376953125, 50.8,0.6) ">
<use xlink:href="#Layer0_0_MEMBER_1_FILL"/>

<use xlink:href="#Layer0_0_MEMBER_1_1_STROKES" transform="matrix( 3.0638580322265625, 0, 0, 3.10699462890625, -155.6,-1.85) "/>
</g>

<g transform="matrix( 0.6512298583984375, 0, 0, 0.6512298583984375, 10.85,-41.75) ">
<use xlink:href="#Layer0_0_MEMBER_2_FILL"/>

<use xlink:href="#Layer0_0_MEMBER_2_1_STROKES" transform="matrix( 1.535552978515625, 0, 0, 1.535552978515625, -16.65,64.1) "/>
</g>

<g transform="matrix( 0.6512298583984375, 0, 0, 0.6512298583984375, 38.75,-41.75) ">
<use xlink:href="#Layer0_0_MEMBER_3_FILL"/>

<use xlink:href="#Layer0_0_MEMBER_3_1_STROKES" transform="matrix( 1.535552978515625, 0, 0, 1.535552978515625, -59.5,64.1) "/>
</g>

<g transform="matrix( 0.4826812744140625, 0, 0, 0.4826812744140625, 31.2,-50.45) ">
<use xlink:href="#Layer0_0_MEMBER_4_FILL"/>

<use xlink:href="#Layer0_0_MEMBER_4_1_STROKES" transform="matrix( 2.071746826171875, 0, 0, 2.071746826171875, -64.6,104.5) "/>
</g>

<g transform="matrix( 0.4826812744140625, 0, 0, 0.47076416015625, 31.2,-47.25) ">
<use xlink:href="#Layer0_0_MEMBER_5_FILL"/>

<use xlink:href="#Layer0_0_MEMBER_5_1_STROKES" transform="matrix( 2.071746826171875, 0, 0, 2.1241912841796875, -64.6,100.35) "/>
</g>

<g transform="matrix( 0.412506103515625, 0, 0, 0.412506103515625, 41.2,-25.4) ">
<use xlink:href="#Layer0_0_MEMBER_6_FILL"/>

<use xlink:href="#Layer0_0_MEMBER_6_1_STROKES" transform="matrix( 2.4241943359375, 0, 0, 2.4241943359375, -99.85,61.55) "/>
</g>

<g transform="matrix( 0.412506103515625, 0, 0, 0.384735107421875, 41.2,-12.85) ">
<use xlink:href="#Layer0_0_MEMBER_7_FILL"/>

<use xlink:href="#Layer0_0_MEMBER_7_1_STROKES" transform="matrix( 2.4241943359375, 0, 0, 2.59918212890625, -99.85,33.35) "/>
</g>

<g transform="matrix( 0.428985595703125, 0, 0, 0.428985595703125, 36.85,-34.25) ">
<use xlink:href="#Layer0_0_MEMBER_8_FILL"/>

<use xlink:href="#Layer0_0_MEMBER_8_1_STROKES" transform="matrix( 2.3310699462890625, 0, 0, 2.3310699462890625, -85.9,79.8) "/>
</g>

<g transform="matrix( 0.492156982421875, 0, 0, 0.49664306640625, 100.45,-55) ">
<use xlink:href="#Layer0_0_MEMBER_9_FILL"/>

<use xlink:href="#Layer0_0_MEMBER_9_1_STROKES" transform="matrix( 2.0318603515625, 0, 0, 2.0135040283203125, -204.1,110.7) "/>
</g>

<g transform="matrix( 0.49664306640625, 0, 0, 0.49664306640625, 24.8,-55) ">
<use xlink:href="#Layer0_0_MEMBER_10_FILL"/>

<use xlink:href="#Layer0_0_MEMBER_10_1_STROKES" transform="matrix( 2.0135040283203125, 0, 0, 2.0135040283203125, -49.9,110.7) "/>
</g>

<g transform="matrix( 0.49664306640625, 0, 0, 0.49664306640625, 31.6,-12.15) ">
<use xlink:href="#Layer0_0_MEMBER_11_FILL"/>

<use xlink:href="#Layer0_0_MEMBER_11_1_STROKES" transform="matrix( 2.0135040283203125, 0, 0, 2.0135040283203125, -63.6,24.45) "/>
</g>

<g transform="matrix( 0.49664306640625, 0, 0, 0.49664306640625, 24.9,-55.3) ">
<use xlink:href="#Layer0_0_MEMBER_12_FILL"/>

<use xlink:href="#Layer0_0_MEMBER_12_1_STROKES" transform="matrix( 2.0135040283203125, 0, 0, 2.0135040283203125, -50.1,111.3) "/>
</g>

<g transform="matrix( 0.49664306640625, 0, 0, 0.49664306640625, 31.95,-15.6) ">
<use xlink:href="#Layer0_0_MEMBER_13_FILL"/>

<use xlink:href="#Layer0_0_MEMBER_13_1_STROKES" transform="matrix( 2.0135040283203125, 0, 0, 2.0135040283203125, -64.3,31.4) "/>
</g>

<g transform="matrix( 0.49664306640625, 0, 0, 0.49664306640625, 24.8,-54) ">
<use xlink:href="#Layer0_0_MEMBER_14_FILL"/>

<use xlink:href="#Layer0_0_MEMBER_14_1_STROKES" transform="matrix( 2.0135040283203125, 0, 0, 2.0135040283203125, -49.9,108.7) "/>
</g>

<g transform="matrix( 0.49664306640625, 0, 0, 0.49664306640625, 24.8,-55) ">
<use xlink:href="#Layer0_0_MEMBER_15_FILL"/>

<use xlink:href="#Layer0_0_MEMBER_15_1_STROKES" transform="matrix( 2.0135040283203125, 0, 0, 2.0135040283203125, -49.9,110.7) "/>
</g>

<g transform="matrix( 0.49664306640625, 0, 0, 0.49664306640625, 31.6,-3.9) ">
<use xlink:href="#Layer0_0_MEMBER_16_MEMBER_0_FILL"/>

<use xlink:href="#Layer0_0_MEMBER_16_MEMBER_0_1_STROKES" transform="matrix( 2.0135040283203125, 0, 0, 2.0135040283203125, -63.6,7.85) "/>
</g>

<g transform="matrix( 0.49664306640625, 0, 0, 0.49664306640625, 24.35,-55) ">
<use xlink:href="#Layer0_0_MEMBER_16_MEMBER_1_FILL"/>

<use xlink:href="#Layer0_0_MEMBER_16_MEMBER_1_1_STROKES" transform="matrix( 2.0135040283203125, 0, 0, 2.0135040283203125, -49,110.7) "/>
</g>

<g transform="matrix( -0.460784912109375, 0, 0, 0.49664306640625, 121.15,-54.85) ">
<use xlink:href="#Layer0_0_MEMBER_17_FILL"/>

<use xlink:href="#Layer0_0_MEMBER_17_1_STROKES" transform="matrix( -2.170196533203125, 0, 0, 2.0135040283203125, 262.9,110.4) "/>
</g>

<g transform="matrix( 0.4917144775390625, 0, 0, 0.4849090576171875, 25.8,-49.75) ">
<use xlink:href="#Layer0_0_MEMBER_18_FILL"/>

<use xlink:href="#Layer0_0_MEMBER_18_1_STROKES" transform="matrix( 2.03369140625, 0, 0, 2.0622406005859375, -52.45,102.55) "/>
</g>

<g transform="matrix( 0.4917144775390625, 0, 0, 0.4849090576171875, 25.8,-52.05) ">
<use xlink:href="#Layer0_0_MEMBER_19_FILL"/>

<use xlink:href="#Layer0_0_MEMBER_19_1_STROKES" transform="matrix( 2.03369140625, 0, 0, 2.0622406005859375, -52.45,107.3) "/>
</g>

<g transform="matrix( 0.1959075927734375, 0, 0, 0.1959075927734375, 95.6,57.25) ">
<use xlink:href="#Layer0_0_MEMBER_20_FILL"/>
</g>

<g transform="matrix( 0.49664306640625, 0, 0, 0.49664306640625, 31.6,-3.9) ">
<use xlink:href="#Layer0_0_MEMBER_21_FILL"/>

<use xlink:href="#Layer0_0_MEMBER_21_1_STROKES" transform="matrix( 2.0135040283203125, 0, 0, 2.0135040283203125, -63.6,7.85) "/>
</g>

<g transform="matrix( 0.2857208251953125, 0, 0, 0.2857208251953125, 60.6,21.5) ">
<use xlink:href="#Layer0_0_MEMBER_22_FILL"/>

<use xlink:href="#Layer0_0_MEMBER_22_1_STROKES" transform="matrix( 3.499908447265625, 0, 0, 3.499908447265625, -212.05,-75.2) "/>
</g>

<g transform="matrix( 0.2857208251953125, 0, 0, 0.2857208251953125, 73.85,21.5) ">
<use xlink:href="#Layer0_0_MEMBER_23_FILL"/>

<use xlink:href="#Layer0_0_MEMBER_23_1_STROKES" transform="matrix( 3.499908447265625, 0, 0, 3.499908447265625, -258.45,-75.2) "/>
</g>

<g transform="matrix( 0.2857208251953125, 0, 0, 0.2857208251953125, 53.1,23.75) ">
<use xlink:href="#Layer0_0_MEMBER_24_FILL"/>

<use xlink:href="#Layer0_0_MEMBER_24_1_STROKES" transform="matrix( 3.499908447265625, 0, 0, 3.499908447265625, -185.8,-83.1) "/>
</g>

<g transform="matrix( 0.2857208251953125, 0, 0, 0.2857208251953125, 80.9,23.75) ">
<use xlink:href="#Layer0_0_MEMBER_25_FILL"/>

<use xlink:href="#Layer0_0_MEMBER_25_1_STROKES" transform="matrix( 3.499908447265625, 0, 0, 3.499908447265625, -283.1,-83.1) "/>
</g>

<g transform="matrix( 0.126983642578125, 0, 0, 0.126983642578125, 79,49.95) ">
<use xlink:href="#Layer0_0_MEMBER_26_FILL"/>

<use xlink:href="#Layer0_0_MEMBER_26_1_STROKES" transform="matrix( 7.875030517578125, 0, 0, 7.875030517578125, -622.1,-393.35) "/>
</g>

<g transform="matrix( 0.126983642578125, 0, 0, 0.126983642578125, 92.15,49.95) ">
<use xlink:href="#Layer0_0_MEMBER_27_FILL"/>

<use xlink:href="#Layer0_0_MEMBER_27_1_STROKES" transform="matrix( 7.875030517578125, 0, 0, 7.875030517578125, -725.65,-393.35) "/>
</g>

<g transform="matrix( 0.1071014404296875, 0, 0, 0.1071014404296875, 72.45,98.3) ">
<use xlink:href="#Layer0_0_MEMBER_28_FILL"/>
</g>

<g transform="matrix( 0.1071014404296875, 0, 0, 0.1071014404296875, 72.45,96.7) ">
<use xlink:href="#Layer0_0_MEMBER_29_FILL"/>
</g>

<g transform="matrix( 0.064483642578125, 0, 0, 0.064483642578125, 82.2,105.55) ">
<use xlink:href="#Layer0_0_MEMBER_30_MEMBER_0_FILL"/>
</g>

<g transform="matrix( 0.064483642578125, 0, 0, 0.064483642578125, 82.2,105.55) ">
<use xlink:href="#Layer0_0_MEMBER_30_MEMBER_1_FILL"/>
</g>

<g transform="matrix( 0.064483642578125, 0, 0, 0.064483642578125, 82.2,105.55) ">
<use xlink:href="#Layer0_0_MEMBER_30_MEMBER_2_FILL"/>
</g>

<g transform="matrix( 0.064483642578125, 0, 0, 0.064483642578125, 82.2,105.55) ">
<use xlink:href="#Layer0_0_MEMBER_30_MEMBER_3_FILL"/>
</g>

<g transform="matrix( 0.064483642578125, 0, 0, 0.064483642578125, 82.2,105.55) ">
<use xlink:href="#Layer0_0_MEMBER_30_MEMBER_4_FILL"/>
</g>

<g transform="matrix( 0.064483642578125, 0, 0, 0.064483642578125, 82.2,105.55) ">
<use xlink:href="#Layer0_0_MEMBER_30_MEMBER_5_FILL"/>
</g>

<g transform="matrix( 0.064483642578125, 0, 0, 0.064483642578125, 82.2,105.55) ">
<use xlink:href="#Layer0_0_MEMBER_30_MEMBER_6_FILL"/>
</g>

<g transform="matrix( 0.064483642578125, 0, 0, 0.064483642578125, 82.2,105.55) ">
<use xlink:href="#Layer0_0_MEMBER_30_MEMBER_7_FILL"/>
</g>

<g transform="matrix( 0.064483642578125, 0, 0, 0.064483642578125, 82.2,105.55) ">
<use xlink:href="#Layer0_0_MEMBER_30_MEMBER_8_FILL"/>
</g>

<g transform="matrix( 0.064483642578125, 0, 0, 0.064483642578125, 82.2,105.55) ">
<use xlink:href="#Layer0_0_MEMBER_30_MEMBER_9_FILL"/>
</g>

<g transform="matrix( 0.064483642578125, 0, 0, 0.064483642578125, 82.2,105.55) ">
<use xlink:href="#Layer0_0_MEMBER_30_MEMBER_10_FILL"/>
</g>

<g transform="matrix( 0.064483642578125, 0, 0, 0.064483642578125, 82.2,105.55) ">
<use xlink:href="#Layer0_0_MEMBER_30_MEMBER_11_FILL"/>
</g>

<g transform="matrix( 0.064483642578125, 0, 0, 0.064483642578125, 82.2,105.55) ">
<use xlink:href="#Layer0_0_MEMBER_30_MEMBER_12_FILL"/>
</g>

<g transform="matrix( 0.064483642578125, 0, 0, 0.064483642578125, 82.2,105.55) ">
<use xlink:href="#Layer0_0_MEMBER_30_MEMBER_13_FILL"/>
</g>
</svg>
