
<svg xmlns="http://www.w3.org/2000/svg" version="1.1" xmlns:xlink="http://www.w3.org/1999/xlink" preserveAspectRatio="none" x="0px" y="0px" width="200px" height="200px" viewBox="0 0 200 200">
<defs>
<linearGradient id="Gradient_1" gradientUnits="userSpaceOnUse" x1="26.700000000000003" y1="158.5" x2="56.7" y2="158.5" spreadMethod="pad">
<stop  offset="45.88235294117647%" stop-color="#052C43"/>

<stop  offset="45.88235294117647%" stop-color="#0A405D"/>
</linearGradient>

<g id="Layer2_0_FILL">
<path fill="#FFFFFF" stroke="none" d="
M 404.35 53.5
L 392 53.5 392 120.55 404.35 120.55 404.35 53.5
M 361.6 53.65
L 349.25 53.65 349.25 120.7 361.6 120.7 361.6 53.65 Z"/>

<path fill="#34829B" stroke="none" d="
M 336.7 60.15
Q 336.7 54.7 332.35 54.7
L 320.5 54.7
Q 316.15 54.7 316.15 60.15
L 316.15 110.25
Q 315.55 117.4 319.4 119
L 327.75 122.75
Q 331.9 124.7 334.2 125.8 336.55 126.85 336.7 126.7
L 336.7 60.15
M 421.05 54.1
Q 416.7 54.1 416.7 59.55
L 416.7 126.1
Q 416.85 126.25 419.2 125.2 421.5 124.1 425.65 122.15
L 434 118.4
Q 437.85 116.8 437.25 109.65
L 437.25 59.55
Q 437.25 54.1 432.9 54.1
L 421.05 54.1 Z"/>
</g>

<g id="Layer2_0_MEMBER_0_FILL">
<path fill="url(#Gradient_1)" stroke="none" d="
M 28.1 156.65
L 28.1 165 61.3 165 61.3 156.65 28.1 156.65 Z"/>
</g>

<g id="Layer2_0_MEMBER_1_FILL">
<path fill="#236681" stroke="none" d="
M 125 165
L 112.45 165 112.45 227.1 125 227.1 125 165 Z"/>
</g>

<g id="Layer2_0_MEMBER_2_FILL">
<path fill="#236681" stroke="none" d="
M 40.65 165
L 28.1 165 28.1 227.1 40.65 227.1 40.65 165 Z"/>
</g>

<g id="Layer2_0_MEMBER_3_FILL">
<path fill="#062D44" stroke="none" d="
M 167.75 156.9
L 136.9 156.9 136.9 225 167.75 225 167.75 156.9 Z"/>
</g>

<g id="Layer2_0_MEMBER_4_FILL">
<path fill="#43A3B7" stroke="none" d="
M 221.85 136.5
Q 218.7 133.35 214.2 133.35
L 90.8 133.35
Q 86.3 133.35 83.15 136.5 80 139.65 80 144.15
L 80 144.2
Q 80 148.7 83.15 151.85 86.3 155 90.8 155
L 214.2 155
Q 218.7 155 221.85 151.85 225 148.7 225 144.2
L 225 144.15
Q 225 139.65 221.85 136.5 Z"/>
</g>

<g id="Layer2_0_MEMBER_5_FILL">
<path fill="#4EB1D1" stroke="none" d="
M 221.85 136.5
Q 218.7 133.35 214.2 133.35
L 90.8 133.35
Q 86.3 133.35 83.15 136.5 80 139.65 80 144.15
L 80 144.2
Q 80 148.7 83.15 151.85 86.3 155 90.8 155
L 214.2 155
Q 218.7 155 221.85 151.85 225 148.7 225 144.2
L 225 144.15
Q 225 139.65 221.85 136.5 Z"/>
</g>

<g id="Layer2_0_MEMBER_6_FILL">
<path fill="url(#Gradient_1)" stroke="none" d="
M 28.1 156.65
L 28.1 165 61.3 165 61.3 156.65 28.1 156.65 Z"/>
</g>

<g id="Layer2_0_MEMBER_7_MEMBER_0_FILL">
<path fill="#FFFFFF" stroke="none" d="
M 394.95 38.9
Q 396.1 37.8 396.1 36.25 396.1 34.7 394.95 33.55 393.85 32.45 392.3 32.45 390.75 32.45 389.6 33.55 388.5 34.7 388.5 36.25 388.5 37.8 389.6 38.9 390.75 40.05 392.3 40.05 393.85 40.05 394.95 38.9 Z"/>
</g>

<g id="Layer2_0_MEMBER_7_MEMBER_1_FILL">
<path fill="#FFFFFF" stroke="none" d="
M 215.4 137.4
Q 214.65 136.65 213.6 136.65
L 178.95 136.65
Q 177.9 136.65 177.1 137.4 176.35 138.2 176.35 139.25
L 176.35 139.3
Q 176.35 140.35 177.1 141.1 177.9 141.9 178.95 141.9
L 213.6 141.9
Q 214.65 141.9 215.4 141.1 216.2 140.35 216.2 139.3
L 216.2 139.25
Q 216.2 138.2 215.4 137.4 Z"/>
</g>

<g id="Layer2_0_MEMBER_8_FILL">
<path fill="#041D2B" stroke="none" d="
M 28.1 156.65
L 28.1 165 61.3 165 61.3 156.65 28.1 156.65 Z"/>
</g>

<g id="Layer2_0_MEMBER_9_FILL">
<path fill="#062D44" stroke="none" d="
M 109.25 228.6
L 109.25 242.45
Q 109.25 250.95 117.75 250.95
L 185.65 250.95
Q 194.15 250.95 194.15 242.45
L 194.15 228.6
Q 194.15 220.1 185.65 220.1
L 117.75 220.1
Q 109.25 220.1 109.25 228.6 Z"/>
</g>

<g id="Layer2_0_MEMBER_10_FILL">
<path fill="#3283A3" stroke="none" d="
M 142.5 265
Q 104.2 265 77.1 292.1 50 319.2 50 357.5 50 395.8 77.1 422.9 104.2 450 142.5 450 180.8 450 207.9 422.9 235 395.8 235 357.5 235 319.2 207.9 292.1 180.8 265 142.5 265 Z"/>
</g>

<g id="Layer2_0_MEMBER_11_FILL">
<path fill="#0A405D" stroke="none" d="
M 121.3 173.95
Q 119.1 171.75 115.95 171.75 112.8 171.75 110.6 173.95 108.4 176.15 108.4 179.3 108.4 182.45 110.6 184.65 112.8 186.85 115.95 186.85 119.1 186.85 121.3 184.65 123.5 182.45 123.5 179.3 123.5 176.15 121.3 173.95 Z"/>
</g>

<g id="Layer2_0_MEMBER_12_FILL">
<path fill="#0A405D" stroke="none" d="
M 121.3 173.95
Q 119.1 171.75 115.95 171.75 112.8 171.75 110.6 173.95 108.4 176.15 108.4 179.3 108.4 182.45 110.6 184.65 112.8 186.85 115.95 186.85 119.1 186.85 121.3 184.65 123.5 182.45 123.5 179.3 123.5 176.15 121.3 173.95 Z"/>
</g>

<g id="Layer2_0_MEMBER_13_FILL">
<path fill="#4EB1D1" stroke="none" d="
M 142.5 265
Q 104.2 265 77.1 292.1 50 319.2 50 357.5 50 395.8 77.1 422.9 104.2 450 142.5 450 180.8 450 207.9 422.9 235 395.8 235 357.5 235 319.2 207.9 292.1 180.8 265 142.5 265 Z"/>
</g>

<g id="Layer2_0_MEMBER_14_FILL">
<path fill="#439BB7" stroke="none" d="
M 142.5 265
Q 104.2 265 77.1 292.1 50 319.2 50 357.5 50 395.8 77.1 422.9 104.2 450 142.5 450 180.8 450 207.9 422.9 235 395.8 235 357.5 235 319.2 207.9 292.1 180.8 265 142.5 265 Z"/>
</g>

<g id="Layer2_0_MEMBER_15_FILL">
<path fill="#85C9DD" stroke="none" d="
M 142.5 265
Q 104.2 265 77.1 292.1 50 319.2 50 357.5 50 395.8 77.1 422.9 104.2 450 142.5 450 180.8 450 207.9 422.9 235 395.8 235 357.5 235 319.2 207.9 292.1 180.8 265 142.5 265 Z"/>
</g>

<g id="Layer2_0_MEMBER_16_FILL">
<path fill="#D3E4E7" fill-opacity="0.48627450980392156" stroke="none" d="
M 195 280
Q 188.8 280 184.4 284.4 180 288.8 180 295 180 301.2 184.4 305.6 188.8 310 195 310 201.2 310 205.6 305.6 210 301.2 210 295 210 288.8 205.6 284.4 201.2 280 195 280 Z"/>
</g>

<g id="Layer2_0_MEMBER_17_FILL">
<path fill="#4EB1D1" stroke="none" d="
M 40.9 47.6
Q 41.95 46.4 41.7 44.7
L 39.65 32.65
Q 39.5 31.8 40.1 31.25
L 48.85 22.7
Q 50.4 21.15 49.75 19.05 49 16.9 46.85 16.6
L 34.75 14.85
Q 33.95 14.7 33.55 14
L 28.15 3.05
Q 27.2 1.05 24.95 1.05 22.7 1.05 21.75 3.05
L 16.35 14
Q 15.9 14.75 15.15 14.85
L 3.05 16.6
Q 0.9 16.9 0.15 19.05 -0.45 21.2 1.05 22.7
L 9.8 31.25
Q 10.4 31.8 10.25 32.65
L 8.2 44.7
Q 7.9 46.35 9 47.6 9.8 48.55 11.05 48.8 12.3 49.05 13.4 48.45
L 24.2 42.75
Q 24.95 42.4 25.7 42.75
L 36.5 48.45
Q 37.25 48.9 38.15 48.9 39.75 48.9 40.9 47.6 Z"/>
</g>

<g id="Layer2_0_MEMBER_17_STROKES_1_FILL">
<path fill="#0066FF" fill-opacity="0" stroke="none" d="
M 12.7 48.8
Q 12.7697265625 48.8314453125 12.8 48.8 13.73671875 48.7287109375 14.75 48.25 15.76484375 47.814453125 16.5 47.15 17.3146484375 46.5642578125 18.35 46.15 19.4130859375 45.7634765625 20.35 45.15 21.3775390625 44.5498046875 21.95 44 22.5947265625 43.4748046875 23.5 43.4 24.539453125 43.4255859375 25.45 42.75 25.516796875 42.72265625 25.5 42.65 25.5318359375 42.6205078125 25.5 42.55 25.47265625 42.533203125 25.4 42.5 25.370703125 42.5181640625 25.3 42.55 24.4603515625 43.17421875 23.5 43.15 22.505078125 43.2251953125 21.8 43.8 21.222265625 44.35 20.2 44.95 19.2869140625 45.536328125 18.25 45.9 17.1853515625 46.3357421875 16.35 46.95 15.63515625 47.585546875 14.65 48 13.6634765625 48.4712890625 12.75 48.55 12.7279296875 48.5826171875 12.7 48.6 12.6685546875 48.6697265625 12.65 48.7 12.6826171875 48.7720703125 12.7 48.8
M 10.15 33.7
Q 10.3779296875 32.6490234375 10.25 31.65 10.2673828125 31.6279296875 10.2 31.6 10.18046875 31.5685546875 10.1 31.55 10.078125 31.5826171875 10.05 31.6 10.0185546875 31.66953125 10 31.7 10.121875 32.65078125 9.9 33.65 9.72421875 34.737890625 9.65 35.7 9.6677734375 36.626171875 9.15 37.65 8.719140625 38.77734375 8.7 39.7 8.7716796875 40.6369140625 8.5 41.5 8.27109375 42.4857421875 8.35 43.6
L 8.35 43.6
Q 8.52265625 44.7001953125 8.35 45.8
L 8.35 45.85
Q 8.261328125 47.14140625 8.8 47.45
L 8.85 47.45
Q 9.3998046875 47.75 10.25 48.2 11.1595703125 48.715625 12.35 48.9 12.429296875 48.9318359375 12.45 48.9 12.516796875 48.8728515625 12.5 48.8 12.5318359375 48.770703125 12.5 48.7 12.47265625 48.6830078125 12.4 48.65 11.2404296875 48.484375 10.35 48 9.5 47.55 8.95 47.25
L 8.95 47.25
Q 8.5431640625 46.9626953125 8.6 45.85 8.775390625 44.7125 8.6 43.6
L 8.6 43.55
Q 8.531640625 42.503125 8.75 41.55 9.0283203125 40.662890625 8.95 39.7 8.980859375 38.8228515625 9.4 37.75 9.9322265625 36.6736328125 9.9 35.7 9.97578125 34.762109375 10.15 33.7
M 3 16.45
Q 2.9509765625 16.455078125 2.9 16.45 2.0216796875 16.78828125 1.3 17.7 0.583984375 18.6892578125 0.25 19.4 -0.0435546875 20.2 0.25 21 0.5861328125 21.748828125 1.2 22.8 1.810546875 23.9298828125 2.55 24.6 3.362109375 25.299609375 3.95 25.9
L 3.95 25.9
Q 4.625 26.5 5.35 27.2 6.1125 27.8998046875 6.8 28.6
L 6.8 28.6
Q 7.575 29.3001953125 8.3 29.9 9.0623046875 30.538671875 9.8 31.4 9.841015625 31.4673828125 9.9 31.45 9.943359375 31.4814453125 9.95 31.45 10.017578125 31.4091796875 10 31.35 10.03125 31.306640625 10 31.25 9.2375 30.361328125 8.45 29.7 7.7248046875 29.0998046875 6.95 28.4
L 7 28.4
Q 6.2875 27.7 5.5 27 4.775 26.3 4.1 25.7
L 4.15 25.7
Q 3.537890625 25.1001953125 2.7 24.4 1.9892578125 23.7703125 1.4 22.7 0.8140625 21.651171875 0.5 20.9 0.2435546875 20.2 0.5 19.5 0.815625 18.8109375 1.5 17.85 2.1783203125 17.0115234375 3 16.7 3.0505859375 16.7021484375 3.05 16.65 3.094921875 16.6009765625 3.05 16.55 3.05234375 16.4994140625 3 16.45
M 17.55 11.7
Q 17.594921875 11.6490234375 17.55 11.6 17.5505859375 11.5478515625 17.5 11.5 17.4490234375 11.505078125 17.4 11.5 17.3478515625 11.5494140625 17.3 11.6 16.984375 12.5869140625 16.3 13.5 15.641015625 14.4193359375 14.75 14.4 13.771484375 14.430859375 13 14.85 12.2701171875 15.2283203125 11.3 15.15 10.3396484375 15.12265625 9 15.35 7.775 15.675 6.75 15.9 5.8421875 16.169921875 5.25 16.1 4.6970703125 16.0681640625 3.2 16.45 3.175390625 16.496875 3.15 16.55 3.1177734375 16.58515625 3.1 16.6 3.146875 16.674609375 3.2 16.7 3.23515625 16.7322265625 3.25 16.7 4.7029296875 16.3318359375 5.25 16.35 5.8578125 16.4298828125 6.8 16.15 7.825 15.9248046875 9.05 15.6 10.3599609375 15.3771484375 11.3 15.4 12.3294921875 15.4716796875 13.1 15.05 13.828125 14.6689453125 14.75 14.65 15.7587890625 14.6806640625 16.5 13.65 17.2154296875 12.712890625 17.55 11.7
M 27.15 2.25
Q 26.467578125 1.435546875 25.55 1.2 24.736328125 1.0146484375 23.95 1.25 23.171484375 1.5345703125 22.5 2.45 21.850390625 3.41015625 21.3 3.95
L 21.3 3.95
Q 20.8 4.5837890625 20.25 5.7 19.684765625 6.8138671875 19.45 7.7 19.2765625 8.5986328125 18.5 9.4 17.6755859375 10.3484375 17.5 11.3 17.5181640625 11.3796875 17.55 11.4 17.57734375 11.4669921875 17.6 11.45 17.6794921875 11.4818359375 17.7 11.45 17.7669921875 11.42265625 17.75 11.35 17.924609375 10.451171875 18.7 9.55 19.5232421875 8.7013671875 19.7 7.75 19.9150390625 6.8861328125 20.45 5.8 20.9998046875 4.7162109375 21.5 4.1
L 21.5 4.15
Q 22.0494140625 3.5900390625 22.7 2.6 23.3283203125 1.7654296875 24.05 1.5 24.7634765625 1.2853515625 25.5 1.45 26.332421875 1.6642578125 26.95 2.4 27.5998046875 3.2751953125 28.2 4.15 28.8 5.075390625 29.25 5.65 29.2775390625 5.7169921875 29.3 5.7 29.3798828125 5.7318359375 29.4 5.7 29.4671875 5.6724609375 29.45 5.6 29.481640625 5.5703125 29.45 5.5 28.999609375 4.92421875 28.4 4 27.8 3.1248046875 27.15 2.25
M 31.7 9.55
Q 31.1 8.45 30.55 7.35 29.9990234375 6.2833984375 29.65 5.8 29.622265625 5.7828125 29.55 5.75 29.519921875 5.768359375 29.45 5.8 29.4328125 5.827734375 29.4 5.85 29.418359375 5.930078125 29.45 5.95 29.8009765625 6.41640625 30.35 7.45 30.8998046875 8.55 31.5 9.65 32.0642578125 10.7521484375 32.1 11.25 32.165625 11.8298828125 33.1 12.9 34.0005859375 14.02578125 34.4 14.45 34.8828125 15.0173828125 35.9 15.05 36.8896484375 15.1265625 38.3 15.45 38.3779296875 15.48203125 38.4 15.45 38.466015625 15.4240234375 38.45 15.35 38.4822265625 15.3220703125 38.45 15.25 38.4240234375 15.233984375 38.35 15.2 36.9103515625 14.8732421875 35.9 14.8 35.0169921875 14.782421875 34.6 14.3 34.19921875 13.87421875 33.3 12.75 32.433984375 11.7697265625 32.35 11.25 32.3216796875 10.7328125 31.7 9.55
M 40.7 47.8
Q 40.67265625 47.7830078125 40.6 47.75 40.5705078125 47.768359375 40.5 47.8 39.609765625 48.476171875 38.55 48.5 37.5125 48.5736328125 36.45 48.4 35.452734375 48.2810546875 34.6 47.7 33.76328125 47.0998046875 32.65 46.5 31.5662109375 45.9501953125 30.95 45.45 30.3662109375 44.9361328125 29.4 44.5 28.449609375 44.1248046875 27.6 43.8
L 27.55 43.8
Q 26.748828125 43.576953125 25.75 42.65 25.7443359375 42.619140625 25.7 42.6 25.6419921875 42.6318359375 25.6 42.65 25.5689453125 42.70546875 25.55 42.75 25.5818359375 42.8078125 25.6 42.85 26.651171875 43.823046875 27.5 44.05
L 27.5 44.05
Q 28.35 44.3751953125 29.3 44.75 30.2337890625 45.1638671875 30.8 45.65 31.4337890625 46.15 32.55 46.7 33.6365234375 47.3 34.45 47.9 35.3470703125 48.51875 36.4 48.65 37.4873046875 48.826171875 38.55 48.75 39.6900390625 48.7236328125 40.65 48 40.7169921875 47.9724609375 40.7 47.9 40.7318359375 47.8703125 40.7 47.8
M 40.95 30.3
Q 40.926953125 30.333203125 40.9 30.35 40.0767578125 31.5583984375 39.95 31.95 39.8734375 32.430859375 39.85 33.7 39.9322265625 34.982421875 40.3 35.7 40.680859375 36.3814453125 40.7 37.45 40.77421875 38.6126953125 40.95 39.7 41.2232421875 40.8115234375 41.2 41.75 41.2734375 42.687109375 41.1 43.55 41.0201171875 44.496875 41.3 45.7 41.6087890625 46.844921875 40.8 47.5 40.7826171875 47.5408203125 40.75 47.6 40.768359375 47.6431640625 40.8 47.65 40.8408203125 47.717578125 40.9 47.7 40.94296875 47.7314453125 40.95 47.7 41.8912109375 46.9548828125 41.55 45.65 41.2796875 44.503125 41.35 43.6 41.5265625 42.7126953125 41.45 41.75 41.4767578125 40.7884765625 41.2 39.65 41.0255859375 38.5873046875 40.95 37.45 40.9189453125 36.318359375 40.5 35.6 40.167578125 34.917578125 40.1 33.7 40.1263671875 32.46875 40.2 32 40.3232421875 31.6416015625 41.1 30.5 41.1318359375 30.4791015625 41.1 30.4 41.1166015625 30.376953125 41.05 30.35 41.0291015625 30.31796875 40.95 30.3
M 46.45 16.75
L 46.45 16.75
Q 45.7404296875 16.33515625 44.75 16.1 43.8248046875 15.9248046875 42.7 15.6 41.6115234375 15.371484375 40.6 15.45 39.625390625 15.5697265625 38.7 15.25 38.6484375 15.2677734375 38.6 15.3 38.5474609375 15.3123046875 38.5 15.35 38.5177734375 15.4015625 38.55 15.45 38.562109375 15.5025390625 38.6 15.5 39.58671875 15.8298828125 40.6 15.7 41.6009765625 15.628515625 42.65 15.85 43.7751953125 16.175 44.7 16.35 45.659765625 16.56484375 46.35 16.95
L 46.3 16.95
Q 47.035546875 17.41328125 48 17.75 48.9447265625 18.1525390625 49.25 19.05 49.6150390625 20.0115234375 49.4 20.9 49.233984375 21.8482421875 48.75 22.6 48.7279296875 22.657421875 48.7 22.7 48.3541015625 23.300390625 47.9 23.45
L 47.9 23.5
Q 47.373828125 23.7515625 46.85 24.45 46.4078125 25.2115234375 45.55 25.9 44.7125 26.65 43.95 27.4
L 43.95 27.4
Q 43.273046875 28.208203125 42.45 28.65 41.604296875 29.11171875 41.1 30.2 41.105078125 30.25 41.1 30.3 41.1482421875 30.3513671875 41.2 30.35 41.2498046875 30.394921875 41.3 30.35 41.3513671875 30.3515625 41.35 30.3 41.7958984375 29.28828125 42.55 28.85 43.4267578125 28.3916015625 44.15 27.55
L 44.15 27.6
Q 44.8875 26.8498046875 45.7 26.1 46.5921875 25.38828125 47.05 24.6 47.5259765625 23.9484375 48 23.7
L 48 23.7
Q 48.508984375 23.514453125 48.9 22.8
L 48.95 22.75
Q 49.4658203125 21.9515625 49.65 20.95 49.884765625 19.9880859375 49.5 18.95 49.155078125 17.947265625 48.1 17.5 47.164453125 17.1865234375 46.45 16.75 Z"/>
</g>

<g id="Layer2_0_MEMBER_18_FILL">
<path fill="#4EB1D1" stroke="none" d="
M 40.9 47.6
Q 41.95 46.4 41.7 44.7
L 39.65 32.65
Q 39.5 31.8 40.1 31.25
L 48.85 22.7
Q 50.4 21.15 49.75 19.05 49 16.9 46.85 16.6
L 34.75 14.85
Q 33.95 14.7 33.55 14
L 28.15 3.05
Q 27.2 1.05 24.95 1.05 22.7 1.05 21.75 3.05
L 16.35 14
Q 15.9 14.75 15.15 14.85
L 3.05 16.6
Q 0.9 16.9 0.15 19.05 -0.45 21.2 1.05 22.7
L 9.8 31.25
Q 10.4 31.8 10.25 32.65
L 8.2 44.7
Q 7.9 46.35 9 47.6 9.8 48.55 11.05 48.8 12.3 49.05 13.4 48.45
L 24.2 42.75
Q 24.95 42.4 25.7 42.75
L 36.5 48.45
Q 37.25 48.9 38.15 48.9 39.75 48.9 40.9 47.6 Z"/>
</g>

<g id="Layer2_0_MEMBER_19_FILL">
<path fill="#3283A3" stroke="none" d="
M 109.25 228.6
L 109.25 242.45
Q 109.25 250.95 117.75 250.95
L 185.65 250.95
Q 194.15 250.95 194.15 242.45
L 194.15 228.6
Q 194.15 220.1 185.65 220.1
L 117.75 220.1
Q 109.25 220.1 109.25 228.6 Z"/>
</g>

<g id="Layer2_0_MEMBER_20_FILL">
<path fill="#4EB1D1" stroke="none" d="
M 109.25 228.6
L 109.25 242.45
Q 109.25 250.95 117.75 250.95
L 185.65 250.95
Q 194.15 250.95 194.15 242.45
L 194.15 228.6
Q 194.15 220.1 185.65 220.1
L 117.75 220.1
Q 109.25 220.1 109.25 228.6 Z"/>
</g>

<g id="Layer2_0_MEMBER_21_FILL">
<path fill="#FFFFFF" stroke="none" d="
M 40.9 47.6
Q 41.95 46.4 41.7 44.7
L 39.65 32.65
Q 39.5 31.8 40.1 31.25
L 48.85 22.7
Q 50.4 21.15 49.75 19.05 49 16.9 46.85 16.6
L 34.75 14.85
Q 33.95 14.7 33.55 14
L 28.15 3.05
Q 27.2 1.05 24.95 1.05 22.7 1.05 21.75 3.05
L 16.35 14
Q 15.9 14.75 15.15 14.85
L 3.05 16.6
Q 0.9 16.9 0.15 19.05 -0.45 21.2 1.05 22.7
L 9.8 31.25
Q 10.4 31.8 10.25 32.65
L 8.2 44.7
Q 7.9 46.35 9 47.6 9.8 48.55 11.05 48.8 12.3 49.05 13.4 48.45
L 24.2 42.75
Q 24.95 42.4 25.7 42.75
L 36.5 48.45
Q 37.25 48.9 38.15 48.9 39.75 48.9 40.9 47.6 Z"/>
</g>

<g id="Layer2_0_MEMBER_22_FILL">
<path fill="#FFFFFF" stroke="none" d="
M 40.9 47.6
Q 41.95 46.4 41.7 44.7
L 39.65 32.65
Q 39.5 31.8 40.1 31.25
L 48.85 22.7
Q 50.4 21.15 49.75 19.05 49 16.9 46.85 16.6
L 34.75 14.85
Q 33.95 14.7 33.55 14
L 28.15 3.05
Q 27.2 1.05 24.95 1.05 22.7 1.05 21.75 3.05
L 16.35 14
Q 15.9 14.75 15.15 14.85
L 3.05 16.6
Q 0.9 16.9 0.15 19.05 -0.45 21.2 1.05 22.7
L 9.8 31.25
Q 10.4 31.8 10.25 32.65
L 8.2 44.7
Q 7.9 46.35 9 47.6 9.8 48.55 11.05 48.8 12.3 49.05 13.4 48.45
L 24.2 42.75
Q 24.95 42.4 25.7 42.75
L 36.5 48.45
Q 37.25 48.9 38.15 48.9 39.75 48.9 40.9 47.6 Z"/>
</g>

<g id="Layer2_0_MEMBER_23_FILL">
<path fill="#FFFFFF" stroke="none" d="
M 410.35 125.45
Q 411.25 124.55 411.25 123.35 411.25 122.15 410.35 121.25 409.45 120.4 408.25 120.4 407.05 120.4 406.15 121.25 405.3 122.15 405.3 123.35 405.3 124.55 406.15 125.45 407.05 126.35 408.25 126.35 409.45 126.35 410.35 125.45 Z"/>
</g>

<g id="Layer2_0_MEMBER_24_FILL">
<path fill="#4EB1D1" stroke="none" d="
M 121.3 173.95
Q 119.1 171.75 115.95 171.75 112.8 171.75 110.6 173.95 108.4 176.15 108.4 179.3 108.4 182.45 110.6 184.65 112.8 186.85 115.95 186.85 119.1 186.85 121.3 184.65 123.5 182.45 123.5 179.3 123.5 176.15 121.3 173.95 Z"/>
</g>

<g id="Layer2_0_MEMBER_25_FILL">
<path fill="#4EB1D1" stroke="none" d="
M 121.3 173.95
Q 119.1 171.75 115.95 171.75 112.8 171.75 110.6 173.95 108.4 176.15 108.4 179.3 108.4 182.45 110.6 184.65 112.8 186.85 115.95 186.85 119.1 186.85 121.3 184.65 123.5 182.45 123.5 179.3 123.5 176.15 121.3 173.95 Z"/>
</g>

<g id="Layer2_0_MEMBER_26_FILL">
<path fill="#4EB1D1" stroke="none" d="
M 121.3 173.95
Q 119.1 171.75 115.95 171.75 112.8 171.75 110.6 173.95 108.4 176.15 108.4 179.3 108.4 182.45 110.6 184.65 112.8 186.85 115.95 186.85 119.1 186.85 121.3 184.65 123.5 182.45 123.5 179.3 123.5 176.15 121.3 173.95 Z"/>
</g>

<g id="Layer2_0_MEMBER_27_FILL">
<path fill="#4EB1D1" stroke="none" d="
M 121.3 173.95
Q 119.1 171.75 115.95 171.75 112.8 171.75 110.6 173.95 108.4 176.15 108.4 179.3 108.4 182.45 110.6 184.65 112.8 186.85 115.95 186.85 119.1 186.85 121.3 184.65 123.5 182.45 123.5 179.3 123.5 176.15 121.3 173.95 Z"/>
</g>

<g id="Layer2_0_MEMBER_28_FILL">
<path fill="#062D44" stroke="none" d="
M 121.3 173.95
Q 119.1 171.75 115.95 171.75 112.8 171.75 110.6 173.95 108.4 176.15 108.4 179.3 108.4 182.45 110.6 184.65 112.8 186.85 115.95 186.85 119.1 186.85 121.3 184.65 123.5 182.45 123.5 179.3 123.5 176.15 121.3 173.95 Z"/>
</g>

<g id="Layer2_0_MEMBER_29_FILL">
<path fill="#062D44" stroke="none" d="
M 121.3 173.95
Q 119.1 171.75 115.95 171.75 112.8 171.75 110.6 173.95 108.4 176.15 108.4 179.3 108.4 182.45 110.6 184.65 112.8 186.85 115.95 186.85 119.1 186.85 121.3 184.65 123.5 182.45 123.5 179.3 123.5 176.15 121.3 173.95 Z"/>
</g>

<g id="Layer2_0_MEMBER_30_MEMBER_0_FILL">
<path fill="#439BB7" stroke="none" d="
M 79.15 108.45
Q 79.55 106.95 78.25 106.1 76.9 105.25 75.65 106.2 55.15 122.35 36.75 142.45 34.85 163.15 36.4 187.1 51.6 171.9 62.75 150.65 72.9 131.4 79.15 108.45 Z"/>
</g>

<g id="Layer2_0_MEMBER_30_MEMBER_1_FILL">
<path fill="#439BB7" stroke="none" d="
M 1.8 139.65
Q 0.2 140 0.1 141.65 -1.25 169.1 9 192.85 20.5 219.45 42.7 230.7 37.7 207.9 36.4 187.15 18.45 165.55 4.2 140.65 3.35 139.25 1.8 139.65 Z"/>
</g>

<g id="Layer2_0_MEMBER_30_MEMBER_2_FILL">
<path fill="#439BB7" stroke="none" d="
M 73.05 187.05
Q 73 185.5 71.5 185.05 70 184.6 69.1 185.9 54.5 206.55 42.7 230.7 47.05 250.65 55.3 272.55 65.4 254.1 69.9 231.1 74.05 209.95 73.05 187.05 Z"/>
</g>

<g id="Layer2_0_MEMBER_30_MEMBER_3_FILL">
<path fill="#439BB7" stroke="none" d="
M 8.45 238.4
Q 7.1 239.25 7.5 240.8 14.25 266.95 31.05 286.25 49.7 307.8 73.9 311.9 62.6 291.6 55.35 272.55 32 257.6 11.05 238.65 9.85 237.55 8.45 238.4 Z"/>
</g>

<g id="Layer2_0_MEMBER_30_MEMBER_4_FILL">
<path fill="#439BB7" stroke="none" d="
M 90.35 261.65
Q 89.85 260.2 88.25 260.2 86.7 260.25 86.2 261.7 78.2 285.55 73.9 311.9 83.95 329.85 98.1 348.15 102.35 327.6 100.05 304.55 97.9 283.05 90.35 261.65 Z"/>
</g>

<g id="Layer2_0_MEMBER_30_MEMBER_5_FILL">
<path fill="#439BB7" stroke="none" d="
M 43.45 329.3
Q 42.35 330.5 43.2 331.9 57.3 354.85 79 368.5 103.15 383.6 127.5 380.6 110.55 364.35 98.1 348.15 71.55 340.65 46 328.8 44.55 328.1 43.45 329.3 Z"/>
</g>

<g id="Layer2_0_MEMBER_30_MEMBER_6_FILL">
<path fill="#439BB7" stroke="none" d="
M 128.4 327.55
Q 127.45 326.3 126 326.8 124.5 327.25 124.45 328.8 123.8 354.25 127.5 380.6 142.65 395.1 161.75 408.5 159.5 387.5 150.4 366 141.9 345.85 128.4 327.55 Z"/>
</g>

<g id="Layer2_0_MEMBER_30_MEMBER_7_FILL">
<path fill="#439BB7" stroke="none" d="
M 433.75 106.1
Q 432.4 106.95 432.8 108.45 439.05 131.4 449.2 150.65 460.4 171.9 475.55 187.1 477.1 163.15 475.2 142.45 456.8 122.35 436.3 106.2 435.05 105.25 433.75 106.1 Z"/>
</g>

<g id="Layer2_0_MEMBER_30_MEMBER_8_FILL">
<path fill="#439BB7" stroke="none" d="
M 511.85 141.65
Q 511.75 140 510.15 139.65 508.6 139.25 507.75 140.65 493.5 165.55 475.55 187.15 474.3 207.9 469.25 230.7 491.5 219.45 502.95 192.85 513.25 169.05 511.85 141.65 Z"/>
</g>

<g id="Layer2_0_MEMBER_30_MEMBER_9_FILL">
<path fill="#439BB7" stroke="none" d="
M 440.45 185.05
Q 439 185.5 438.9 187.05 437.9 209.95 442.05 231.1 446.55 254.1 456.65 272.55 464.9 250.65 469.25 230.7 457.45 206.55 442.85 185.9 441.95 184.6 440.45 185.05 Z"/>
</g>

<g id="Layer2_0_MEMBER_30_MEMBER_10_FILL">
<path fill="#439BB7" stroke="none" d="
M 456.6 272.55
Q 449.35 291.6 438.05 311.9 462.25 307.8 480.9 286.25 497.7 266.95 504.45 240.8 504.85 239.25 503.5 238.4 502.1 237.55 500.9 238.65 479.95 257.6 456.6 272.55 Z"/>
</g>

<g id="Layer2_0_MEMBER_30_MEMBER_11_FILL">
<path fill="#439BB7" stroke="none" d="
M 423.7 260.2
Q 422.15 260.2 421.6 261.65 414.05 283.05 411.9 304.55 409.6 327.6 413.85 348.15 428 329.85 438.05 311.9 433.75 285.55 425.75 261.7 425.25 260.25 423.7 260.2 Z"/>
</g>

<g id="Layer2_0_MEMBER_30_MEMBER_12_FILL">
<path fill="#439BB7" stroke="none" d="
M 468.75 331.9
Q 469.6 330.5 468.5 329.3 467.4 328.1 465.95 328.8 440.4 340.65 413.85 348.15 401.4 364.35 384.45 380.6 408.8 383.6 432.95 368.5 454.65 354.85 468.75 331.9 Z"/>
</g>

<g id="Layer2_0_MEMBER_30_MEMBER_13_FILL">
<path fill="#439BB7" stroke="none" d="
M 386 326.8
Q 384.5 326.3 383.55 327.55 370.05 345.85 361.55 366 352.45 387.5 350.2 408.5 369.3 395.1 384.45 380.6 388.15 354.25 387.5 328.8 387.45 327.25 386 326.8 Z"/>
</g>

<g id="Layer2_0_MEMBER_30_MEMBER_14_FILL">
<path fill="#34829B" stroke="none" d="
M 45.4 72.4
Q 42.6 73.9 41.7 77 32.05 109.6 29.55 142.9
L 29.55 143.35
Q 27.7 164.85 29.2 188.25
L 29.2 188.3
Q 30.55 209.2 35.65 232.85
L 35.7 232.9
Q 40.1 253.3 48.6 275.75 56 295.25 67.6 316.05
L 67.65 316.05
Q 77.9 334.45 92.4 353.15 105 369.55 122.45 386.35 138.1 401.3 157.55 414.95 175.45 427.55 197.25 438.25 198.85 439.05 200.65 439.05 202.8 439.05 204.7 437.9 206.6 436.75 207.6 434.75 209 431.85 208 428.85 206.95 425.85 204.1 424.4 182.8 413.85 166.45 402.3 147.9 389.25 133.2 375.2
L 133.15 375.2
Q 116.6 359.3 104.6 343.7 90.85 325.9 81.1 308.5
L 81.1 308.45
Q 70.3 289.2 63.05 270.25 55.05 249.2 50.8 229.6 45.95 207.55 44.65 187.3 43.15 164.55 45 143.9
L 45.05 143.45
Q 47.45 112.1 56.5 81.35 57.4 78.3 55.85 75.5 54.35 72.7 51.3 71.8 48.25 70.85 45.4 72.4 Z"/>
</g>

<g id="Layer2_0_MEMBER_30_MEMBER_15_FILL">
<path fill="#34829B" stroke="none" d="
M 456.1 75.5
Q 454.55 78.35 455.45 81.4 464.5 112.05 466.9 143.45
L 466.95 143.9
Q 468.8 164.55 467.3 187.3 466 207.45 461.15 229.6 456.9 249.2 448.9 270.25 441.7 289.15 430.85 308.5 421.1 325.9 407.35 343.7 395.35 359.3 378.8 375.2
L 378.75 375.2
Q 364.05 389.25 345.5 402.3 329.15 413.85 307.85 424.4 305 425.85 303.95 428.85 302.95 431.85 304.35 434.75 305.35 436.75 307.25 437.9 309.15 439.05 311.3 439.05 313.1 439.05 314.7 438.25 336.5 427.55 354.4 414.95 374.15 401.05 389.5 386.35 406.7 369.8 419.55 353.15 433.9 334.65 444.3 316.05
L 444.35 316
Q 455.9 295.3 463.35 275.75 471.85 253.45 476.25 232.95
L 476.25 232.9
Q 481.4 209.35 482.75 188.3
L 482.75 188.25
Q 484.25 164.8 482.4 143.35
L 482.4 142.9
Q 479.9 109.6 470.25 77 469.35 73.9 466.55 72.4 463.7 70.85 460.65 71.8 457.6 72.7 456.1 75.5 Z"/>
</g>

<g id="Layer2_0_MEMBER_30_MEMBER_16_FILL">
<path fill="#34829B" stroke="none" d="
M 196.95 179.05
Q 200.15 179.05 202.45 176.8 204.7 174.55 204.7 171.35 204.7 168.15 202.45 165.9 200.2 163.6 197 163.6
L 128.55 163.45
Q 123.9 163.45 120.6 166.75 117.25 170.1 117.25 174.75
L 117.25 200.9
Q 117.25 221.85 126.05 240.85 134.8 259.85 150.8 273.45 163.75 284.45 179.55 290.25 195.3 296.05 212.05 296.05 219.75 296.05 227.2 294.8
L 229.8 294.4
Q 232.95 293.85 234.8 291.2 236.6 288.6 236.05 285.45 235.55 282.3 232.9 280.45 230.3 278.65 227.1 279.15
L 224.7 279.55
Q 207.55 282.35 190.85 277.65 174.1 272.95 160.8 261.65 147.4 250.25 140.05 234.35 132.7 218.45 132.7 200.85
L 132.7 178.9 196.95 179.05 Z"/>
</g>

<g id="Layer2_0_MEMBER_30_MEMBER_17_FILL">
<path fill="#34829B" stroke="none" d="
M 394.7 174.75
Q 394.7 170.1 391.35 166.75 388.05 163.45 383.4 163.45
L 314.95 163.6
Q 311.75 163.6 309.5 165.9 307.25 168.15 307.25 171.35 307.25 174.55 309.5 176.8 311.8 179.05 315 179.05
L 379.25 178.9 379.25 200.9
Q 379.25 218.45 371.9 234.35 364.55 250.3 351.15 261.65 337.85 272.95 321.1 277.65 304.4 282.35 287.25 279.55
L 284.85 279.15
Q 281.7 278.6 279.05 280.45 276.45 282.3 275.9 285.45 275.35 288.6 277.15 291.2 279 293.85 282.15 294.4
L 284.75 294.8
Q 292.2 296.05 299.9 296.05 316.65 296.05 332.4 290.25 348.2 284.45 361.15 273.45 377.15 259.85 385.9 240.85 394.7 221.85 394.7 200.9
L 394.7 174.75 Z"/>
</g>

<g id="Layer2_0_MEMBER_30_MEMBER_18_FILL">
<path fill="#4EB1D1" stroke="none" d="
M 269.05 290.55
L 269.1 277.7 242.85 277.7 242.9 290.55
Q 242.4 306.65 239.8 322.85 231.45 374.65 205.15 408
L 306.8 408
Q 280.5 374.65 272.15 322.85 269.55 306.65 269.05 290.55 Z"/>
</g>

<g id="Layer2_0_MEMBER_30_MEMBER_19_FILL">
<path fill="#34829B" stroke="none" d="
M 269.05 290.55
L 269.1 277.7 242.85 277.7 243 285.9
Q 242.9 296.3 241.8 307.4 239.25 333 245.55 357.5 251.95 382.4 266.65 402.95 268.2 405.15 270.45 408
L 306.8 408
Q 280.5 374.65 272.15 322.85 269.55 306.65 269.05 290.55 Z"/>
</g>

<g id="Layer2_0_MEMBER_30_MEMBER_20_FILL">
<path fill="#51BBDD" stroke="none" d="
M 332.6 208.75
L 332.6 141.3 179.35 141.3 179.35 208.75
Q 179.35 238.65 192.85 265.35 206.35 292 230.4 309.75 241.8 318.2 256 318.2 270.15 318.2 281.55 309.75 305.65 292 319.1 265.35 332.6 238.65 332.6 208.75 Z"/>
</g>

<g id="Layer2_0_MEMBER_30_MEMBER_21_FILL">
<path fill="#439BB7" stroke="none" d="
M 332.6 208.75
L 332.6 141.3 296.15 141.3 296.15 208.75
Q 296.15 238.65 282.65 265.35 269.15 292 245.05 309.75 241.75 312.3 237.75 314.15 248.4 319.1 260.1 317.95 271.95 316.85 281.55 309.75 305.65 292 319.1 265.35 332.6 238.65 332.6 208.75 Z"/>
</g>

<g id="Layer2_0_MEMBER_30_MEMBER_22_FILL">
<path fill="#439BB7" stroke="none" d="
M 342.6 147.35
L 342.6 128.8
Q 342.6 126.95 341.3 125.6 340 124.3 338.1 124.3
L 173.85 124.3
Q 172 124.3 170.65 125.6 169.35 126.95 169.35 128.8
L 169.35 147.35
Q 169.35 149.25 170.65 150.55 172 151.85 173.85 151.85
L 338.1 151.85
Q 340 151.85 341.3 150.55 342.6 149.25 342.6 147.35 Z"/>
</g>

<g id="Layer2_0_MEMBER_30_MEMBER_23_FILL">
<path fill="#34829B" stroke="none" d="
M 341.3 125.6
Q 340 124.3 338.1 124.3
L 306.1 124.3 306.1 151.85 338.1 151.85
Q 340 151.85 341.3 150.55 342.6 149.25 342.6 147.35
L 342.6 128.8
Q 342.6 126.95 341.3 125.6 Z"/>
</g>

<g id="Layer2_0_MEMBER_30_MEMBER_24_FILL">
<path fill="#439BB7" stroke="none" d="
M 182.4 398.4
Q 181.3 398.4 180.35 399.05 179.4 399.7 179 400.8
L 166.1 435.75
Q 165.45 437.5 166.55 439.05 167.65 440.6 169.5 440.6
L 343.15 440.6
Q 345.05 440.6 346.1 439.05 347.2 437.5 346.55 435.75
L 333.65 400.8
Q 333.25 399.7 332.3 399.05 331.4 398.4 330.25 398.4
L 182.4 398.4 Z"/>
</g>

<g id="Layer2_0_MEMBER_30_MEMBER_25_FILL">
<path fill="#34829B" stroke="none" d="
M 295 398.4
L 310.55 440.6 343.15 440.6
Q 345.05 440.6 346.1 439.05 347.2 437.5 346.55 435.75
L 333.65 400.8
Q 333.25 399.7 332.3 399.05 331.4 398.4 330.25 398.4
L 295 398.4 Z"/>
</g>

<path id="Layer2_0_1_STROKES" stroke="#0066FF" stroke-opacity="0" stroke-width="0.1" stroke-linejoin="round" stroke-linecap="round" fill="none" d="
M 119.67978973388671 58.736036682128905
L 119.67978973388671 25.94338607788086
Q 119.67978973388671 23.25788726806641 121.82326126098633 23.25788726806641
L 127.66237335205076 23.25788726806641
Q 129.80584487915038 23.25788726806641 129.80584487915038 25.94338607788086
L 129.80584487915038 50.63026504516602
Q 130.10149612426758 54.1534423828125 128.20440063476562 54.941845703125004
L 124.08992080688475 56.789665985107426
Q 122.04499969482421 57.75053253173828 120.91166992187499 58.29255981445313 119.75370254516602 58.809949493408205 119.67978973388671 58.736036682128905 Z"/>

<path id="Layer2_0_2_STROKES" stroke="#0066FF" stroke-width="0.1" stroke-linejoin="round" stroke-linecap="round" fill="none" d="
M 119.80297775268554 58.736036682128905
Q 118.27544631958008 59.0316879272461 119.80297775268554 59.0316879272461
L 119.80297775268554 58.736036682128905 Z"/>

<path id="Layer2_0_MEMBER_0_1_STROKES" stroke="#0066FF" stroke-opacity="0" stroke-width="0.1" stroke-linejoin="round" stroke-linecap="round" fill="none" d="
M 113.54633331298828 23.13961257934571
L 129.90570220947265 23.13961257934571 129.90570220947265 27.254092407226565 113.54633331298828 27.254092407226565 113.54633331298828 23.13961257934571 Z"/>

<path id="Layer2_0_MEMBER_1_1_STROKES" stroke="#0066FF" stroke-opacity="0.00784313725490196" stroke-width="0.1" stroke-linejoin="round" stroke-linecap="round" fill="none" d="
M 80.2099708557129 27.254092407226565
L 86.39400939941406 27.254092407226565 86.39400939941406 57.85399627685547 80.2099708557129 57.85399627685547 80.2099708557129 27.254092407226565 Z"/>

<path id="Layer2_0_MEMBER_2_1_STROKES" stroke="#0066FF" stroke-opacity="0" stroke-width="0.1" stroke-linejoin="round" stroke-linecap="round" fill="none" d="
M 113.54633331298828 27.254092407226565
L 119.73037185668946 27.254092407226565 119.73037185668946 57.85399627685547 113.54633331298828 57.85399627685547 113.54633331298828 27.254092407226565 Z"/>

<path id="Layer2_0_MEMBER_3_1_STROKES" stroke="#0066FF" stroke-opacity="0" stroke-width="0.1" stroke-linejoin="round" stroke-linecap="round" fill="none" d="
M 92.30775909423829 22.962800598144533
L 107.50916061401367 22.962800598144533 107.50916061401367 56.51921691894531 92.30775909423829 56.51921691894531 92.30775909423829 22.962800598144533 Z"/>

<path id="Layer2_0_MEMBER_4_1_STROKES" stroke="#0066FF" stroke-opacity="0" stroke-width="0.1" stroke-linejoin="round" stroke-linecap="round" fill="none" d="
M 69.54188842773438 12.608489227294918
L 130.34749450683594 12.608489227294918
Q 132.56487884521485 12.608489227294918 134.11704788208007 14.160658264160155 135.66921691894532 15.712827301025392 135.66921691894532 17.9302116394043
L 135.66921691894532 17.954849243164055
Q 135.66921691894532 20.17223358154296 134.11704788208007 21.7244026184082 132.56487884521485 23.276571655273436 130.34749450683594 23.276571655273436
L 69.54188842773438 23.276571655273436
Q 67.32450408935547 23.276571655273436 65.77233505249023 21.7244026184082 64.220166015625 20.17223358154296 64.220166015625 17.954849243164055
L 64.220166015625 17.9302116394043
Q 64.220166015625 15.712827301025392 65.77233505249023 14.160658264160155 67.32450408935547 12.608489227294918 69.54188842773438 12.608489227294918 Z"/>

<path id="Layer2_0_MEMBER_5_1_STROKES" stroke="#0066FF" stroke-opacity="0" stroke-width="0.1" stroke-linejoin="round" stroke-linecap="round" fill="none" d="
M 69.54188842773438 11.658489227294922
L 130.34749450683594 11.658489227294922
Q 132.56487884521485 11.658489227294922 134.11704788208007 13.210658264160159 135.66921691894532 14.762827301025396 135.66921691894532 16.980211639404303
L 135.66921691894532 17.00484924316406
Q 135.66921691894532 19.222233581542966 134.11704788208007 20.774402618408203 132.56487884521485 22.32657165527344 130.34749450683594 22.32657165527344
L 69.54188842773438 22.32657165527344
Q 67.32450408935547 22.32657165527344 65.77233505249023 20.774402618408203 64.220166015625 19.222233581542966 64.220166015625 17.00484924316406
L 64.220166015625 16.980211639404303
Q 64.220166015625 14.762827301025396 65.77233505249023 13.210658264160159 67.32450408935547 11.658489227294922 69.54188842773438 11.658489227294922 Z"/>

<path id="Layer2_0_MEMBER_6_1_STROKES" stroke="#0066FF" stroke-opacity="0" stroke-width="0.1" stroke-linejoin="round" stroke-linecap="round" fill="none" d="
M 86.35366668701172 23.13961257934571
L 69.99429779052736 23.13961257934571 69.99429779052736 27.254092407226565 86.35366668701172 27.254092407226565 86.35366668701172 23.13961257934571 Z"/>

<path id="Layer2_0_MEMBER_7_MEMBER_0_1_STROKES" stroke="#0066FF" stroke-opacity="0" stroke-width="0.1" stroke-linejoin="round" stroke-linecap="round" fill="none" d="
M 109.52909698486329 14.462262725830078
Q 109.52909698486329 15.22602844238281 108.96243209838866 15.768055725097655 108.42040481567383 16.334720611572266 107.6566390991211 16.334720611572266 106.89287338256835 16.334720611572266 106.32620849609376 15.768055725097655 105.7841812133789 15.22602844238281 105.7841812133789 14.462262725830078 105.7841812133789 13.698497009277345 106.32620849609376 13.131832122802733 106.89287338256835 12.589804840087892 107.6566390991211 12.589804840087892 108.42040481567383 12.589804840087892 108.96243209838866 13.131832122802733 109.52909698486329 13.698497009277345 109.52909698486329 14.462262725830078 Z"/>

<path id="Layer2_0_MEMBER_7_MEMBER_1_1_STROKES" stroke="#0066FF" stroke-opacity="0" stroke-width="0.1" stroke-linejoin="round" stroke-linecap="round" fill="none" d="
M 112.47798385620116 13.284571075439459
L 129.55184326171874 13.284571075439459
Q 130.06923294067383 13.284571075439459 130.4387969970703 13.654135131835943 130.83299865722657 14.048336791992185 130.83299865722657 14.565726470947268
L 130.83299865722657 14.59036407470704
Q 130.83299865722657 15.10775375366211 130.4387969970703 15.477317810058594 130.06923294067383 15.87151947021485 129.55184326171874 15.87151947021485
L 112.47798385620116 15.87151947021485
Q 111.9605941772461 15.87151947021485 111.56639251708984 15.477317810058594 111.19682846069335 15.10775375366211 111.19682846069335 14.59036407470704
L 111.19682846069335 14.565726470947268
Q 111.19682846069335 14.048336791992185 111.56639251708984 13.654135131835943 111.9605941772461 13.284571075439459 112.47798385620116 13.284571075439459 Z"/>

<path id="Layer2_0_MEMBER_8_1_STROKES" stroke="#0066FF" stroke-opacity="0" stroke-width="0.1" stroke-linejoin="round" stroke-linecap="round" fill="none" d="
M 107.50313415527343 23.289612579345707
L 92.32463073730469 23.289612579345707 92.32463073730469 27.404092407226564 107.50313415527343 27.404092407226564 107.50313415527343 23.289612579345707 Z"/>

<path id="Layer2_0_MEMBER_9_1_STROKES" stroke="#FFFFFF" stroke-opacity="0" stroke-width="1" stroke-linejoin="round" stroke-linecap="round" fill="none" d="
M 88.73004302978515 71.38583984374999
L 110.71755828857422 71.38583984374999
Q 113.47004547119141 71.38583984374999 113.47004547119141 74.10019531249999
L 113.47004547119141 78.52299804687499
Q 113.47004547119141 81.23735351562499 110.71755828857422 81.23735351562499
L 88.73004302978515 81.23735351562499
Q 85.97755584716796 81.23735351562499 85.97755584716796 78.52299804687499
L 85.97755584716796 74.10019531249999
Q 85.97755584716796 71.38583984374999 88.73004302978515 71.38583984374999 Z"/>

<path id="Layer2_0_MEMBER_10_1_STROKES" stroke="#0066FF" stroke-opacity="0" stroke-width="0.1" stroke-linejoin="round" stroke-linecap="round" fill="none" d="
M 144.2908172607422 121.6557113647461
Q 144.2908172607422 139.99747009277343 131.31270599365234 152.97558135986327 118.3345947265625 165.9536926269531 99.99283599853516 165.9536926269531 81.65107727050781 165.9536926269531 68.67296600341797 152.97558135986327 55.694854736328125 139.99747009277343 55.694854736328125 121.6557113647461 55.694854736328125 103.31395263671875 68.67296600341797 90.33584136962891 81.65107727050781 77.35773010253907 99.99283599853516 77.35773010253907 118.3345947265625 77.35773010253907 131.31270599365234 90.33584136962891 144.2908172607422 103.31395263671875 144.2908172607422 121.6557113647461 Z"/>

<path id="Layer2_0_MEMBER_11_1_STROKES" stroke="#0066FF" stroke-opacity="0" stroke-width="0.1" stroke-linejoin="round" stroke-linecap="round" fill="none" d="
M 90.74559326171875 74.94898681640626
Q 90.74559326171875 76.98425903320313 89.32413330078126 78.40571899414064 87.90267333984374 79.82717895507812 85.86740112304688 79.82717895507812 83.83212890625 79.82717895507812 82.4106689453125 78.40571899414064 80.98920898437501 76.98425903320313 80.98920898437501 74.94898681640626 80.98920898437501 72.91371459960939 82.4106689453125 71.49225463867188 83.83212890625 70.07079467773437 85.86740112304688 70.07079467773437 87.90267333984374 70.07079467773437 89.32413330078126 71.49225463867188 90.74559326171875 72.91371459960939 90.74559326171875 74.94898681640626 Z"/>

<path id="Layer2_0_MEMBER_12_1_STROKES" stroke="#0066FF" stroke-opacity="0" stroke-width="0.1" stroke-linejoin="round" stroke-linecap="round" fill="none" d="
M 118.39559326171874 74.94898681640626
Q 118.39559326171874 76.98425903320313 116.97413330078126 78.40571899414064 115.55267333984375 79.82717895507812 113.51740112304688 79.82717895507812 111.48212890625001 79.82717895507812 110.0606689453125 78.40571899414064 108.63920898437502 76.98425903320313 108.63920898437502 74.94898681640626 108.63920898437502 72.91371459960939 110.0606689453125 71.49225463867188 111.48212890625001 70.07079467773437 113.51740112304688 70.07079467773437 115.55267333984375 70.07079467773437 116.97413330078126 71.49225463867188 118.39559326171874 72.91371459960939 118.39559326171874 74.94898681640626 Z"/>

<path id="Layer2_0_MEMBER_13_1_STROKES" stroke="#0066FF" stroke-opacity="0" stroke-width="0.1" stroke-linejoin="round" stroke-linecap="round" fill="none" d="
M 144.2908172607422 120.57807312011718
Q 144.2908172607422 138.46691284179687 131.31270599365234 151.12455139160156 118.3345947265625 163.78218994140624 99.99283599853516 163.78218994140624 81.65107727050781 163.78218994140624 68.67296600341797 151.12455139160156 55.694854736328125 138.46691284179687 55.694854736328125 120.57807312011718 55.694854736328125 102.6892333984375 68.67296600341797 90.0315948486328 81.65107727050781 77.37395629882812 99.99283599853516 77.37395629882812 118.3345947265625 77.37395629882812 131.31270599365234 90.0315948486328 144.2908172607422 102.6892333984375 144.2908172607422 120.57807312011718 Z"/>

<path id="Layer2_0_MEMBER_14_1_STROKES" stroke="#0066FF" stroke-opacity="0" stroke-width="0.1" stroke-linejoin="round" stroke-linecap="round" fill="none" d="
M 137.82874145507813 121.61446838378906
Q 137.82874145507813 137.28955688476563 126.73749084472655 148.38080749511718 115.646240234375 159.47205810546876 99.97115173339844 159.47205810546876 84.29606323242187 159.47205810546876 73.2048126220703 148.38080749511718 62.11356201171875 137.28955688476563 62.11356201171875 121.61446838378906 62.11356201171875 105.9393798828125 73.2048126220703 94.84812927246094 84.29606323242187 83.75687866210937 99.97115173339844 83.75687866210937 115.646240234375 83.75687866210937 126.73749084472655 94.84812927246094 137.82874145507813 105.9393798828125 137.82874145507813 121.61446838378906 Z"/>

<path id="Layer2_0_MEMBER_15_1_STROKES" stroke="#0066FF" stroke-opacity="0" stroke-width="0.1" stroke-linejoin="round" stroke-linecap="round" fill="none" d="
M 137.82874145507813 124.2181625366211
Q 137.82874145507813 138.83838806152343 126.73749084472655 149.18324737548826 115.646240234375 159.52810668945312 99.97115173339844 159.52810668945312 84.29606323242187 159.52810668945312 73.2048126220703 149.18324737548826 62.11356201171875 138.83838806152343 62.11356201171875 124.2181625366211 62.11356201171875 109.59793701171874 73.2048126220703 99.25307769775391 84.29606323242187 88.90821838378906 99.97115173339844 88.90821838378906 115.646240234375 88.90821838378906 126.73749084472655 99.25307769775391 137.82874145507813 109.59793701171874 137.82874145507813 124.2181625366211 Z"/>

<path id="Layer2_0_MEMBER_16_1_STROKES" stroke="#0066FF" stroke-opacity="0" stroke-width="0.1" stroke-linejoin="round" stroke-linecap="round" fill="none" d="
M 126.73201904296874 92.11045532226562
Q 126.73201904296874 94.74935302734373 124.8592529296875 96.622119140625 122.98648681640626 98.49488525390625 120.34758911132812 98.49488525390625 117.70869140625001 98.49488525390625 115.83592529296877 96.622119140625 113.9631591796875 94.74935302734373 113.9631591796875 92.11045532226562 113.9631591796875 89.4715576171875 115.83592529296877 87.59879150390624 117.70869140625001 85.726025390625 120.34758911132812 85.726025390625 122.98648681640626 85.726025390625 124.8592529296875 87.59879150390624 126.73201904296874 89.4715576171875 126.73201904296874 92.11045532226562 Z"/>

<path id="Layer2_0_MEMBER_18_1_STROKES" stroke="#0066FF" stroke-opacity="0" stroke-width="0.1" stroke-linejoin="round" stroke-linecap="round" fill="none" d="
M 104.3190818786621 178.42714767456056
Q 103.49961776733399 177.93676528930663 103.55133666992188 176.98044891357424 103.64000091552734 175.99239044189454 104.51659622192382 175.63739700317385
L 109.44345092773438 173.61348724365234
Q 109.76555252075195 173.46518325805664 109.86025619506836 173.12694931030273
L 110.97952270507812 167.92699432373047
Q 111.1686164855957 166.98108444213867 112.1193115234375 166.7422348022461 113.0700065612793 166.5033851623535 113.68372192382812 167.2475997924805
L 117.12779159545899 171.30107650756835
Q 117.3975471496582 171.57020492553713 117.72506103515624 171.53284149169923
L 123.02345962524414 170.98779067993163
Q 123.96374816894532 170.88631591796874 124.50888061523438 171.71514129638672 124.99063339233398 172.55988998413088 124.51606979370116 173.35291976928713
L 121.7265510559082 177.8944206237793
Q 121.53141784667969 178.1905059814453 121.68502960205078 178.5337341308594
L 123.83039093017578 183.4076156616211
Q 124.13230667114257 184.07294540405275 123.80021667480469 184.71788024902344 123.56303939819335 185.2042091369629 123.0614143371582 185.4425361633301 122.55978927612304 185.68086318969728 122.0313117980957 185.54411544799805
L 116.86288986206054 184.28216629028321
Q 116.50883712768554 184.21389694213866 116.22909317016601 184.44139938354493
L 112.27084274291992 187.99630508422854
Q 112.00171432495117 188.26606063842775 111.62143630981446 188.36160049438476 110.94538650512695 188.53144912719728 110.32147369384765 188.10423736572267 109.7504295349121 187.70866317749022 109.67559814453125 186.9638214111328
L 109.26261444091797 181.65470275878906
Q 109.23576202392577 181.27962799072267 108.92385787963866 181.110929107666
L 104.3190818786621 178.42714767456056 Z"/>

<path id="Layer2_0_MEMBER_19_1_STROKES" stroke="#0066FF" stroke-opacity="0" stroke-width="1" stroke-linejoin="round" stroke-linecap="round" fill="none" d="
M 83.19660568237305 57.04222717285156
L 116.32292861938477 57.04222717285156
Q 120.46981735229492 57.04222717285156 120.46981735229492 61.131658935546874
L 120.46981735229492 67.79502716064454
Q 120.46981735229492 71.88445892333985 116.32292861938477 71.88445892333985
L 83.19660568237305 71.88445892333985
Q 79.04971694946289 71.88445892333985 79.04971694946289 67.79502716064454
L 79.04971694946289 61.131658935546874
Q 79.04971694946289 57.04222717285156 83.19660568237305 57.04222717285156 Z"/>

<path id="Layer2_0_MEMBER_20_1_STROKES" stroke="#FFFFFF" stroke-opacity="0" stroke-width="1" stroke-linejoin="round" stroke-linecap="round" fill="none" d="
M 83.19660568237305 54.742227172851564
L 116.32292861938477 54.742227172851564
Q 120.46981735229492 54.742227172851564 120.46981735229492 58.831658935546876
L 120.46981735229492 65.49502716064453
Q 120.46981735229492 69.58445892333984 116.32292861938477 69.58445892333984
L 83.19660568237305 69.58445892333984
Q 79.04971694946289 69.58445892333984 79.04971694946289 65.49502716064453
L 79.04971694946289 58.831658935546876
Q 79.04971694946289 54.742227172851564 83.19660568237305 54.742227172851564 Z"/>

<path id="Layer2_0_MEMBER_23_1_STROKES" stroke="#0066FF" stroke-opacity="0" stroke-width="0.1" stroke-linejoin="round" stroke-linecap="round" fill="none" d="
M 116.99429092407226 57.380968475341795
Q 116.99429092407226 57.97227096557617 116.55081405639649 58.415747833251956 116.10733718872069 58.85922470092773 115.51603469848632 58.85922470092773 114.92473220825195 58.85922470092773 114.48125534057615 58.415747833251956 114.06241607666016 57.97227096557617 114.06241607666016 57.380968475341795 114.06241607666016 56.789665985107426 114.48125534057615 56.34618911743164 114.92473220825195 55.92734985351563 115.51603469848632 55.92734985351563 116.10733718872069 55.92734985351563 116.55081405639649 56.34618911743164 116.99429092407226 56.789665985107426 116.99429092407226 57.380968475341795 Z"/>

<path id="Layer2_0_MEMBER_24_1_STROKES" stroke="#0066FF" stroke-opacity="0" stroke-width="0.1" stroke-linejoin="round" stroke-linecap="round" fill="none" d="
M 95.30950622558593 72.67756652832031
Q 95.30950622558593 73.57052154541014 94.68585510253905 74.19417266845704 94.06220397949218 74.81782379150391 93.16924896240235 74.81782379150391 92.27629394531249 74.81782379150391 91.65264282226562 74.19417266845704 91.02899169921875 73.57052154541014 91.02899169921875 72.67756652832031 91.02899169921875 71.78461151123048 91.65264282226562 71.16096038818358 92.27629394531249 70.53730926513671 93.16924896240235 70.53730926513671 94.06220397949218 70.53730926513671 94.68585510253905 71.16096038818358 95.30950622558593 71.78461151123048 95.30950622558593 72.67756652832031 Z"/>

<path id="Layer2_0_MEMBER_25_1_STROKES" stroke="#0066FF" stroke-opacity="0" stroke-width="0.1" stroke-linejoin="round" stroke-linecap="round" fill="none" d="
M 108.45950622558594 72.67756652832031
Q 108.45950622558594 73.57052154541014 107.83585510253906 74.19417266845704 107.21220397949219 74.81782379150391 106.31924896240236 74.81782379150391 105.4262939453125 74.81782379150391 104.80264282226562 74.19417266845704 104.17899169921876 73.57052154541014 104.17899169921876 72.67756652832031 104.17899169921876 71.78461151123048 104.80264282226562 71.16096038818358 105.4262939453125 70.53730926513671 106.31924896240236 70.53730926513671 107.21220397949219 70.53730926513671 107.83585510253906 71.16096038818358 108.45950622558594 71.78461151123048 108.45950622558594 72.67756652832031 Z"/>

<path id="Layer2_0_MEMBER_26_1_STROKES" stroke="#0066FF" stroke-opacity="0" stroke-width="0.1" stroke-linejoin="round" stroke-linecap="round" fill="none" d="
M 87.85950622558593 74.87756652832032
Q 87.85950622558593 75.77052154541015 87.23585510253906 76.39417266845703 86.6122039794922 77.0178237915039 85.71924896240235 77.0178237915039 84.8262939453125 77.0178237915039 84.20264282226563 76.39417266845703 83.57899169921876 75.77052154541015 83.57899169921876 74.87756652832032 83.57899169921876 73.98461151123047 84.20264282226563 73.36096038818359 84.8262939453125 72.73730926513672 85.71924896240235 72.73730926513672 86.6122039794922 72.73730926513672 87.23585510253906 73.36096038818359 87.85950622558593 73.98461151123047 87.85950622558593 74.87756652832032 Z"/>

<path id="Layer2_0_MEMBER_27_1_STROKES" stroke="#0066FF" stroke-opacity="0" stroke-width="0.1" stroke-linejoin="round" stroke-linecap="round" fill="none" d="
M 115.45950622558594 74.87756652832032
Q 115.45950622558594 75.77052154541015 114.83585510253906 76.39417266845703 114.21220397949219 77.0178237915039 113.31924896240236 77.0178237915039 112.4262939453125 77.0178237915039 111.80264282226562 76.39417266845703 111.17899169921876 75.77052154541015 111.17899169921876 74.87756652832032 111.17899169921876 73.98461151123047 111.80264282226562 73.36096038818359 112.4262939453125 72.73730926513672 113.31924896240236 72.73730926513672 114.21220397949219 72.73730926513672 114.83585510253906 73.36096038818359 115.45950622558594 73.98461151123047 115.45950622558594 74.87756652832032 Z"/>

<path id="Layer2_0_MEMBER_28_1_STROKES" stroke="#0066FF" stroke-opacity="0" stroke-width="0.1" stroke-linejoin="round" stroke-linecap="round" fill="none" d="
M 94.10998992919922 72.64033355712891
Q 94.10998992919922 73.03720779418944 93.83280792236327 73.31438980102538 93.55562591552734 73.59157180786133 93.1587516784668 73.59157180786133 92.76187744140624 73.59157180786133 92.48469543457031 73.31438980102538 92.20751342773437 73.03720779418944 92.20751342773437 72.64033355712891 92.20751342773437 72.24345932006835 92.48469543457031 71.96627731323241 92.76187744140624 71.68909530639648 93.1587516784668 71.68909530639648 93.55562591552734 71.68909530639648 93.83280792236327 71.96627731323241 94.10998992919922 72.24345932006835 94.10998992919922 72.64033355712891 Z"/>

<path id="Layer2_0_MEMBER_29_1_STROKES" stroke="#0066FF" stroke-opacity="0" stroke-width="0.1" stroke-linejoin="round" stroke-linecap="round" fill="none" d="
M 107.15998992919921 72.64033355712891
Q 107.15998992919921 73.03720779418944 106.88280792236327 73.31438980102538 106.60562591552734 73.59157180786133 106.2087516784668 73.59157180786133 105.81187744140624 73.59157180786133 105.53469543457031 73.31438980102538 105.25751342773437 73.03720779418944 105.25751342773437 72.64033355712891 105.25751342773437 72.24345932006835 105.53469543457031 71.96627731323241 105.81187744140624 71.68909530639648 106.2087516784668 71.68909530639648 106.60562591552734 71.68909530639648 106.88280792236327 71.96627731323241 107.15998992919921 72.24345932006835 107.15998992919921 72.64033355712891 Z"/>
</defs>

<g transform="matrix( 0.4927520751953125, 0, 0, 0.4927520751953125, -85.65,-3.4) ">
<use xlink:href="#Layer2_0_FILL"/>

<use xlink:href="#Layer2_0_1_STROKES" transform="matrix( 2.0294036865234375, 0, 0, 2.0294036865234375, 173.8,6.9) "/>

<use xlink:href="#Layer2_0_2_STROKES" transform="matrix( 2.0294036865234375, 0, 0, 2.0294036865234375, 173.8,6.9) "/>
</g>

<g transform="matrix( 0.4927520751953125, 0, 0, 0.4927520751953125, 99.7,-54.05) ">
<use xlink:href="#Layer2_0_MEMBER_0_FILL"/>

<use xlink:href="#Layer2_0_MEMBER_0_1_STROKES" transform="matrix( 2.0294036865234375, 0, 0, 2.0294036865234375, -202.3,109.65) "/>
</g>

<g transform="matrix( 0.4927520751953125, 0, 0, 0.4927520751953125, 24.8,-54.05) ">
<use xlink:href="#Layer2_0_MEMBER_1_FILL"/>

<use xlink:href="#Layer2_0_MEMBER_1_1_STROKES" transform="matrix( 2.0294036865234375, 0, 0, 2.0294036865234375, -50.3,109.65) "/>
</g>

<g transform="matrix( 0.4927520751953125, 0, 0, 0.4927520751953125, 99.7,-54.05) ">
<use xlink:href="#Layer2_0_MEMBER_2_FILL"/>

<use xlink:href="#Layer2_0_MEMBER_2_1_STROKES" transform="matrix( 2.0294036865234375, 0, 0, 2.0294036865234375, -202.3,109.65) "/>
</g>

<g transform="matrix( 0.4927520751953125, 0, 0, 0.4927520751953125, 24.85,-54.35) ">
<use xlink:href="#Layer2_0_MEMBER_3_FILL"/>

<use xlink:href="#Layer2_0_MEMBER_3_1_STROKES" transform="matrix( 2.0294036865234375, 0, 0, 2.0294036865234375, -50.4,110.25) "/>
</g>

<g transform="matrix( 0.4927520751953125, 0, 0, 0.4927520751953125, 24.8,-53.1) ">
<use xlink:href="#Layer2_0_MEMBER_4_FILL"/>

<use xlink:href="#Layer2_0_MEMBER_4_1_STROKES" transform="matrix( 2.0294036865234375, 0, 0, 2.0294036865234375, -50.3,107.75) "/>
</g>

<g transform="matrix( 0.4927520751953125, 0, 0, 0.4927520751953125, 24.8,-54.05) ">
<use xlink:href="#Layer2_0_MEMBER_5_FILL"/>

<use xlink:href="#Layer2_0_MEMBER_5_1_STROKES" transform="matrix( 2.0294036865234375, 0, 0, 2.0294036865234375, -50.3,109.65) "/>
</g>

<g transform="matrix( -0.4927520751953125, 0, 0, 0.4927520751953125, 100.2,-54.05) ">
<use xlink:href="#Layer2_0_MEMBER_6_FILL"/>

<use xlink:href="#Layer2_0_MEMBER_6_1_STROKES" transform="matrix( -2.0294036865234375, 0, 0, 2.0294036865234375, 203.3,109.65) "/>
</g>

<g transform="matrix( 0.4927520751953125, 0, 0, 0.4927520751953125, -85.65,-3.4) ">
<use xlink:href="#Layer2_0_MEMBER_7_MEMBER_0_FILL"/>

<use xlink:href="#Layer2_0_MEMBER_7_MEMBER_0_1_STROKES" transform="matrix( 2.0294036865234375, 0, 0, 2.0294036865234375, 173.8,6.9) "/>
</g>

<g transform="matrix( 0.4927520751953125, 0, 0, 0.4927520751953125, 24.3,-54.05) ">
<use xlink:href="#Layer2_0_MEMBER_7_MEMBER_1_FILL"/>

<use xlink:href="#Layer2_0_MEMBER_7_MEMBER_1_1_STROKES" transform="matrix( 2.0294036865234375, 0, 0, 2.0294036865234375, -49.3,109.65) "/>
</g>

<g transform="matrix( -0.457183837890625, 0, 0, 0.4927520751953125, 120.35,-53.9) ">
<use xlink:href="#Layer2_0_MEMBER_8_FILL"/>

<use xlink:href="#Layer2_0_MEMBER_8_1_STROKES" transform="matrix( -2.1873016357421875, 0, 0, 2.0294036865234375, 263.2,109.35) "/>
</g>

<g transform="matrix( 0.323822021484375, 0, 0, 0.3193359375, 50.6,1.1) ">
<use xlink:href="#Layer2_0_MEMBER_9_FILL"/>

<use xlink:href="#Layer2_0_MEMBER_9_1_STROKES" transform="matrix( 3.088104248046875, 0, 0, 3.1314849853515625, -156.25,-3.4) "/>
</g>

<g transform="matrix( 0.4788970947265625, 0, 0, 0.4788970947265625, 31.75,-49.55) ">
<use xlink:href="#Layer2_0_MEMBER_10_FILL"/>

<use xlink:href="#Layer2_0_MEMBER_10_1_STROKES" transform="matrix( 2.0881195068359375, 0, 0, 2.0881195068359375, -66.25,103.45) "/>
</g>

<g transform="matrix( 0.6461181640625, 0, 0, 0.6461181640625, 10.95,-40.9) ">
<use xlink:href="#Layer2_0_MEMBER_11_FILL"/>

<use xlink:href="#Layer2_0_MEMBER_11_1_STROKES" transform="matrix( 1.547698974609375, 0, 0, 1.547698974609375, -16.9,63.3) "/>
</g>

<g transform="matrix( 0.6461181640625, 0, 0, 0.6461181640625, 38.6,-40.9) ">
<use xlink:href="#Layer2_0_MEMBER_12_FILL"/>

<use xlink:href="#Layer2_0_MEMBER_12_1_STROKES" transform="matrix( 1.547698974609375, 0, 0, 1.547698974609375, -59.7,63.3) "/>
</g>

<g transform="matrix( 0.4788970947265625, 0, 0, 0.467071533203125, 31.75,-46.4) ">
<use xlink:href="#Layer2_0_MEMBER_13_FILL"/>

<use xlink:href="#Layer2_0_MEMBER_13_1_STROKES" transform="matrix( 2.0881195068359375, 0, 0, 2.1409912109375, -66.25,99.3) "/>
</g>

<g transform="matrix( 0.409271240234375, 0, 0, 0.409271240234375, 41.65,-24.7) ">
<use xlink:href="#Layer2_0_MEMBER_14_FILL"/>

<use xlink:href="#Layer2_0_MEMBER_14_1_STROKES" transform="matrix( 2.443359375, 0, 0, 2.443359375, -101.75,60.35) "/>
</g>

<g transform="matrix( 0.409271240234375, 0, 0, 0.3817291259765625, 41.65,-12.25) ">
<use xlink:href="#Layer2_0_MEMBER_15_FILL"/>

<use xlink:href="#Layer2_0_MEMBER_15_1_STROKES" transform="matrix( 2.443359375, 0, 0, 2.6196441650390625, -101.75,32.05) "/>
</g>

<g transform="matrix( 0.425628662109375, 0, 0, 0.425628662109375, 37.35,-33.45) ">
<use xlink:href="#Layer2_0_MEMBER_16_FILL"/>

<use xlink:href="#Layer2_0_MEMBER_16_1_STROKES" transform="matrix( 2.349456787109375, 0, 0, 2.349456787109375, -87.75,78.55) "/>
</g>

<g transform="matrix( 0.4225311279296875, 0.1061553955078125, -0.1061553955078125, 0.4225311279296875, 75.35,163.65) ">
<use xlink:href="#Layer2_0_MEMBER_17_FILL"/>

<use xlink:href="#Layer2_0_MEMBER_17_STROKES_1_FILL"/>
</g>

<g transform="matrix( -0.4225311279296875, 0.1061553955078125, 0.1061553955078125, 0.4225311279296875, 122.55,163.65) ">
<use xlink:href="#Layer2_0_MEMBER_18_FILL"/>

<use xlink:href="#Layer2_0_MEMBER_18_1_STROKES" transform="matrix( -2.226165771484375, 0.559295654296875, 0.559295654296875, 2.226165771484375, 181.25,-432.85) "/>
</g>

<g transform="matrix( 0.4878692626953125, 0, 0, 0.481109619140625, 25.75,-48.85) ">
<use xlink:href="#Layer2_0_MEMBER_19_FILL"/>

<use xlink:href="#Layer2_0_MEMBER_19_1_STROKES" transform="matrix( 2.0497283935546875, 0, 0, 2.078521728515625, -52.75,101.5) "/>
</g>

<g transform="matrix( 0.4878692626953125, 0, 0, 0.481109619140625, 25.75,-51.15) ">
<use xlink:href="#Layer2_0_MEMBER_20_FILL"/>

<use xlink:href="#Layer2_0_MEMBER_20_1_STROKES" transform="matrix( 2.0497283935546875, 0, 0, 2.078521728515625, -52.75,106.3) "/>
</g>

<g transform="matrix( 0.1943817138671875, 0, 0, 0.1943817138671875, 87.1,57.3) ">
<use xlink:href="#Layer2_0_MEMBER_21_FILL"/>
</g>

<g transform="matrix( 0.1943817138671875, 0, 0, 0.1943817138671875, 102.75,57.3) ">
<use xlink:href="#Layer2_0_MEMBER_22_FILL"/>
</g>

<g transform="matrix( 0.4927520751953125, 0, 0, 0.4927520751953125, -85.65,-3.4) ">
<use xlink:href="#Layer2_0_MEMBER_23_FILL"/>

<use xlink:href="#Layer2_0_MEMBER_23_1_STROKES" transform="matrix( 2.0294036865234375, 0, 0, 2.0294036865234375, 173.8,6.9) "/>
</g>

<g transform="matrix( 0.283477783203125, 0, 0, 0.283477783203125, 60.3,21.85) ">
<use xlink:href="#Layer2_0_MEMBER_24_FILL"/>

<use xlink:href="#Layer2_0_MEMBER_24_1_STROKES" transform="matrix( 3.5276031494140625, 0, 0, 3.5276031494140625, -212.7,-77.05) "/>
</g>

<g transform="matrix( 0.283477783203125, 0, 0, 0.283477783203125, 73.45,21.85) ">
<use xlink:href="#Layer2_0_MEMBER_25_FILL"/>

<use xlink:href="#Layer2_0_MEMBER_25_1_STROKES" transform="matrix( 3.5276031494140625, 0, 0, 3.5276031494140625, -259.1,-77.05) "/>
</g>

<g transform="matrix( 0.283477783203125, 0, 0, 0.283477783203125, 52.85,24.05) ">
<use xlink:href="#Layer2_0_MEMBER_26_FILL"/>

<use xlink:href="#Layer2_0_MEMBER_26_1_STROKES" transform="matrix( 3.5276031494140625, 0, 0, 3.5276031494140625, -186.4,-84.8) "/>
</g>

<g transform="matrix( 0.283477783203125, 0, 0, 0.283477783203125, 80.45,24.05) ">
<use xlink:href="#Layer2_0_MEMBER_27_FILL"/>

<use xlink:href="#Layer2_0_MEMBER_27_1_STROKES" transform="matrix( 3.5276031494140625, 0, 0, 3.5276031494140625, -283.75,-84.8) "/>
</g>

<g transform="matrix( 0.1259918212890625, 0, 0, 0.1259918212890625, 78.55,50.05) ">
<use xlink:href="#Layer2_0_MEMBER_28_FILL"/>

<use xlink:href="#Layer2_0_MEMBER_28_1_STROKES" transform="matrix( 7.93701171875, 0, 0, 7.93701171875, -623.45,-397.2) "/>
</g>

<g transform="matrix( 0.1259918212890625, 0, 0, 0.1259918212890625, 91.6,50.05) ">
<use xlink:href="#Layer2_0_MEMBER_29_FILL"/>

<use xlink:href="#Layer2_0_MEMBER_29_1_STROKES" transform="matrix( 7.93701171875, 0, 0, 7.93701171875, -727,-397.2) "/>
</g>

<g transform="matrix( 0.112579345703125, 0, 0, 0.112579345703125, 71.2,96.35) ">
<use xlink:href="#Layer2_0_MEMBER_30_MEMBER_0_FILL"/>
</g>

<g transform="matrix( 0.112579345703125, 0, 0, 0.112579345703125, 71.2,96.35) ">
<use xlink:href="#Layer2_0_MEMBER_30_MEMBER_1_FILL"/>
</g>

<g transform="matrix( 0.112579345703125, 0, 0, 0.112579345703125, 71.2,96.35) ">
<use xlink:href="#Layer2_0_MEMBER_30_MEMBER_2_FILL"/>
</g>

<g transform="matrix( 0.112579345703125, 0, 0, 0.112579345703125, 71.2,96.35) ">
<use xlink:href="#Layer2_0_MEMBER_30_MEMBER_3_FILL"/>
</g>

<g transform="matrix( 0.112579345703125, 0, 0, 0.112579345703125, 71.2,96.35) ">
<use xlink:href="#Layer2_0_MEMBER_30_MEMBER_4_FILL"/>
</g>

<g transform="matrix( 0.112579345703125, 0, 0, 0.112579345703125, 71.2,96.35) ">
<use xlink:href="#Layer2_0_MEMBER_30_MEMBER_5_FILL"/>
</g>

<g transform="matrix( 0.112579345703125, 0, 0, 0.112579345703125, 71.2,96.35) ">
<use xlink:href="#Layer2_0_MEMBER_30_MEMBER_6_FILL"/>
</g>

<g transform="matrix( 0.112579345703125, 0, 0, 0.112579345703125, 71.2,96.35) ">
<use xlink:href="#Layer2_0_MEMBER_30_MEMBER_7_FILL"/>
</g>

<g transform="matrix( 0.112579345703125, 0, 0, 0.112579345703125, 71.2,96.35) ">
<use xlink:href="#Layer2_0_MEMBER_30_MEMBER_8_FILL"/>
</g>

<g transform="matrix( 0.112579345703125, 0, 0, 0.112579345703125, 71.2,96.35) ">
<use xlink:href="#Layer2_0_MEMBER_30_MEMBER_9_FILL"/>
</g>

<g transform="matrix( 0.112579345703125, 0, 0, 0.112579345703125, 71.2,96.35) ">
<use xlink:href="#Layer2_0_MEMBER_30_MEMBER_10_FILL"/>
</g>

<g transform="matrix( 0.112579345703125, 0, 0, 0.112579345703125, 71.2,96.35) ">
<use xlink:href="#Layer2_0_MEMBER_30_MEMBER_11_FILL"/>
</g>

<g transform="matrix( 0.112579345703125, 0, 0, 0.112579345703125, 71.2,96.35) ">
<use xlink:href="#Layer2_0_MEMBER_30_MEMBER_12_FILL"/>
</g>

<g transform="matrix( 0.112579345703125, 0, 0, 0.112579345703125, 71.2,96.35) ">
<use xlink:href="#Layer2_0_MEMBER_30_MEMBER_13_FILL"/>
</g>

<g transform="matrix( 0.112579345703125, 0, 0, 0.112579345703125, 71.2,96.35) ">
<use xlink:href="#Layer2_0_MEMBER_30_MEMBER_14_FILL"/>
</g>

<g transform="matrix( 0.112579345703125, 0, 0, 0.112579345703125, 71.2,96.35) ">
<use xlink:href="#Layer2_0_MEMBER_30_MEMBER_15_FILL"/>
</g>

<g transform="matrix( 0.112579345703125, 0, 0, 0.112579345703125, 71.2,96.35) ">
<use xlink:href="#Layer2_0_MEMBER_30_MEMBER_16_FILL"/>
</g>

<g transform="matrix( 0.112579345703125, 0, 0, 0.112579345703125, 71.2,96.35) ">
<use xlink:href="#Layer2_0_MEMBER_30_MEMBER_17_FILL"/>
</g>

<g transform="matrix( 0.112579345703125, 0, 0, 0.112579345703125, 71.2,96.35) ">
<use xlink:href="#Layer2_0_MEMBER_30_MEMBER_18_FILL"/>
</g>

<g transform="matrix( 0.112579345703125, 0, 0, 0.112579345703125, 71.2,96.35) ">
<use xlink:href="#Layer2_0_MEMBER_30_MEMBER_19_FILL"/>
</g>

<g transform="matrix( 0.112579345703125, 0, 0, 0.112579345703125, 71.2,96.35) ">
<use xlink:href="#Layer2_0_MEMBER_30_MEMBER_20_FILL"/>
</g>

<g transform="matrix( 0.112579345703125, 0, 0, 0.112579345703125, 71.2,96.35) ">
<use xlink:href="#Layer2_0_MEMBER_30_MEMBER_21_FILL"/>
</g>

<g transform="matrix( 0.112579345703125, 0, 0, 0.112579345703125, 71.2,96.35) ">
<use xlink:href="#Layer2_0_MEMBER_30_MEMBER_22_FILL"/>
</g>

<g transform="matrix( 0.112579345703125, 0, 0, 0.112579345703125, 71.2,96.35) ">
<use xlink:href="#Layer2_0_MEMBER_30_MEMBER_23_FILL"/>
</g>

<g transform="matrix( 0.112579345703125, 0, 0, 0.112579345703125, 71.2,96.35) ">
<use xlink:href="#Layer2_0_MEMBER_30_MEMBER_24_FILL"/>
</g>

<g transform="matrix( 0.112579345703125, 0, 0, 0.112579345703125, 71.2,96.35) ">
<use xlink:href="#Layer2_0_MEMBER_30_MEMBER_25_FILL"/>
</g>
</svg>
